STARTFONT 2.1
FONT -kiedtl-2xcursed-medium-r-normal--36-360-75-75-C-180-ISO10646-1

SIZE 36 75 75
FONTBOUNDINGBOX 18 36 0 -6
STARTPROPERTIES 19
FONTNAME_REGISTRY ""
FOUNDRY "kiedtl"
FAMILY_NAME "cursed"
WEIGHT_NAME "medium"
SLANT "r"
SETWIDTH_NAME "normal"
ADD_STYLE_NAME ""
PIXEL_SIZE 18
POINT_SIZE 360
RESOLUTION_X 75
RESOLUTION_Y 75
SPACING "C"
AVERAGE_WIDTH 90
CHARSET_REGISTRY "ISO10646"
CHARSET_ENCODING "1"
DESTINATION 1
FONT_ASCENT 30
FONT_DESCENT 6
_GBDFED_INFO "Edited with gbdfed 1.6."
ENDPROPERTIES
CHARS 483
STARTCHAR char0
ENCODING 0
SWIDTH 960 0
DWIDTH 18 0
BBX 18 36 0 -6
BITMAP
00000000
00000000
00000000
00000000
00000000
00000000
00000000
00000000
00000000
00000000
3CCF0000
3CCF0000
30030000
30030000
03F00000
03F00000
33330000
33330000
33330000
33330000
33330000
33330000
03F00000
03F00000
30030000
30030000
3CCF0000
3CCF0000
00000000
00000000
00000000
00000000
00000000
00000000
00000000
00000000
ENDCHAR
STARTCHAR char0
ENCODING 1
SWIDTH 960 0
DWIDTH 18 0
BBX 18 36 0 -6
BITMAP
00000000
00000000
00000000
00000000
00000000
00000000
00000000
00000000
00000000
00000000
3CCF0000
3CCF0000
30030000
30030000
00300000
00300000
30F30000
30F30000
30330000
30330000
30330000
30330000
00300000
00300000
30030000
30030000
3CCF0000
3CCF0000
00000000
00000000
00000000
00000000
00000000
00000000
00000000
00000000
ENDCHAR
STARTCHAR char0
ENCODING 2
SWIDTH 960 0
DWIDTH 18 0
BBX 18 36 0 -6
BITMAP
00000000
00000000
00000000
00000000
00000000
00000000
00000000
00000000
00000000
00000000
3CCF0000
3CCF0000
30030000
30030000
03C00000
03C00000
30330000
30330000
30C30000
30C30000
33030000
33030000
03F00000
03F00000
30030000
30030000
3CCF0000
3CCF0000
00000000
00000000
00000000
00000000
00000000
00000000
00000000
00000000
ENDCHAR
STARTCHAR char0
ENCODING 3
SWIDTH 960 0
DWIDTH 18 0
BBX 18 36 0 -6
BITMAP
00000000
00000000
00000000
00000000
00000000
00000000
00000000
00000000
00000000
00000000
3CCF0000
3CCF0000
30030000
30030000
03F00000
03F00000
30330000
30330000
30C30000
30C30000
30330000
30330000
03C00000
03C00000
30030000
30030000
3CCF0000
3CCF0000
00000000
00000000
00000000
00000000
00000000
00000000
00000000
00000000
ENDCHAR
STARTCHAR char0
ENCODING 4
SWIDTH 960 0
DWIDTH 18 0
BBX 18 36 0 -6
BITMAP
00000000
00000000
00000000
00000000
00000000
00000000
00000000
00000000
00000000
00000000
3CCF0000
3CCF0000
30030000
30030000
03300000
03300000
33330000
33330000
33F30000
33F30000
30330000
30330000
00300000
00300000
30030000
30030000
3CCF0000
3CCF0000
00000000
00000000
00000000
00000000
00000000
00000000
00000000
00000000
ENDCHAR
STARTCHAR char0
ENCODING 5
SWIDTH 960 0
DWIDTH 18 0
BBX 18 36 0 -6
BITMAP
00000000
00000000
00000000
00000000
00000000
00000000
00000000
00000000
00000000
00000000
3CCF0000
3CCF0000
30030000
30030000
03F00000
03F00000
33030000
33030000
33C30000
33C30000
30330000
30330000
03C00000
03C00000
30030000
30030000
3CCF0000
3CCF0000
00000000
00000000
00000000
00000000
00000000
00000000
00000000
00000000
ENDCHAR
STARTCHAR char0
ENCODING 6
SWIDTH 960 0
DWIDTH 18 0
BBX 18 36 0 -6
BITMAP
00000000
00000000
00000000
00000000
00000000
00000000
00000000
00000000
00000000
00000000
3CCF0000
3CCF0000
30030000
30030000
00F00000
00F00000
33030000
33030000
33F30000
33F30000
33330000
33330000
03F00000
03F00000
30030000
30030000
3CCF0000
3CCF0000
00000000
00000000
00000000
00000000
00000000
00000000
00000000
00000000
ENDCHAR
STARTCHAR char0
ENCODING 7
SWIDTH 960 0
DWIDTH 18 0
BBX 18 36 0 -6
BITMAP
00000000
00000000
00000000
00000000
00000000
00000000
00000000
00000000
00000000
00000000
3CCF0000
3CCF0000
30030000
30030000
03F00000
03F00000
30330000
30330000
30C30000
30C30000
33030000
33030000
03000000
03000000
30030000
30030000
3CCF0000
3CCF0000
00000000
00000000
00000000
00000000
00000000
00000000
00000000
00000000
ENDCHAR
STARTCHAR char0
ENCODING 8
SWIDTH 960 0
DWIDTH 18 0
BBX 18 36 0 -6
BITMAP
00000000
00000000
00000000
00000000
00000000
00000000
00000000
00000000
00000000
00000000
3CCF0000
3CCF0000
30030000
30030000
03F00000
03F00000
33330000
33330000
33F30000
33F30000
33330000
33330000
03F00000
03F00000
30030000
30030000
3CCF0000
3CCF0000
00000000
00000000
00000000
00000000
00000000
00000000
00000000
00000000
ENDCHAR
STARTCHAR char0
ENCODING 9
SWIDTH 960 0
DWIDTH 18 0
BBX 18 36 0 -6
BITMAP
00000000
00000000
00000000
00000000
00000000
00000000
00000000
00000000
00000000
00000000
3CCF0000
3CCF0000
30030000
30030000
03F00000
03F00000
33330000
33330000
33F30000
33F30000
30330000
30330000
03C00000
03C00000
30030000
30030000
3CCF0000
3CCF0000
00000000
00000000
00000000
00000000
00000000
00000000
00000000
00000000
ENDCHAR
STARTCHAR char0
ENCODING 10
SWIDTH 960 0
DWIDTH 18 0
BBX 18 36 0 -6
BITMAP
00000000
00000000
00000000
00000000
00000000
00000000
00000000
00000000
00000000
00000000
3CCF0000
3CCF0000
30030000
30030000
00C00000
00C00000
33330000
33330000
33F30000
33F30000
33330000
33330000
03300000
03300000
30030000
30030000
3CCF0000
3CCF0000
00000000
00000000
00000000
00000000
00000000
00000000
00000000
00000000
ENDCHAR
STARTCHAR char0
ENCODING 11
SWIDTH 960 0
DWIDTH 18 0
BBX 18 36 0 -6
BITMAP
00000000
00000000
00000000
00000000
00000000
00000000
00000000
00000000
00000000
00000000
3CCF0000
3CCF0000
30030000
30030000
03C00000
03C00000
33330000
33330000
33C30000
33C30000
33330000
33330000
03C00000
03C00000
30030000
30030000
3CCF0000
3CCF0000
00000000
00000000
00000000
00000000
00000000
00000000
00000000
00000000
ENDCHAR
STARTCHAR char0
ENCODING 12
SWIDTH 960 0
DWIDTH 18 0
BBX 18 36 0 -6
BITMAP
00000000
00000000
00000000
00000000
00000000
00000000
00000000
00000000
00000000
00000000
3CCF0000
3CCF0000
30030000
30030000
00F00000
00F00000
33030000
33030000
33030000
33030000
33030000
33030000
00F00000
00F00000
30030000
30030000
3CCF0000
3CCF0000
00000000
00000000
00000000
00000000
00000000
00000000
00000000
00000000
ENDCHAR
STARTCHAR char0
ENCODING 13
SWIDTH 960 0
DWIDTH 18 0
BBX 18 36 0 -6
BITMAP
00000000
00000000
00000000
00000000
00000000
00000000
00000000
00000000
00000000
00000000
3CCF0000
3CCF0000
30030000
30030000
03C00000
03C00000
33330000
33330000
33330000
33330000
33330000
33330000
03C00000
03C00000
30030000
30030000
3CCF0000
3CCF0000
00000000
00000000
00000000
00000000
00000000
00000000
00000000
00000000
ENDCHAR
STARTCHAR char0
ENCODING 14
SWIDTH 960 0
DWIDTH 18 0
BBX 18 36 0 -6
BITMAP
00000000
00000000
00000000
00000000
00000000
00000000
00000000
00000000
00000000
00000000
3CCF0000
3CCF0000
30030000
30030000
03F00000
03F00000
33030000
33030000
33F30000
33F30000
33030000
33030000
03F00000
03F00000
30030000
30030000
3CCF0000
3CCF0000
00000000
00000000
00000000
00000000
00000000
00000000
00000000
00000000
ENDCHAR
STARTCHAR char0
ENCODING 15
SWIDTH 960 0
DWIDTH 18 0
BBX 18 36 0 -6
BITMAP
00000000
00000000
00000000
00000000
00000000
00000000
00000000
00000000
00000000
00000000
3CCF0000
3CCF0000
30030000
30030000
03F00000
03F00000
33030000
33030000
33F30000
33F30000
33030000
33030000
03000000
03000000
30030000
30030000
3CCF0000
3CCF0000
00000000
00000000
00000000
00000000
00000000
00000000
00000000
00000000
ENDCHAR
STARTCHAR char0
ENCODING 16
SWIDTH 960 0
DWIDTH 18 0
BBX 18 36 0 -6
BITMAP
00000000
00000000
00000000
00000000
00000000
00000000
00000000
00000000
00000000
00000000
3CCF0000
3CCF0000
30030000
30030000
00000000
00000000
30030000
30030000
30030000
30030000
30030000
30030000
00000000
00000000
30030000
30030000
3CCF0000
3CCF0000
00000000
00000000
00000000
00000000
00000000
00000000
00000000
00000000
ENDCHAR
STARTCHAR char0
ENCODING 17
SWIDTH 960 0
DWIDTH 18 0
BBX 18 36 0 -6
BITMAP
00000000
00000000
00000000
00000000
00000000
00000000
00000000
00000000
00000000
00000000
3CCF0000
3CCF0000
30030000
30030000
00000000
00000000
30030000
30030000
30030000
30030000
30030000
30030000
00000000
00000000
30030000
30030000
3CCF0000
3CCF0000
00000000
00000000
00000000
00000000
00000000
00000000
00000000
00000000
ENDCHAR
STARTCHAR char0
ENCODING 18
SWIDTH 960 0
DWIDTH 18 0
BBX 18 36 0 -6
BITMAP
00000000
00000000
00000000
00000000
00000000
00000000
00000000
00000000
00000000
00000000
3CCF0000
3CCF0000
30030000
30030000
00000000
00000000
30030000
30030000
30030000
30030000
30030000
30030000
00000000
00000000
30030000
30030000
3CCF0000
3CCF0000
00000000
00000000
00000000
00000000
00000000
00000000
00000000
00000000
ENDCHAR
STARTCHAR char0
ENCODING 19
SWIDTH 960 0
DWIDTH 18 0
BBX 18 36 0 -6
BITMAP
00000000
00000000
00000000
00000000
00000000
00000000
00000000
00000000
00000000
00000000
3CCF0000
3CCF0000
30030000
30030000
00000000
00000000
30030000
30030000
30030000
30030000
30030000
30030000
00000000
00000000
30030000
30030000
3CCF0000
3CCF0000
00000000
00000000
00000000
00000000
00000000
00000000
00000000
00000000
ENDCHAR
STARTCHAR char0
ENCODING 20
SWIDTH 960 0
DWIDTH 18 0
BBX 18 36 0 -6
BITMAP
00000000
00000000
00000000
00000000
00000000
00000000
00000000
00000000
00000000
00000000
3CCF0000
3CCF0000
30030000
30030000
00000000
00000000
30030000
30030000
30030000
30030000
30030000
30030000
00000000
00000000
30030000
30030000
3CCF0000
3CCF0000
00000000
00000000
00000000
00000000
00000000
00000000
00000000
00000000
ENDCHAR
STARTCHAR char0
ENCODING 21
SWIDTH 960 0
DWIDTH 18 0
BBX 18 36 0 -6
BITMAP
00000000
00000000
00000000
00000000
00000000
00000000
00000000
00000000
00000000
00000000
3CCF0000
3CCF0000
30030000
30030000
00000000
00000000
30030000
30030000
30030000
30030000
30030000
30030000
00000000
00000000
30030000
30030000
3CCF0000
3CCF0000
00000000
00000000
00000000
00000000
00000000
00000000
00000000
00000000
ENDCHAR
STARTCHAR char0
ENCODING 22
SWIDTH 960 0
DWIDTH 18 0
BBX 18 36 0 -6
BITMAP
00000000
00000000
00000000
00000000
00000000
00000000
00000000
00000000
00000000
00000000
3CCF0000
3CCF0000
30030000
30030000
00000000
00000000
30030000
30030000
30030000
30030000
30030000
30030000
00000000
00000000
30030000
30030000
3CCF0000
3CCF0000
00000000
00000000
00000000
00000000
00000000
00000000
00000000
00000000
ENDCHAR
STARTCHAR char0
ENCODING 23
SWIDTH 960 0
DWIDTH 18 0
BBX 18 36 0 -6
BITMAP
00000000
00000000
00000000
00000000
00000000
00000000
00000000
00000000
00000000
00000000
3CCF0000
3CCF0000
30030000
30030000
00000000
00000000
30030000
30030000
30030000
30030000
30030000
30030000
00000000
00000000
30030000
30030000
3CCF0000
3CCF0000
00000000
00000000
00000000
00000000
00000000
00000000
00000000
00000000
ENDCHAR
STARTCHAR char0
ENCODING 24
SWIDTH 960 0
DWIDTH 18 0
BBX 18 36 0 -6
BITMAP
00000000
00000000
00000000
00000000
00000000
00000000
00000000
00000000
00000000
00000000
3CCF0000
3CCF0000
30030000
30030000
00000000
00000000
30030000
30030000
30030000
30030000
30030000
30030000
00000000
00000000
30030000
30030000
3CCF0000
3CCF0000
00000000
00000000
00000000
00000000
00000000
00000000
00000000
00000000
ENDCHAR
STARTCHAR char0
ENCODING 25
SWIDTH 960 0
DWIDTH 18 0
BBX 18 36 0 -6
BITMAP
00000000
00000000
00000000
00000000
00000000
00000000
00000000
00000000
00000000
00000000
3CCF0000
3CCF0000
30030000
30030000
00000000
00000000
30030000
30030000
30030000
30030000
30030000
30030000
00000000
00000000
30030000
30030000
3CCF0000
3CCF0000
00000000
00000000
00000000
00000000
00000000
00000000
00000000
00000000
ENDCHAR
STARTCHAR char0
ENCODING 26
SWIDTH 960 0
DWIDTH 18 0
BBX 18 36 0 -6
BITMAP
00000000
00000000
00000000
00000000
00000000
00000000
00000000
00000000
00000000
00000000
3CCF0000
3CCF0000
30030000
30030000
00000000
00000000
30030000
30030000
30030000
30030000
30030000
30030000
00000000
00000000
30030000
30030000
3CCF0000
3CCF0000
00000000
00000000
00000000
00000000
00000000
00000000
00000000
00000000
ENDCHAR
STARTCHAR char0
ENCODING 27
SWIDTH 960 0
DWIDTH 18 0
BBX 18 36 0 -6
BITMAP
00000000
00000000
00000000
00000000
00000000
00000000
00000000
00000000
00000000
00000000
3CCF0000
3CCF0000
30030000
30030000
00000000
00000000
30030000
30030000
30030000
30030000
30030000
30030000
00000000
00000000
30030000
30030000
3CCF0000
3CCF0000
00000000
00000000
00000000
00000000
00000000
00000000
00000000
00000000
ENDCHAR
STARTCHAR char0
ENCODING 28
SWIDTH 960 0
DWIDTH 18 0
BBX 18 36 0 -6
BITMAP
00000000
00000000
00000000
00000000
00000000
00000000
00000000
00000000
00000000
00000000
3CCF0000
3CCF0000
30030000
30030000
00000000
00000000
30030000
30030000
30030000
30030000
30030000
30030000
00000000
00000000
30030000
30030000
3CCF0000
3CCF0000
00000000
00000000
00000000
00000000
00000000
00000000
00000000
00000000
ENDCHAR
STARTCHAR char0
ENCODING 29
SWIDTH 960 0
DWIDTH 18 0
BBX 18 36 0 -6
BITMAP
00000000
00000000
00000000
00000000
00000000
00000000
00000000
00000000
00000000
00000000
3CCF0000
3CCF0000
30030000
30030000
00000000
00000000
30030000
30030000
30030000
30030000
30030000
30030000
00000000
00000000
30030000
30030000
3CCF0000
3CCF0000
00000000
00000000
00000000
00000000
00000000
00000000
00000000
00000000
ENDCHAR
STARTCHAR char0
ENCODING 30
SWIDTH 960 0
DWIDTH 18 0
BBX 18 36 0 -6
BITMAP
00000000
00000000
00000000
00000000
00000000
00000000
00000000
00000000
00000000
00000000
3CCF0000
3CCF0000
30030000
30030000
00000000
00000000
30030000
30030000
30030000
30030000
30030000
30030000
00000000
00000000
30030000
30030000
3CCF0000
3CCF0000
00000000
00000000
00000000
00000000
00000000
00000000
00000000
00000000
ENDCHAR
STARTCHAR char0
ENCODING 31
SWIDTH 960 0
DWIDTH 18 0
BBX 18 36 0 -6
BITMAP
00000000
00000000
00000000
00000000
00000000
00000000
00000000
00000000
00000000
00000000
3CCF0000
3CCF0000
30030000
30030000
00000000
00000000
30030000
30030000
30030000
30030000
30030000
30030000
00000000
00000000
30030000
30030000
3CCF0000
3CCF0000
00000000
00000000
00000000
00000000
00000000
00000000
00000000
00000000
ENDCHAR
STARTCHAR char0
ENCODING 32
SWIDTH 960 0
DWIDTH 18 0
BBX 18 36 0 -6
BITMAP
00000000
00000000
00000000
00000000
00000000
00000000
00000000
00000000
00000000
00000000
00000000
00000000
00000000
00000000
00000000
00000000
00000000
00000000
00000000
00000000
00000000
00000000
00000000
00000000
00000000
00000000
00000000
00000000
00000000
00000000
00000000
00000000
00000000
00000000
00000000
00000000
ENDCHAR
STARTCHAR U+0021
ENCODING 33
SWIDTH 960 0
DWIDTH 18 0
BBX 18 36 0 -6
BITMAP
00000000
00000000
00000000
00000000
00000000
00000000
00000000
00000000
00F00000
00F00000
00F00000
00F00000
00F00000
00F00000
00F00000
00F00000
00F00000
00F00000
00F00000
00F00000
00F00000
00F00000
00F00000
00F00000
00000000
00000000
00F00000
00F00000
00F00000
00F00000
00000000
00000000
00000000
00000000
00000000
00000000
ENDCHAR
STARTCHAR U+0022
ENCODING 34
SWIDTH 960 0
DWIDTH 18 0
BBX 18 36 0 -6
BITMAP
00000000
00000000
00000000
00000000
00000000
00000000
030C0000
030C0000
030C0000
030C0000
030C0000
030C0000
030C0000
030C0000
00000000
00000000
00000000
00000000
00000000
00000000
00000000
00000000
00000000
00000000
00000000
00000000
00000000
00000000
00000000
00000000
00000000
00000000
00000000
00000000
00000000
00000000
ENDCHAR
STARTCHAR U+0023
ENCODING 35
SWIDTH 960 0
DWIDTH 18 0
BBX 18 36 0 -6
BITMAP
00000000
00000000
00000000
00000000
00000000
00000000
00000000
00000000
00000000
00000000
0F3C0000
0F3C0000
0F3C0000
0F3C0000
3FFF0000
3FFF0000
0F3C0000
0F3C0000
0F3C0000
0F3C0000
0F3C0000
0F3C0000
3FFF0000
3FFF0000
0F3C0000
0F3C0000
0F3C0000
0F3C0000
00000000
00000000
00000000
00000000
00000000
00000000
00000000
00000000
ENDCHAR
STARTCHAR U+0024
ENCODING 36
SWIDTH 960 0
DWIDTH 18 0
BBX 18 36 0 -6
BITMAP
00000000
00000000
00C00000
00C00000
00C00000
00C00000
0FFC0000
0FFC0000
3C0F0000
3C0F0000
3C000000
3C000000
3C000000
3C000000
3C000000
3C000000
0FFC0000
0FFC0000
000F0000
000F0000
000F0000
000F0000
000F0000
000F0000
3C0F0000
3C0F0000
0FFC0000
0FFC0000
00C00000
00C00000
00C00000
00C00000
00000000
00000000
00000000
00000000
ENDCHAR
STARTCHAR U+0025
ENCODING 37
SWIDTH 960 0
DWIDTH 18 0
BBX 18 36 0 -6
BITMAP
00000000
00000000
00000000
00000000
00000000
00000000
00000000
00000000
00000000
00000000
00000000
00000000
3C030000
3C030000
3C0F0000
3C0F0000
003C0000
003C0000
00F00000
00F00000
03C00000
03C00000
0F000000
0F000000
3C0F0000
3C0F0000
300F0000
300F0000
00000000
00000000
00000000
00000000
00000000
00000000
00000000
00000000
ENDCHAR
STARTCHAR U+0026
ENCODING 38
SWIDTH 960 0
DWIDTH 18 0
BBX 18 36 0 -6
BITMAP
00000000
00000000
00000000
00000000
00000000
00000000
00000000
00000000
3FF00000
3FF00000
F0000000
F0000000
F0000000
F0000000
F0000000
F0000000
F0000000
F0000000
3FFF0000
3FFF0000
F03C0000
F03C0000
F03C0000
F03C0000
F03C0000
F03C0000
F03F0000
F03F0000
3FC30000
3FC30000
00000000
00000000
00000000
00000000
00000000
00000000
ENDCHAR
STARTCHAR U+0027
ENCODING 39
SWIDTH 960 0
DWIDTH 18 0
BBX 18 36 0 -6
BITMAP
00000000
00000000
00000000
00000000
00000000
00000000
00C00000
00C00000
00C00000
00C00000
00C00000
00C00000
00C00000
00C00000
00000000
00000000
00000000
00000000
00000000
00000000
00000000
00000000
00000000
00000000
00000000
00000000
00000000
00000000
00000000
00000000
00000000
00000000
00000000
00000000
00000000
00000000
ENDCHAR
STARTCHAR U+0028
ENCODING 40
SWIDTH 960 0
DWIDTH 18 0
BBX 18 36 0 -6
BITMAP
00000000
00000000
00000000
00000000
003F0000
003F0000
00C00000
00C00000
03000000
03000000
0F000000
0F000000
0F000000
0F000000
0F000000
0F000000
0F000000
0F000000
0F000000
0F000000
0F000000
0F000000
0F000000
0F000000
0F000000
0F000000
0F000000
0F000000
03000000
03000000
00C00000
00C00000
003F0000
003F0000
00000000
00000000
ENDCHAR
STARTCHAR U+0029
ENCODING 41
SWIDTH 960 0
DWIDTH 18 0
BBX 18 36 0 -6
BITMAP
00000000
00000000
00000000
00000000
3F000000
3F000000
00C00000
00C00000
00300000
00300000
003C0000
003C0000
003C0000
003C0000
003C0000
003C0000
003C0000
003C0000
003C0000
003C0000
003C0000
003C0000
003C0000
003C0000
003C0000
003C0000
003C0000
003C0000
00300000
00300000
00C00000
00C00000
3F000000
3F000000
00000000
00000000
ENDCHAR
STARTCHAR U+002a
ENCODING 42
SWIDTH 960 0
DWIDTH 18 0
BBX 18 36 0 -6
BITMAP
00000000
00000000
00000000
00000000
00000000
00000000
00000000
00000000
00000000
00000000
00000000
00000000
00C00000
00C00000
30C30000
30C30000
0CCC0000
0CCC0000
03F00000
03F00000
0CCC0000
0CCC0000
30C30000
30C30000
00C00000
00C00000
00000000
00000000
00000000
00000000
00000000
00000000
00000000
00000000
00000000
00000000
ENDCHAR
STARTCHAR U+002b
ENCODING 43
SWIDTH 960 0
DWIDTH 18 0
BBX 18 36 0 -6
BITMAP
00000000
00000000
00000000
00000000
00000000
00000000
00000000
00000000
00000000
00000000
00000000
00000000
00C00000
00C00000
00C00000
00C00000
00C00000
00C00000
3FFF0000
3FFF0000
00C00000
00C00000
00C00000
00C00000
00C00000
00C00000
00000000
00000000
00000000
00000000
00000000
00000000
00000000
00000000
00000000
00000000
ENDCHAR
STARTCHAR U+002c
ENCODING 44
SWIDTH 960 0
DWIDTH 18 0
BBX 18 36 0 -6
BITMAP
00000000
00000000
00000000
00000000
00000000
00000000
00000000
00000000
00000000
00000000
00000000
00000000
00000000
00000000
00000000
00000000
00000000
00000000
00000000
00000000
00000000
00000000
00000000
00000000
00000000
00000000
00F00000
00F00000
00F00000
00F00000
00300000
00300000
00C00000
00C00000
00000000
00000000
ENDCHAR
STARTCHAR U+002d
ENCODING 45
SWIDTH 960 0
DWIDTH 18 0
BBX 18 36 0 -6
BITMAP
00000000
00000000
00000000
00000000
00000000
00000000
00000000
00000000
00000000
00000000
00000000
00000000
00000000
00000000
00000000
00000000
00000000
00000000
00000000
00000000
3FFF0000
3FFF0000
00000000
00000000
00000000
00000000
00000000
00000000
00000000
00000000
00000000
00000000
00000000
00000000
00000000
00000000
ENDCHAR
STARTCHAR U+002e
ENCODING 46
SWIDTH 960 0
DWIDTH 18 0
BBX 18 36 0 -6
BITMAP
00000000
00000000
00000000
00000000
00000000
00000000
00000000
00000000
00000000
00000000
00000000
00000000
00000000
00000000
00000000
00000000
00000000
00000000
00000000
00000000
00000000
00000000
00000000
00000000
00000000
00000000
00F00000
00F00000
00F00000
00F00000
00000000
00000000
00000000
00000000
00000000
00000000
ENDCHAR
STARTCHAR U+002f
ENCODING 47
SWIDTH 960 0
DWIDTH 18 0
BBX 18 36 0 -6
BITMAP
00000000
00000000
00000000
00000000
00000000
00000000
00030000
00030000
00030000
00030000
000C0000
000C0000
000C0000
000C0000
00300000
00300000
00300000
00300000
00C00000
00C00000
00C00000
00C00000
03000000
03000000
03000000
03000000
0C000000
0C000000
0C000000
0C000000
00000000
00000000
00000000
00000000
00000000
00000000
ENDCHAR
STARTCHAR U+0030
ENCODING 48
SWIDTH 960 0
DWIDTH 18 0
BBX 18 36 0 -6
BITMAP
00000000
00000000
00000000
00000000
00000000
00000000
00000000
00000000
0FFC0000
0FFC0000
3C0F0000
3C0F0000
3C0F0000
3C0F0000
3C0F0000
3C0F0000
3CCF0000
3CCF0000
3CCF0000
3CCF0000
3CCF0000
3CCF0000
3C0F0000
3C0F0000
3C0F0000
3C0F0000
3C0F0000
3C0F0000
0FFC0000
0FFC0000
00000000
00000000
00000000
00000000
00000000
00000000
ENDCHAR
STARTCHAR U+0031
ENCODING 49
SWIDTH 960 0
DWIDTH 18 0
BBX 18 36 0 -6
BITMAP
00000000
00000000
00000000
00000000
00000000
00000000
00000000
00000000
03F00000
03F00000
03F00000
03F00000
00F00000
00F00000
00F00000
00F00000
00F00000
00F00000
00F00000
00F00000
00F00000
00F00000
00F00000
00F00000
00F00000
00F00000
00F00000
00F00000
00F00000
00F00000
00000000
00000000
00000000
00000000
00000000
00000000
ENDCHAR
STARTCHAR U+0032
ENCODING 50
SWIDTH 960 0
DWIDTH 18 0
BBX 18 36 0 -6
BITMAP
00000000
00000000
00000000
00000000
00000000
00000000
00000000
00000000
0FFC0000
0FFC0000
300F0000
300F0000
000F0000
000F0000
000F0000
000F0000
000F0000
000F0000
003C0000
003C0000
00F00000
00F00000
03C00000
03C00000
0F000000
0F000000
3C000000
3C000000
3FFF0000
3FFF0000
00000000
00000000
00000000
00000000
00000000
00000000
ENDCHAR
STARTCHAR U+0033
ENCODING 51
SWIDTH 960 0
DWIDTH 18 0
BBX 18 36 0 -6
BITMAP
00000000
00000000
00000000
00000000
00000000
00000000
00000000
00000000
3FFF0000
3FFF0000
003C0000
003C0000
00F00000
00F00000
03C00000
03C00000
0FFC0000
0FFC0000
000F0000
000F0000
000F0000
000F0000
000F0000
000F0000
000F0000
000F0000
300C0000
300C0000
0FF00000
0FF00000
00000000
00000000
00000000
00000000
00000000
00000000
ENDCHAR
STARTCHAR U+0034
ENCODING 52
SWIDTH 960 0
DWIDTH 18 0
BBX 18 36 0 -6
BITMAP
00000000
00000000
00000000
00000000
00000000
00000000
00000000
00000000
003C0000
003C0000
00FC0000
00FC0000
033C0000
033C0000
0C3C0000
0C3C0000
303C0000
303C0000
303C0000
303C0000
3FFF0000
3FFF0000
003C0000
003C0000
003C0000
003C0000
003C0000
003C0000
003C0000
003C0000
00000000
00000000
00000000
00000000
00000000
00000000
ENDCHAR
STARTCHAR U+0035
ENCODING 53
SWIDTH 960 0
DWIDTH 18 0
BBX 18 36 0 -6
BITMAP
00000000
00000000
00000000
00000000
00000000
00000000
00000000
00000000
3FFF0000
3FFF0000
3C000000
3C000000
3C000000
3C000000
3FFC0000
3FFC0000
000F0000
000F0000
000F0000
000F0000
000F0000
000F0000
000F0000
000F0000
000F0000
000F0000
300C0000
300C0000
0FF00000
0FF00000
00000000
00000000
00000000
00000000
00000000
00000000
ENDCHAR
STARTCHAR U+0036
ENCODING 54
SWIDTH 960 0
DWIDTH 18 0
BBX 18 36 0 -6
BITMAP
00000000
00000000
00000000
00000000
00000000
00000000
00000000
00000000
03FC0000
03FC0000
0F000000
0F000000
3C000000
3C000000
3FFC0000
3FFC0000
3C0F0000
3C0F0000
3C0F0000
3C0F0000
3C0F0000
3C0F0000
3C0F0000
3C0F0000
3C0F0000
3C0F0000
3C0F0000
3C0F0000
0FFC0000
0FFC0000
00000000
00000000
00000000
00000000
00000000
00000000
ENDCHAR
STARTCHAR U+0037
ENCODING 55
SWIDTH 960 0
DWIDTH 18 0
BBX 18 36 0 -6
BITMAP
00000000
00000000
00000000
00000000
00000000
00000000
00000000
00000000
3FFC0000
3FFC0000
003C0000
003C0000
003C0000
003C0000
003C0000
003C0000
00F00000
00F00000
03C00000
03C00000
03C00000
03C00000
03C00000
03C00000
03C00000
03C00000
03C00000
03C00000
03C00000
03C00000
00000000
00000000
00000000
00000000
00000000
00000000
ENDCHAR
STARTCHAR U+0038
ENCODING 56
SWIDTH 960 0
DWIDTH 18 0
BBX 18 36 0 -6
BITMAP
00000000
00000000
00000000
00000000
00000000
00000000
00000000
00000000
0FF00000
0FF00000
3C3C0000
3C3C0000
3C3C0000
3C3C0000
3C3C0000
3C3C0000
3C3C0000
3C3C0000
0FF00000
0FF00000
3C3C0000
3C3C0000
3C3C0000
3C3C0000
3C3C0000
3C3C0000
3C3C0000
3C3C0000
0FF00000
0FF00000
00000000
00000000
00000000
00000000
00000000
00000000
ENDCHAR
STARTCHAR U+0039
ENCODING 57
SWIDTH 960 0
DWIDTH 18 0
BBX 18 36 0 -6
BITMAP
00000000
00000000
00000000
00000000
00000000
00000000
00000000
00000000
0FFC0000
0FFC0000
3C0F0000
3C0F0000
3C0F0000
3C0F0000
3C0F0000
3C0F0000
3C0F0000
3C0F0000
3C0F0000
3C0F0000
0FFF0000
0FFF0000
000F0000
000F0000
003C0000
003C0000
00F00000
00F00000
0FC00000
0FC00000
00000000
00000000
00000000
00000000
00000000
00000000
ENDCHAR
STARTCHAR U+003a
ENCODING 58
SWIDTH 960 0
DWIDTH 18 0
BBX 18 36 0 -6
BITMAP
00000000
00000000
00000000
00000000
00000000
00000000
00000000
00000000
00000000
00000000
00000000
00000000
00000000
00000000
00F00000
00F00000
00F00000
00F00000
00000000
00000000
00000000
00000000
00000000
00000000
00000000
00000000
00F00000
00F00000
00F00000
00F00000
00000000
00000000
00000000
00000000
00000000
00000000
ENDCHAR
STARTCHAR U+003b
ENCODING 59
SWIDTH 960 0
DWIDTH 18 0
BBX 18 36 0 -6
BITMAP
00000000
00000000
00000000
00000000
00000000
00000000
00000000
00000000
00000000
00000000
00000000
00000000
00000000
00000000
00F00000
00F00000
00F00000
00F00000
00F00000
00F00000
00000000
00000000
00000000
00000000
00000000
00000000
00F00000
00F00000
00F00000
00F00000
00300000
00300000
00C00000
00C00000
00000000
00000000
ENDCHAR
STARTCHAR U+003c
ENCODING 60
SWIDTH 960 0
DWIDTH 18 0
BBX 18 36 0 -6
BITMAP
00000000
00000000
00000000
00000000
00000000
00000000
00000000
00000000
00000000
00000000
00000000
00000000
003C0000
003C0000
00F00000
00F00000
03C00000
03C00000
0F000000
0F000000
3C000000
3C000000
0F000000
0F000000
03C00000
03C00000
00F00000
00F00000
003C0000
003C0000
00000000
00000000
00000000
00000000
00000000
00000000
ENDCHAR
STARTCHAR U+003d
ENCODING 61
SWIDTH 960 0
DWIDTH 18 0
BBX 18 36 0 -6
BITMAP
00000000
00000000
00000000
00000000
00000000
00000000
00000000
00000000
00000000
00000000
00000000
00000000
00000000
00000000
00000000
00000000
3FFF0000
3FFF0000
00000000
00000000
00000000
00000000
00000000
00000000
3FFF0000
3FFF0000
00000000
00000000
00000000
00000000
00000000
00000000
00000000
00000000
00000000
00000000
ENDCHAR
STARTCHAR U+003c
ENCODING 62
SWIDTH 960 0
DWIDTH 18 0
BBX 18 36 0 -6
BITMAP
00000000
00000000
00000000
00000000
00000000
00000000
00000000
00000000
00000000
00000000
00000000
00000000
0F000000
0F000000
03C00000
03C00000
00F00000
00F00000
003C0000
003C0000
000F0000
000F0000
003C0000
003C0000
00F00000
00F00000
03C00000
03C00000
0F000000
0F000000
00000000
00000000
00000000
00000000
00000000
00000000
ENDCHAR
STARTCHAR U+003f
ENCODING 63
SWIDTH 960 0
DWIDTH 18 0
BBX 18 36 0 -6
BITMAP
00000000
00000000
00000000
00000000
00000000
00000000
00000000
00000000
0FFC0000
0FFC0000
300F0000
300F0000
000F0000
000F0000
000F0000
000F0000
003C0000
003C0000
00F00000
00F00000
03C00000
03C00000
03C00000
03C00000
00000000
00000000
03C00000
03C00000
03C00000
03C00000
00000000
00000000
00000000
00000000
00000000
00000000
ENDCHAR
STARTCHAR U+0040
ENCODING 64
SWIDTH 960 0
DWIDTH 18 0
BBX 18 36 0 -6
BITMAP
00000000
00000000
00000000
00000000
00000000
00000000
00000000
00000000
0FFC0000
0FFC0000
30030000
30030000
30030000
30030000
30FF0000
30FF0000
30C30000
30C30000
30C30000
30C30000
30C30000
30C30000
30FF0000
30FF0000
30000000
30000000
30030000
30030000
0FFC0000
0FFC0000
00000000
00000000
00000000
00000000
00000000
00000000
ENDCHAR
STARTCHAR U+0041
ENCODING 65
SWIDTH 960 0
DWIDTH 18 0
BBX 18 36 0 -6
BITMAP
00000000
00000000
00000000
00000000
00000000
00000000
00000000
00000000
0FFC0000
0FFC0000
3C0F0000
3C0F0000
3C0F0000
3C0F0000
3C0F0000
3C0F0000
3C0F0000
3C0F0000
3FFF0000
3FFF0000
3C0F0000
3C0F0000
3C0F0000
3C0F0000
3C0F0000
3C0F0000
3C0F0000
3C0F0000
3C0F0000
3C0F0000
00000000
00000000
00000000
00000000
00000000
00000000
ENDCHAR
STARTCHAR U+0042
ENCODING 66
SWIDTH 960 0
DWIDTH 18 0
BBX 18 36 0 -6
BITMAP
00000000
00000000
00000000
00000000
00000000
00000000
00000000
00000000
3FFC0000
3FFC0000
3C0F0000
3C0F0000
3C0F0000
3C0F0000
3C0F0000
3C0F0000
3C0F0000
3C0F0000
3FFC0000
3FFC0000
3C0F0000
3C0F0000
3C0F0000
3C0F0000
3C0F0000
3C0F0000
3C0F0000
3C0F0000
3FFC0000
3FFC0000
00000000
00000000
00000000
00000000
00000000
00000000
ENDCHAR
STARTCHAR U+0043
ENCODING 67
SWIDTH 960 0
DWIDTH 18 0
BBX 18 36 0 -6
BITMAP
00000000
00000000
00000000
00000000
00000000
00000000
00000000
00000000
0FFC0000
0FFC0000
3C030000
3C030000
3C000000
3C000000
3C000000
3C000000
3C000000
3C000000
3C000000
3C000000
3C000000
3C000000
3C000000
3C000000
3C000000
3C000000
3C030000
3C030000
0FFC0000
0FFC0000
00000000
00000000
00000000
00000000
00000000
00000000
ENDCHAR
STARTCHAR U+0044
ENCODING 68
SWIDTH 960 0
DWIDTH 18 0
BBX 18 36 0 -6
BITMAP
00000000
00000000
00000000
00000000
00000000
00000000
00000000
00000000
3FFC0000
3FFC0000
3C0F0000
3C0F0000
3C0F0000
3C0F0000
3C0F0000
3C0F0000
3C0F0000
3C0F0000
3C0F0000
3C0F0000
3C0F0000
3C0F0000
3C0F0000
3C0F0000
3C0F0000
3C0F0000
3C0F0000
3C0F0000
3FFC0000
3FFC0000
00000000
00000000
00000000
00000000
00000000
00000000
ENDCHAR
STARTCHAR U+0045
ENCODING 69
SWIDTH 960 0
DWIDTH 18 0
BBX 18 36 0 -6
BITMAP
00000000
00000000
00000000
00000000
00000000
00000000
00000000
00000000
3FFF0000
3FFF0000
3C000000
3C000000
3C000000
3C000000
3C000000
3C000000
3C000000
3C000000
3FF00000
3FF00000
3C000000
3C000000
3C000000
3C000000
3C000000
3C000000
3C000000
3C000000
3FFF0000
3FFF0000
00000000
00000000
00000000
00000000
00000000
00000000
ENDCHAR
STARTCHAR U+0046
ENCODING 70
SWIDTH 960 0
DWIDTH 18 0
BBX 18 36 0 -6
BITMAP
00000000
00000000
00000000
00000000
00000000
00000000
00000000
00000000
3FFF0000
3FFF0000
3C000000
3C000000
3C000000
3C000000
3C000000
3C000000
3C000000
3C000000
3FF00000
3FF00000
3C000000
3C000000
3C000000
3C000000
3C000000
3C000000
3C000000
3C000000
3C000000
3C000000
00000000
00000000
00000000
00000000
00000000
00000000
ENDCHAR
STARTCHAR U+0047
ENCODING 71
SWIDTH 960 0
DWIDTH 18 0
BBX 18 36 0 -6
BITMAP
00000000
00000000
00000000
00000000
00000000
00000000
00000000
00000000
0FFC0000
0FFC0000
3C0F0000
3C0F0000
3C000000
3C000000
3C000000
3C000000
3C000000
3C000000
3C3F0000
3C3F0000
3C0F0000
3C0F0000
3C0F0000
3C0F0000
3C0F0000
3C0F0000
3C0F0000
3C0F0000
0FFC0000
0FFC0000
00000000
00000000
00000000
00000000
00000000
00000000
ENDCHAR
STARTCHAR U+0048
ENCODING 72
SWIDTH 960 0
DWIDTH 18 0
BBX 18 36 0 -6
BITMAP
00000000
00000000
00000000
00000000
00000000
00000000
00000000
00000000
3C0F0000
3C0F0000
3C0F0000
3C0F0000
3C0F0000
3C0F0000
3C0F0000
3C0F0000
3C0F0000
3C0F0000
3FFF0000
3FFF0000
3C0F0000
3C0F0000
3C0F0000
3C0F0000
3C0F0000
3C0F0000
3C0F0000
3C0F0000
3C0F0000
3C0F0000
00000000
00000000
00000000
00000000
00000000
00000000
ENDCHAR
STARTCHAR U+0049
ENCODING 73
SWIDTH 960 0
DWIDTH 18 0
BBX 18 36 0 -6
BITMAP
00000000
00000000
00000000
00000000
00000000
00000000
00000000
00000000
3FFC0000
3FFC0000
03C00000
03C00000
03C00000
03C00000
03C00000
03C00000
03C00000
03C00000
03C00000
03C00000
03C00000
03C00000
03C00000
03C00000
03C00000
03C00000
03C00000
03C00000
3FFC0000
3FFC0000
00000000
00000000
00000000
00000000
00000000
00000000
ENDCHAR
STARTCHAR U+004a
ENCODING 74
SWIDTH 960 0
DWIDTH 18 0
BBX 18 36 0 -6
BITMAP
00000000
00000000
00000000
00000000
00000000
00000000
00000000
00000000
000F0000
000F0000
000F0000
000F0000
000F0000
000F0000
000F0000
000F0000
000F0000
000F0000
000F0000
000F0000
3C0F0000
3C0F0000
3C0F0000
3C0F0000
3C0F0000
3C0F0000
3C0F0000
3C0F0000
0FFC0000
0FFC0000
00000000
00000000
00000000
00000000
00000000
00000000
ENDCHAR
STARTCHAR U+004b
ENCODING 75
SWIDTH 960 0
DWIDTH 18 0
BBX 18 36 0 -6
BITMAP
00000000
00000000
00000000
00000000
00000000
00000000
00000000
00000000
3C030000
3C030000
3C0F0000
3C0F0000
3C3C0000
3C3C0000
3CF00000
3CF00000
3FC00000
3FC00000
3F000000
3F000000
3FC00000
3FC00000
3CF00000
3CF00000
3C3C0000
3C3C0000
3C0F0000
3C0F0000
3C030000
3C030000
00000000
00000000
00000000
00000000
00000000
00000000
ENDCHAR
STARTCHAR U+004c
ENCODING 76
SWIDTH 960 0
DWIDTH 18 0
BBX 18 36 0 -6
BITMAP
00000000
00000000
00000000
00000000
00000000
00000000
00000000
00000000
3C000000
3C000000
3C000000
3C000000
3C000000
3C000000
3C000000
3C000000
3C000000
3C000000
3C000000
3C000000
3C000000
3C000000
3C000000
3C000000
3C000000
3C000000
3C000000
3C000000
3FFF0000
3FFF0000
00000000
00000000
00000000
00000000
00000000
00000000
ENDCHAR
STARTCHAR U+004d
ENCODING 77
SWIDTH 960 0
DWIDTH 18 0
BBX 18 36 0 -6
BITMAP
00000000
00000000
00000000
00000000
00000000
00000000
00000000
00000000
F00F0000
F00F0000
F00F0000
F00F0000
FC3F0000
FC3F0000
FFFF0000
FFFF0000
F3CF0000
F3CF0000
F3CF0000
F3CF0000
F00F0000
F00F0000
F00F0000
F00F0000
F00F0000
F00F0000
F00F0000
F00F0000
F00F0000
F00F0000
00000000
00000000
00000000
00000000
00000000
00000000
ENDCHAR
STARTCHAR U+004e
ENCODING 78
SWIDTH 960 0
DWIDTH 18 0
BBX 18 36 0 -6
BITMAP
00000000
00000000
00000000
00000000
00000000
00000000
00000000
00000000
30030000
30030000
30030000
30030000
3C030000
3C030000
3F030000
3F030000
3FC30000
3FC30000
33F30000
33F30000
30FF0000
30FF0000
303F0000
303F0000
300F0000
300F0000
30030000
30030000
30030000
30030000
00000000
00000000
00000000
00000000
00000000
00000000
ENDCHAR
STARTCHAR U+004f
ENCODING 79
SWIDTH 960 0
DWIDTH 18 0
BBX 18 36 0 -6
BITMAP
00000000
00000000
00000000
00000000
00000000
00000000
00000000
00000000
0FFC0000
0FFC0000
3C0F0000
3C0F0000
3C0F0000
3C0F0000
3C0F0000
3C0F0000
3C0F0000
3C0F0000
3C0F0000
3C0F0000
3C0F0000
3C0F0000
3C0F0000
3C0F0000
3C0F0000
3C0F0000
3C0F0000
3C0F0000
0FFC0000
0FFC0000
00000000
00000000
00000000
00000000
00000000
00000000
ENDCHAR
STARTCHAR U+0050
ENCODING 80
SWIDTH 960 0
DWIDTH 18 0
BBX 18 36 0 -6
BITMAP
00000000
00000000
00000000
00000000
00000000
00000000
00000000
00000000
3FFC0000
3FFC0000
3C0F0000
3C0F0000
3C0F0000
3C0F0000
3C0F0000
3C0F0000
3C0F0000
3C0F0000
3FFC0000
3FFC0000
3C000000
3C000000
3C000000
3C000000
3C000000
3C000000
3C000000
3C000000
3C000000
3C000000
00000000
00000000
00000000
00000000
00000000
00000000
ENDCHAR
STARTCHAR U+0051
ENCODING 81
SWIDTH 960 0
DWIDTH 18 0
BBX 18 36 0 -6
BITMAP
00000000
00000000
00000000
00000000
00000000
00000000
00000000
00000000
0FFC0000
0FFC0000
3C0F0000
3C0F0000
3C0F0000
3C0F0000
3C0F0000
3C0F0000
3C0F0000
3C0F0000
3C0F0000
3C0F0000
3C0F0000
3C0F0000
3C0F0000
3C0F0000
3C0F0000
3C0F0000
3C0F0000
3C0F0000
0FFC0000
0FFC0000
000C0000
000C0000
000F0000
000F0000
00000000
00000000
ENDCHAR
STARTCHAR U+0052
ENCODING 82
SWIDTH 960 0
DWIDTH 18 0
BBX 18 36 0 -6
BITMAP
00000000
00000000
00000000
00000000
00000000
00000000
00000000
00000000
3FFC0000
3FFC0000
3C0F0000
3C0F0000
3C0F0000
3C0F0000
3C0F0000
3C0F0000
3C0F0000
3C0F0000
3C0F0000
3C0F0000
3FFC0000
3FFC0000
3C0F0000
3C0F0000
3C0F0000
3C0F0000
3C0F0000
3C0F0000
3C0F0000
3C0F0000
00000000
00000000
00000000
00000000
00000000
00000000
ENDCHAR
STARTCHAR U+0053
ENCODING 83
SWIDTH 960 0
DWIDTH 18 0
BBX 18 36 0 -6
BITMAP
00000000
00000000
00000000
00000000
00000000
00000000
00000000
00000000
0FFC0000
0FFC0000
3C0F0000
3C0F0000
3C000000
3C000000
3C000000
3C000000
3C000000
3C000000
0FFC0000
0FFC0000
000F0000
000F0000
000F0000
000F0000
000F0000
000F0000
3C0F0000
3C0F0000
0FFC0000
0FFC0000
00000000
00000000
00000000
00000000
00000000
00000000
ENDCHAR
STARTCHAR U+0054
ENCODING 84
SWIDTH 960 0
DWIDTH 18 0
BBX 18 36 0 -6
BITMAP
00000000
00000000
00000000
00000000
00000000
00000000
00000000
00000000
3FFFC000
3FFFC000
00F00000
00F00000
00F00000
00F00000
00F00000
00F00000
00F00000
00F00000
00F00000
00F00000
00F00000
00F00000
00F00000
00F00000
00F00000
00F00000
00F00000
00F00000
00F00000
00F00000
00000000
00000000
00000000
00000000
00000000
00000000
ENDCHAR
STARTCHAR U+0055
ENCODING 85
SWIDTH 960 0
DWIDTH 18 0
BBX 18 36 0 -6
BITMAP
00000000
00000000
00000000
00000000
00000000
00000000
00000000
00000000
3C0F0000
3C0F0000
3C0F0000
3C0F0000
3C0F0000
3C0F0000
3C0F0000
3C0F0000
3C0F0000
3C0F0000
3C0F0000
3C0F0000
3C0F0000
3C0F0000
3C0F0000
3C0F0000
3C0F0000
3C0F0000
3C0F0000
3C0F0000
0FFC0000
0FFC0000
00000000
00000000
00000000
00000000
00000000
00000000
ENDCHAR
STARTCHAR U+0056
ENCODING 86
SWIDTH 960 0
DWIDTH 18 0
BBX 18 36 0 -6
BITMAP
00000000
00000000
00000000
00000000
00000000
00000000
00000000
00000000
3C0F0000
3C0F0000
3C0F0000
3C0F0000
3C0F0000
3C0F0000
3C0F0000
3C0F0000
3C0F0000
3C0F0000
3C0F0000
3C0F0000
3C0F0000
3C0F0000
3C0F0000
3C0F0000
3C0F0000
3C0F0000
3C3C0000
3C3C0000
3FF00000
3FF00000
00000000
00000000
00000000
00000000
00000000
00000000
ENDCHAR
STARTCHAR U+0057
ENCODING 87
SWIDTH 960 0
DWIDTH 18 0
BBX 18 36 0 -6
BITMAP
00000000
00000000
00000000
00000000
00000000
00000000
00000000
00000000
F3CF0000
F3CF0000
F3CF0000
F3CF0000
F3CF0000
F3CF0000
F3CF0000
F3CF0000
F3CF0000
F3CF0000
F3CF0000
F3CF0000
F3CF0000
F3CF0000
F3CF0000
F3CF0000
F3CF0000
F3CF0000
F3FC0000
F3FC0000
FFF00000
FFF00000
00000000
00000000
00000000
00000000
00000000
00000000
ENDCHAR
STARTCHAR U+0058
ENCODING 88
SWIDTH 960 0
DWIDTH 18 0
BBX 18 36 0 -6
BITMAP
00000000
00000000
00000000
00000000
00000000
00000000
00000000
00000000
3C0F0000
3C0F0000
3C0F0000
3C0F0000
3C0F0000
3C0F0000
3C0F0000
3C0F0000
3C0F0000
3C0F0000
0FFC0000
0FFC0000
3C0F0000
3C0F0000
3C0F0000
3C0F0000
3C0F0000
3C0F0000
3C0F0000
3C0F0000
3C0F0000
3C0F0000
00000000
00000000
00000000
00000000
00000000
00000000
ENDCHAR
STARTCHAR U+0059
ENCODING 89
SWIDTH 960 0
DWIDTH 18 0
BBX 18 36 0 -6
BITMAP
00000000
00000000
00000000
00000000
00000000
00000000
00000000
00000000
3C3C0000
3C3C0000
3C3C0000
3C3C0000
3C3C0000
3C3C0000
3C3C0000
3C3C0000
3C3C0000
3C3C0000
0FF00000
0FF00000
03C00000
03C00000
03C00000
03C00000
03C00000
03C00000
03C00000
03C00000
03C00000
03C00000
00000000
00000000
00000000
00000000
00000000
00000000
ENDCHAR
STARTCHAR U+005a
ENCODING 90
SWIDTH 960 0
DWIDTH 18 0
BBX 18 36 0 -6
BITMAP
00000000
00000000
00000000
00000000
00000000
00000000
00000000
00000000
3FFC0000
3FFC0000
003C0000
003C0000
003C0000
003C0000
00FC0000
00FC0000
03F00000
03F00000
0FC00000
0FC00000
3F000000
3F000000
3C000000
3C000000
3C000000
3C000000
3C000000
3C000000
3FFC0000
3FFC0000
00000000
00000000
00000000
00000000
00000000
00000000
ENDCHAR
STARTCHAR U+005b
ENCODING 91
SWIDTH 960 0
DWIDTH 18 0
BBX 18 36 0 -6
BITMAP
00000000
00000000
00000000
00000000
0FFC0000
0FFC0000
0F000000
0F000000
0F000000
0F000000
0F000000
0F000000
0F000000
0F000000
0F000000
0F000000
0F000000
0F000000
0F000000
0F000000
0F000000
0F000000
0F000000
0F000000
0F000000
0F000000
0F000000
0F000000
0F000000
0F000000
0F000000
0F000000
0FFC0000
0FFC0000
00000000
00000000
ENDCHAR
STARTCHAR U+005c
ENCODING 92
SWIDTH 960 0
DWIDTH 18 0
BBX 18 36 0 -6
BITMAP
00000000
00000000
00000000
00000000
00000000
00000000
0C000000
0C000000
0C000000
0C000000
03000000
03000000
03000000
03000000
00C00000
00C00000
00C00000
00C00000
00300000
00300000
00300000
00300000
000C0000
000C0000
000C0000
000C0000
00030000
00030000
00030000
00030000
00000000
00000000
00000000
00000000
00000000
00000000
ENDCHAR
STARTCHAR U+005d
ENCODING 93
SWIDTH 960 0
DWIDTH 18 0
BBX 18 36 0 -6
BITMAP
00000000
00000000
00000000
00000000
0FFC0000
0FFC0000
003C0000
003C0000
003C0000
003C0000
003C0000
003C0000
003C0000
003C0000
003C0000
003C0000
003C0000
003C0000
003C0000
003C0000
003C0000
003C0000
003C0000
003C0000
003C0000
003C0000
003C0000
003C0000
003C0000
003C0000
003C0000
003C0000
0FFC0000
0FFC0000
00000000
00000000
ENDCHAR
STARTCHAR U+005e
ENCODING 94
SWIDTH 960 0
DWIDTH 18 0
BBX 18 36 0 -6
BITMAP
00000000
00000000
00000000
00000000
00C00000
00C00000
03F00000
03F00000
0F3C0000
0F3C0000
3C0F0000
3C0F0000
30030000
30030000
00000000
00000000
00000000
00000000
00000000
00000000
00000000
00000000
00000000
00000000
00000000
00000000
00000000
00000000
00000000
00000000
00000000
00000000
00000000
00000000
00000000
00000000
ENDCHAR
STARTCHAR U+005f
ENCODING 95
SWIDTH 960 0
DWIDTH 18 0
BBX 18 36 0 -6
BITMAP
00000000
00000000
00000000
00000000
00000000
00000000
00000000
00000000
00000000
00000000
00000000
00000000
00000000
00000000
00000000
00000000
00000000
00000000
00000000
00000000
00000000
00000000
00000000
00000000
00000000
00000000
00000000
00000000
FFFFC000
FFFFC000
00000000
00000000
00000000
00000000
00000000
00000000
ENDCHAR
STARTCHAR U+0060
ENCODING 96
SWIDTH 960 0
DWIDTH 18 0
BBX 18 36 0 -6
BITMAP
00000000
00000000
00000000
00000000
0C000000
0C000000
0F000000
0F000000
03C00000
03C00000
00F00000
00F00000
00300000
00300000
00000000
00000000
00000000
00000000
00000000
00000000
00000000
00000000
00000000
00000000
00000000
00000000
00000000
00000000
00000000
00000000
00000000
00000000
00000000
00000000
00000000
00000000
ENDCHAR
STARTCHAR U+0061
ENCODING 97
SWIDTH 960 0
DWIDTH 18 0
BBX 18 36 0 -6
BITMAP
00000000
00000000
00000000
00000000
00000000
00000000
00000000
00000000
00000000
00000000
00000000
00000000
00000000
00000000
0FFC0000
0FFC0000
300F0000
300F0000
0FFF0000
0FFF0000
3C0F0000
3C0F0000
3C0F0000
3C0F0000
3C0F0000
3C0F0000
3C0F0000
3C0F0000
0FFF0000
0FFF0000
00000000
00000000
00000000
00000000
00000000
00000000
ENDCHAR
STARTCHAR U+0062
ENCODING 98
SWIDTH 960 0
DWIDTH 18 0
BBX 18 36 0 -6
BITMAP
00000000
00000000
00000000
00000000
00000000
00000000
00000000
00000000
00000000
00000000
3C000000
3C000000
3C000000
3C000000
3FFC0000
3FFC0000
3C0F0000
3C0F0000
3C0F0000
3C0F0000
3C0F0000
3C0F0000
3C0F0000
3C0F0000
3C0F0000
3C0F0000
3C0F0000
3C0F0000
3FFC0000
3FFC0000
00000000
00000000
00000000
00000000
00000000
00000000
ENDCHAR
STARTCHAR U+0063
ENCODING 99
SWIDTH 960 0
DWIDTH 18 0
BBX 18 36 0 -6
BITMAP
00000000
00000000
00000000
00000000
00000000
00000000
00000000
00000000
00000000
00000000
00000000
00000000
00000000
00000000
0FFC0000
0FFC0000
3C030000
3C030000
3C000000
3C000000
3C000000
3C000000
3C000000
3C000000
3C000000
3C000000
3C030000
3C030000
0FFC0000
0FFC0000
00000000
00000000
00000000
00000000
00000000
00000000
ENDCHAR
STARTCHAR U+0064
ENCODING 100
SWIDTH 960 0
DWIDTH 18 0
BBX 18 36 0 -6
BITMAP
00000000
00000000
00000000
00000000
00000000
00000000
00000000
00000000
00000000
00000000
000F0000
000F0000
000F0000
000F0000
0FFF0000
0FFF0000
3C0F0000
3C0F0000
3C0F0000
3C0F0000
3C0F0000
3C0F0000
3C0F0000
3C0F0000
3C0F0000
3C0F0000
3C0F0000
3C0F0000
0FFF0000
0FFF0000
00000000
00000000
00000000
00000000
00000000
00000000
ENDCHAR
STARTCHAR U+0065
ENCODING 101
SWIDTH 960 0
DWIDTH 18 0
BBX 18 36 0 -6
BITMAP
00000000
00000000
00000000
00000000
00000000
00000000
00000000
00000000
00000000
00000000
00000000
00000000
00000000
00000000
0FFC0000
0FFC0000
3C0F0000
3C0F0000
3C0F0000
3C0F0000
3C0F0000
3C0F0000
3FFF0000
3FFF0000
3C000000
3C000000
3C030000
3C030000
0FFC0000
0FFC0000
00000000
00000000
00000000
00000000
00000000
00000000
ENDCHAR
STARTCHAR U+0066
ENCODING 102
SWIDTH 960 0
DWIDTH 18 0
BBX 18 36 0 -6
BITMAP
00000000
00000000
00000000
00000000
00000000
00000000
00000000
00000000
00000000
00000000
0FFC0000
0FFC0000
3C030000
3C030000
3C030000
3C030000
3C000000
3C000000
3C000000
3C000000
3FC00000
3FC00000
3C000000
3C000000
3C000000
3C000000
3C000000
3C000000
3C000000
3C000000
00000000
00000000
00000000
00000000
00000000
00000000
ENDCHAR
STARTCHAR U+0067
ENCODING 103
SWIDTH 960 0
DWIDTH 18 0
BBX 18 36 0 -6
BITMAP
00000000
00000000
00000000
00000000
00000000
00000000
00000000
00000000
00000000
00000000
00000000
00000000
00000000
00000000
0FFC0000
0FFC0000
3C0F0000
3C0F0000
3C0F0000
3C0F0000
3C0F0000
3C0F0000
3C0F0000
3C0F0000
3C0F0000
3C0F0000
3C0F0000
3C0F0000
0FFF0000
0FFF0000
000F0000
000F0000
300F0000
300F0000
0FFC0000
0FFC0000
ENDCHAR
STARTCHAR U+0068
ENCODING 104
SWIDTH 960 0
DWIDTH 18 0
BBX 18 36 0 -6
BITMAP
00000000
00000000
00000000
00000000
00000000
00000000
00000000
00000000
00000000
00000000
3C000000
3C000000
3C000000
3C000000
3FFC0000
3FFC0000
3C0F0000
3C0F0000
3C0F0000
3C0F0000
3C0F0000
3C0F0000
3C0F0000
3C0F0000
3C0F0000
3C0F0000
3C0F0000
3C0F0000
3C0F0000
3C0F0000
00000000
00000000
00000000
00000000
00000000
00000000
ENDCHAR
STARTCHAR U+0069
ENCODING 105
SWIDTH 960 0
DWIDTH 18 0
BBX 18 36 0 -6
BITMAP
00000000
00000000
00000000
00000000
00000000
00000000
00000000
00000000
00000000
00000000
00000000
00000000
00000000
00000000
0FC00000
0FC00000
03C00000
03C00000
03C00000
03C00000
03C00000
03C00000
03C00000
03C00000
03C00000
03C00000
03C00000
03C00000
00FC0000
00FC0000
00000000
00000000
00000000
00000000
00000000
00000000
ENDCHAR
STARTCHAR U+006a
ENCODING 106
SWIDTH 960 0
DWIDTH 18 0
BBX 18 36 0 -6
BITMAP
00000000
00000000
00000000
00000000
00000000
00000000
00000000
00000000
00000000
00000000
00000000
00000000
00000000
00000000
003F0000
003F0000
000F0000
000F0000
000F0000
000F0000
000F0000
000F0000
000F0000
000F0000
000F0000
000F0000
000F0000
000F0000
000F0000
000F0000
000F0000
000F0000
300F0000
300F0000
0FFC0000
0FFC0000
ENDCHAR
STARTCHAR U+006b
ENCODING 107
SWIDTH 960 0
DWIDTH 18 0
BBX 18 36 0 -6
BITMAP
00000000
00000000
00000000
00000000
00000000
00000000
00000000
00000000
00000000
00000000
3C000000
3C000000
3C000000
3C000000
3C3C0000
3C3C0000
3CF00000
3CF00000
3FC00000
3FC00000
3F000000
3F000000
3FC00000
3FC00000
3CF00000
3CF00000
3C3C0000
3C3C0000
3C0F0000
3C0F0000
00000000
00000000
00000000
00000000
00000000
00000000
ENDCHAR
STARTCHAR U+006c
ENCODING 108
SWIDTH 960 0
DWIDTH 18 0
BBX 18 36 0 -6
BITMAP
00000000
00000000
00000000
00000000
00000000
00000000
00000000
00000000
00000000
00000000
0FC00000
0FC00000
03C00000
03C00000
03C00000
03C00000
03C00000
03C00000
03C00000
03C00000
03C00000
03C00000
03C00000
03C00000
03C00000
03C00000
03C00000
03C00000
00FC0000
00FC0000
00000000
00000000
00000000
00000000
00000000
00000000
ENDCHAR
STARTCHAR U+006d
ENCODING 109
SWIDTH 960 0
DWIDTH 18 0
BBX 18 36 0 -6
BITMAP
00000000
00000000
00000000
00000000
00000000
00000000
00000000
00000000
00000000
00000000
00000000
00000000
00000000
00000000
3FFF0000
3FFF0000
3CF3C000
3CF3C000
3CF3C000
3CF3C000
3CF3C000
3CF3C000
3CF3C000
3CF3C000
3CF3C000
3CF3C000
3CF3C000
3CF3C000
3CF3C000
3CF3C000
00000000
00000000
00000000
00000000
00000000
00000000
ENDCHAR
STARTCHAR U+006e
ENCODING 110
SWIDTH 960 0
DWIDTH 18 0
BBX 18 36 0 -6
BITMAP
00000000
00000000
00000000
00000000
00000000
00000000
00000000
00000000
00000000
00000000
00000000
00000000
00000000
00000000
3FFC0000
3FFC0000
3C0F0000
3C0F0000
3C0F0000
3C0F0000
3C0F0000
3C0F0000
3C0F0000
3C0F0000
3C0F0000
3C0F0000
3C0F0000
3C0F0000
3C0F0000
3C0F0000
00000000
00000000
00000000
00000000
00000000
00000000
ENDCHAR
STARTCHAR U+006f
ENCODING 111
SWIDTH 960 0
DWIDTH 18 0
BBX 18 36 0 -6
BITMAP
00000000
00000000
00000000
00000000
00000000
00000000
00000000
00000000
00000000
00000000
00000000
00000000
00000000
00000000
0FFC0000
0FFC0000
3C0F0000
3C0F0000
3C0F0000
3C0F0000
3C0F0000
3C0F0000
3C0F0000
3C0F0000
3C0F0000
3C0F0000
3C0F0000
3C0F0000
0FFC0000
0FFC0000
00000000
00000000
00000000
00000000
00000000
00000000
ENDCHAR
STARTCHAR U+0070
ENCODING 112
SWIDTH 960 0
DWIDTH 18 0
BBX 18 36 0 -6
BITMAP
00000000
00000000
00000000
00000000
00000000
00000000
00000000
00000000
00000000
00000000
00000000
00000000
00000000
00000000
3FFC0000
3FFC0000
3C0F0000
3C0F0000
3C0F0000
3C0F0000
3C0F0000
3C0F0000
3C0F0000
3C0F0000
3C0F0000
3C0F0000
3C0F0000
3C0F0000
3FFC0000
3FFC0000
3C000000
3C000000
3C000000
3C000000
3C000000
3C000000
ENDCHAR
STARTCHAR U+0071
ENCODING 113
SWIDTH 960 0
DWIDTH 18 0
BBX 18 36 0 -6
BITMAP
00000000
00000000
00000000
00000000
00000000
00000000
00000000
00000000
00000000
00000000
00000000
00000000
00000000
00000000
0FFF0000
0FFF0000
3C0F0000
3C0F0000
3C0F0000
3C0F0000
3C0F0000
3C0F0000
3C0F0000
3C0F0000
3C0F0000
3C0F0000
3C0F0000
3C0F0000
0FFF0000
0FFF0000
000F0000
000F0000
000F0000
000F0000
000F0000
000F0000
ENDCHAR
STARTCHAR U+0072
ENCODING 114
SWIDTH 960 0
DWIDTH 18 0
BBX 18 36 0 -6
BITMAP
00000000
00000000
00000000
00000000
00000000
00000000
00000000
00000000
00000000
00000000
00000000
00000000
00000000
00000000
3CFF0000
3CFF0000
3F000000
3F000000
3C000000
3C000000
3C000000
3C000000
3C000000
3C000000
3C000000
3C000000
3C000000
3C000000
3C000000
3C000000
00000000
00000000
00000000
00000000
00000000
00000000
ENDCHAR
STARTCHAR U+0073
ENCODING 115
SWIDTH 960 0
DWIDTH 18 0
BBX 18 36 0 -6
BITMAP
00000000
00000000
00000000
00000000
00000000
00000000
00000000
00000000
00000000
00000000
00000000
00000000
00000000
00000000
0FFC0000
0FFC0000
3C0F0000
3C0F0000
3C000000
3C000000
0FFC0000
0FFC0000
000F0000
000F0000
000F0000
000F0000
3C0F0000
3C0F0000
0FFC0000
0FFC0000
00000000
00000000
00000000
00000000
00000000
00000000
ENDCHAR
STARTCHAR U+0074
ENCODING 116
SWIDTH 960 0
DWIDTH 18 0
BBX 18 36 0 -6
BITMAP
00000000
00000000
00000000
00000000
00000000
00000000
00000000
00000000
00000000
00000000
00000000
00000000
00000000
00000000
3FFF0000
3FFF0000
03C00000
03C00000
03C00000
03C00000
03C00000
03C00000
03C00000
03C00000
03C00000
03C00000
03C00000
03C00000
00FC0000
00FC0000
00000000
00000000
00000000
00000000
00000000
00000000
ENDCHAR
STARTCHAR U+0075
ENCODING 117
SWIDTH 960 0
DWIDTH 18 0
BBX 18 36 0 -6
BITMAP
00000000
00000000
00000000
00000000
00000000
00000000
00000000
00000000
00000000
00000000
00000000
00000000
00000000
00000000
3C0F0000
3C0F0000
3C0F0000
3C0F0000
3C0F0000
3C0F0000
3C0F0000
3C0F0000
3C0F0000
3C0F0000
3C0F0000
3C0F0000
3C0F0000
3C0F0000
0FFF0000
0FFF0000
00000000
00000000
00000000
00000000
00000000
00000000
ENDCHAR
STARTCHAR U+0076
ENCODING 118
SWIDTH 960 0
DWIDTH 18 0
BBX 18 36 0 -6
BITMAP
00000000
00000000
00000000
00000000
00000000
00000000
00000000
00000000
00000000
00000000
00000000
00000000
00000000
00000000
3C0F0000
3C0F0000
3C0F0000
3C0F0000
3C0F0000
3C0F0000
3C0F0000
3C0F0000
3C0F0000
3C0F0000
3C0F0000
3C0F0000
3C3C0000
3C3C0000
3FF00000
3FF00000
00000000
00000000
00000000
00000000
00000000
00000000
ENDCHAR
STARTCHAR U+0077
ENCODING 119
SWIDTH 960 0
DWIDTH 18 0
BBX 18 36 0 -6
BITMAP
00000000
00000000
00000000
00000000
00000000
00000000
00000000
00000000
00000000
00000000
00000000
00000000
00000000
00000000
3CF3C000
3CF3C000
3CF3C000
3CF3C000
3CF3C000
3CF3C000
3CF3C000
3CF3C000
3CF3C000
3CF3C000
3CF3C000
3CF3C000
3CFF0000
3CFF0000
3FFC0000
3FFC0000
00000000
00000000
00000000
00000000
00000000
00000000
ENDCHAR
STARTCHAR U+0078
ENCODING 120
SWIDTH 960 0
DWIDTH 18 0
BBX 18 36 0 -6
BITMAP
00000000
00000000
00000000
00000000
00000000
00000000
00000000
00000000
00000000
00000000
00000000
00000000
00000000
00000000
3C0F0000
3C0F0000
3C0F0000
3C0F0000
3C0F0000
3C0F0000
0FFC0000
0FFC0000
3C0F0000
3C0F0000
3C0F0000
3C0F0000
3C0F0000
3C0F0000
3C0F0000
3C0F0000
00000000
00000000
00000000
00000000
00000000
00000000
ENDCHAR
STARTCHAR U+0079
ENCODING 121
SWIDTH 960 0
DWIDTH 18 0
BBX 18 36 0 -6
BITMAP
00000000
00000000
00000000
00000000
00000000
00000000
00000000
00000000
00000000
00000000
00000000
00000000
00000000
00000000
3C0F0000
3C0F0000
3C0F0000
3C0F0000
3C0F0000
3C0F0000
3C0F0000
3C0F0000
3C0F0000
3C0F0000
3C0F0000
3C0F0000
3C0F0000
3C0F0000
0FFF0000
0FFF0000
000F0000
000F0000
300F0000
300F0000
0FFC0000
0FFC0000
ENDCHAR
STARTCHAR U+007a
ENCODING 122
SWIDTH 960 0
DWIDTH 18 0
BBX 18 36 0 -6
BITMAP
00000000
00000000
00000000
00000000
00000000
00000000
00000000
00000000
00000000
00000000
00000000
00000000
00000000
00000000
3FFC0000
3FFC0000
003C0000
003C0000
00F00000
00F00000
03C00000
03C00000
0F000000
0F000000
3C000000
3C000000
3C000000
3C000000
3FFC0000
3FFC0000
00000000
00000000
00000000
00000000
00000000
00000000
ENDCHAR
STARTCHAR U+007b
ENCODING 123
SWIDTH 960 0
DWIDTH 18 0
BBX 18 36 0 -6
BITMAP
00000000
00000000
00000000
00000000
003F0000
003F0000
00F00000
00F00000
00F00000
00F00000
00F00000
00F00000
00F00000
00F00000
00F00000
00F00000
00F00000
00F00000
3FF00000
3FF00000
00F00000
00F00000
00F00000
00F00000
00F00000
00F00000
00F00000
00F00000
00F00000
00F00000
00F00000
00F00000
003F0000
003F0000
00000000
00000000
ENDCHAR
STARTCHAR U+007c
ENCODING 124
SWIDTH 960 0
DWIDTH 18 0
BBX 18 36 0 -6
BITMAP
00000000
00000000
00000000
00000000
03C00000
03C00000
03C00000
03C00000
03C00000
03C00000
03C00000
03C00000
03C00000
03C00000
03C00000
03C00000
03C00000
03C00000
03C00000
03C00000
03C00000
03C00000
03C00000
03C00000
03C00000
03C00000
03C00000
03C00000
03C00000
03C00000
00000000
00000000
00000000
00000000
00000000
00000000
ENDCHAR
STARTCHAR U+007d
ENCODING 125
SWIDTH 960 0
DWIDTH 18 0
BBX 18 36 0 -6
BITMAP
00000000
00000000
00000000
00000000
03F00000
03F00000
003C0000
003C0000
003C0000
003C0000
003C0000
003C0000
003C0000
003C0000
003C0000
003C0000
003C0000
003C0000
003FC000
003FC000
003C0000
003C0000
003C0000
003C0000
003C0000
003C0000
003C0000
003C0000
003C0000
003C0000
003C0000
003C0000
03F00000
03F00000
00000000
00000000
ENDCHAR
STARTCHAR U+007e
ENCODING 126
SWIDTH 960 0
DWIDTH 18 0
BBX 18 36 0 -6
BITMAP
00000000
00000000
00000000
00000000
00000000
00000000
00000000
00000000
00000000
00000000
00000000
00000000
00000000
00000000
0FC00000
0FC00000
3FF0C000
3FF0C000
30FFC000
30FFC000
003F0000
003F0000
00000000
00000000
00000000
00000000
00000000
00000000
00000000
00000000
00000000
00000000
00000000
00000000
00000000
00000000
ENDCHAR
STARTCHAR char0
ENCODING 128
SWIDTH 960 0
DWIDTH 18 0
BBX 18 36 0 -6
BITMAP
00000000
00000000
00000000
00000000
00000000
00000000
00000000
00000000
00000000
00000000
3CCF0000
3CCF0000
30030000
30030000
00000000
00000000
30030000
30030000
30030000
30030000
30030000
30030000
00000000
00000000
30030000
30030000
3CCF0000
3CCF0000
00000000
00000000
00000000
00000000
00000000
00000000
00000000
00000000
ENDCHAR
STARTCHAR char0
ENCODING 129
SWIDTH 960 0
DWIDTH 18 0
BBX 18 36 0 -6
BITMAP
00000000
00000000
00000000
00000000
00000000
00000000
00000000
00000000
00000000
00000000
3CCF0000
3CCF0000
30030000
30030000
00000000
00000000
30030000
30030000
30030000
30030000
30030000
30030000
00000000
00000000
30030000
30030000
3CCF0000
3CCF0000
00000000
00000000
00000000
00000000
00000000
00000000
00000000
00000000
ENDCHAR
STARTCHAR char0
ENCODING 130
SWIDTH 960 0
DWIDTH 18 0
BBX 18 36 0 -6
BITMAP
00000000
00000000
00000000
00000000
00000000
00000000
00000000
00000000
00000000
00000000
3CCF0000
3CCF0000
30030000
30030000
00000000
00000000
30030000
30030000
30030000
30030000
30030000
30030000
00000000
00000000
30030000
30030000
3CCF0000
3CCF0000
00000000
00000000
00000000
00000000
00000000
00000000
00000000
00000000
ENDCHAR
STARTCHAR char0
ENCODING 131
SWIDTH 960 0
DWIDTH 18 0
BBX 18 36 0 -6
BITMAP
00000000
00000000
00000000
00000000
00000000
00000000
00000000
00000000
00000000
00000000
3CCF0000
3CCF0000
30030000
30030000
00000000
00000000
30030000
30030000
30030000
30030000
30030000
30030000
00000000
00000000
30030000
30030000
3CCF0000
3CCF0000
00000000
00000000
00000000
00000000
00000000
00000000
00000000
00000000
ENDCHAR
STARTCHAR char0
ENCODING 132
SWIDTH 960 0
DWIDTH 18 0
BBX 18 36 0 -6
BITMAP
00000000
00000000
00000000
00000000
00000000
00000000
00000000
00000000
00000000
00000000
3CCF0000
3CCF0000
30030000
30030000
00000000
00000000
30030000
30030000
30030000
30030000
30030000
30030000
00000000
00000000
30030000
30030000
3CCF0000
3CCF0000
00000000
00000000
00000000
00000000
00000000
00000000
00000000
00000000
ENDCHAR
STARTCHAR char0
ENCODING 133
SWIDTH 960 0
DWIDTH 18 0
BBX 18 36 0 -6
BITMAP
00000000
00000000
00000000
00000000
00000000
00000000
00000000
00000000
00000000
00000000
3CCF0000
3CCF0000
30030000
30030000
00000000
00000000
30030000
30030000
30030000
30030000
30030000
30030000
00000000
00000000
30030000
30030000
3CCF0000
3CCF0000
00000000
00000000
00000000
00000000
00000000
00000000
00000000
00000000
ENDCHAR
STARTCHAR char0
ENCODING 134
SWIDTH 960 0
DWIDTH 18 0
BBX 18 36 0 -6
BITMAP
00000000
00000000
00000000
00000000
00000000
00000000
00000000
00000000
00000000
00000000
3CCF0000
3CCF0000
30030000
30030000
00000000
00000000
30030000
30030000
30030000
30030000
30030000
30030000
00000000
00000000
30030000
30030000
3CCF0000
3CCF0000
00000000
00000000
00000000
00000000
00000000
00000000
00000000
00000000
ENDCHAR
STARTCHAR char0
ENCODING 135
SWIDTH 960 0
DWIDTH 18 0
BBX 18 36 0 -6
BITMAP
00000000
00000000
00000000
00000000
00000000
00000000
00000000
00000000
00000000
00000000
3CCF0000
3CCF0000
30030000
30030000
00000000
00000000
30030000
30030000
30030000
30030000
30030000
30030000
00000000
00000000
30030000
30030000
3CCF0000
3CCF0000
00000000
00000000
00000000
00000000
00000000
00000000
00000000
00000000
ENDCHAR
STARTCHAR char0
ENCODING 136
SWIDTH 960 0
DWIDTH 18 0
BBX 18 36 0 -6
BITMAP
00000000
00000000
00000000
00000000
00000000
00000000
00000000
00000000
00000000
00000000
3CCF0000
3CCF0000
30030000
30030000
00000000
00000000
30030000
30030000
30030000
30030000
30030000
30030000
00000000
00000000
30030000
30030000
3CCF0000
3CCF0000
00000000
00000000
00000000
00000000
00000000
00000000
00000000
00000000
ENDCHAR
STARTCHAR char0
ENCODING 137
SWIDTH 960 0
DWIDTH 18 0
BBX 18 36 0 -6
BITMAP
00000000
00000000
00000000
00000000
00000000
00000000
00000000
00000000
00000000
00000000
3CCF0000
3CCF0000
30030000
30030000
00000000
00000000
30030000
30030000
30030000
30030000
30030000
30030000
00000000
00000000
30030000
30030000
3CCF0000
3CCF0000
00000000
00000000
00000000
00000000
00000000
00000000
00000000
00000000
ENDCHAR
STARTCHAR char0
ENCODING 138
SWIDTH 960 0
DWIDTH 18 0
BBX 18 36 0 -6
BITMAP
00000000
00000000
00000000
00000000
00000000
00000000
00000000
00000000
00000000
00000000
3CCF0000
3CCF0000
30030000
30030000
00000000
00000000
30030000
30030000
30030000
30030000
30030000
30030000
00000000
00000000
30030000
30030000
3CCF0000
3CCF0000
00000000
00000000
00000000
00000000
00000000
00000000
00000000
00000000
ENDCHAR
STARTCHAR char0
ENCODING 139
SWIDTH 960 0
DWIDTH 18 0
BBX 18 36 0 -6
BITMAP
00000000
00000000
00000000
00000000
00000000
00000000
00000000
00000000
00000000
00000000
3CCF0000
3CCF0000
30030000
30030000
00000000
00000000
30030000
30030000
30030000
30030000
30030000
30030000
00000000
00000000
30030000
30030000
3CCF0000
3CCF0000
00000000
00000000
00000000
00000000
00000000
00000000
00000000
00000000
ENDCHAR
STARTCHAR char0
ENCODING 140
SWIDTH 960 0
DWIDTH 18 0
BBX 18 36 0 -6
BITMAP
00000000
00000000
00000000
00000000
00000000
00000000
00000000
00000000
00000000
00000000
3CCF0000
3CCF0000
30030000
30030000
00000000
00000000
30030000
30030000
30030000
30030000
30030000
30030000
00000000
00000000
30030000
30030000
3CCF0000
3CCF0000
00000000
00000000
00000000
00000000
00000000
00000000
00000000
00000000
ENDCHAR
STARTCHAR char0
ENCODING 141
SWIDTH 960 0
DWIDTH 18 0
BBX 18 36 0 -6
BITMAP
00000000
00000000
00000000
00000000
00000000
00000000
00000000
00000000
00000000
00000000
3CCF0000
3CCF0000
30030000
30030000
00000000
00000000
30030000
30030000
30030000
30030000
30030000
30030000
00000000
00000000
30030000
30030000
3CCF0000
3CCF0000
00000000
00000000
00000000
00000000
00000000
00000000
00000000
00000000
ENDCHAR
STARTCHAR char0
ENCODING 142
SWIDTH 960 0
DWIDTH 18 0
BBX 18 36 0 -6
BITMAP
00000000
00000000
00000000
00000000
00000000
00000000
00000000
00000000
00000000
00000000
3CCF0000
3CCF0000
30030000
30030000
00000000
00000000
30030000
30030000
30030000
30030000
30030000
30030000
00000000
00000000
30030000
30030000
3CCF0000
3CCF0000
00000000
00000000
00000000
00000000
00000000
00000000
00000000
00000000
ENDCHAR
STARTCHAR char0
ENCODING 143
SWIDTH 960 0
DWIDTH 18 0
BBX 18 36 0 -6
BITMAP
00000000
00000000
00000000
00000000
00000000
00000000
00000000
00000000
00000000
00000000
3CCF0000
3CCF0000
30030000
30030000
00000000
00000000
30030000
30030000
30030000
30030000
30030000
30030000
00000000
00000000
30030000
30030000
3CCF0000
3CCF0000
00000000
00000000
00000000
00000000
00000000
00000000
00000000
00000000
ENDCHAR
STARTCHAR char0
ENCODING 144
SWIDTH 960 0
DWIDTH 18 0
BBX 18 36 0 -6
BITMAP
00000000
00000000
00000000
00000000
00000000
00000000
00000000
00000000
00000000
00000000
3CCF0000
3CCF0000
30030000
30030000
00000000
00000000
30030000
30030000
30030000
30030000
30030000
30030000
00000000
00000000
30030000
30030000
3CCF0000
3CCF0000
00000000
00000000
00000000
00000000
00000000
00000000
00000000
00000000
ENDCHAR
STARTCHAR char0
ENCODING 145
SWIDTH 960 0
DWIDTH 18 0
BBX 18 36 0 -6
BITMAP
00000000
00000000
00000000
00000000
00000000
00000000
00000000
00000000
00000000
00000000
3CCF0000
3CCF0000
30030000
30030000
00000000
00000000
30030000
30030000
30030000
30030000
30030000
30030000
00000000
00000000
30030000
30030000
3CCF0000
3CCF0000
00000000
00000000
00000000
00000000
00000000
00000000
00000000
00000000
ENDCHAR
STARTCHAR char0
ENCODING 146
SWIDTH 960 0
DWIDTH 18 0
BBX 18 36 0 -6
BITMAP
00000000
00000000
00000000
00000000
00000000
00000000
00000000
00000000
00000000
00000000
3CCF0000
3CCF0000
30030000
30030000
00000000
00000000
30030000
30030000
30030000
30030000
30030000
30030000
00000000
00000000
30030000
30030000
3CCF0000
3CCF0000
00000000
00000000
00000000
00000000
00000000
00000000
00000000
00000000
ENDCHAR
STARTCHAR char0
ENCODING 147
SWIDTH 960 0
DWIDTH 18 0
BBX 18 36 0 -6
BITMAP
00000000
00000000
00000000
00000000
00000000
00000000
00000000
00000000
00000000
00000000
3CCF0000
3CCF0000
30030000
30030000
00000000
00000000
30030000
30030000
30030000
30030000
30030000
30030000
00000000
00000000
30030000
30030000
3CCF0000
3CCF0000
00000000
00000000
00000000
00000000
00000000
00000000
00000000
00000000
ENDCHAR
STARTCHAR char0
ENCODING 148
SWIDTH 960 0
DWIDTH 18 0
BBX 18 36 0 -6
BITMAP
00000000
00000000
00000000
00000000
00000000
00000000
00000000
00000000
00000000
00000000
3CCF0000
3CCF0000
30030000
30030000
00000000
00000000
30030000
30030000
30030000
30030000
30030000
30030000
00000000
00000000
30030000
30030000
3CCF0000
3CCF0000
00000000
00000000
00000000
00000000
00000000
00000000
00000000
00000000
ENDCHAR
STARTCHAR char0
ENCODING 149
SWIDTH 960 0
DWIDTH 18 0
BBX 18 36 0 -6
BITMAP
00000000
00000000
00000000
00000000
00000000
00000000
00000000
00000000
00000000
00000000
3CCF0000
3CCF0000
30030000
30030000
00000000
00000000
30030000
30030000
30030000
30030000
30030000
30030000
00000000
00000000
30030000
30030000
3CCF0000
3CCF0000
00000000
00000000
00000000
00000000
00000000
00000000
00000000
00000000
ENDCHAR
STARTCHAR char0
ENCODING 150
SWIDTH 960 0
DWIDTH 18 0
BBX 18 36 0 -6
BITMAP
00000000
00000000
00000000
00000000
00000000
00000000
00000000
00000000
00000000
00000000
3CCF0000
3CCF0000
30030000
30030000
00000000
00000000
30030000
30030000
30030000
30030000
30030000
30030000
00000000
00000000
30030000
30030000
3CCF0000
3CCF0000
00000000
00000000
00000000
00000000
00000000
00000000
00000000
00000000
ENDCHAR
STARTCHAR char0
ENCODING 151
SWIDTH 960 0
DWIDTH 18 0
BBX 18 36 0 -6
BITMAP
00000000
00000000
00000000
00000000
00000000
00000000
00000000
00000000
00000000
00000000
3CCF0000
3CCF0000
30030000
30030000
00000000
00000000
30030000
30030000
30030000
30030000
30030000
30030000
00000000
00000000
30030000
30030000
3CCF0000
3CCF0000
00000000
00000000
00000000
00000000
00000000
00000000
00000000
00000000
ENDCHAR
STARTCHAR char0
ENCODING 152
SWIDTH 960 0
DWIDTH 18 0
BBX 18 36 0 -6
BITMAP
00000000
00000000
00000000
00000000
00000000
00000000
00000000
00000000
00000000
00000000
3CCF0000
3CCF0000
30030000
30030000
00000000
00000000
30030000
30030000
30030000
30030000
30030000
30030000
00000000
00000000
30030000
30030000
3CCF0000
3CCF0000
00000000
00000000
00000000
00000000
00000000
00000000
00000000
00000000
ENDCHAR
STARTCHAR char0
ENCODING 153
SWIDTH 960 0
DWIDTH 18 0
BBX 18 36 0 -6
BITMAP
00000000
00000000
00000000
00000000
00000000
00000000
00000000
00000000
00000000
00000000
3CCF0000
3CCF0000
30030000
30030000
00000000
00000000
30030000
30030000
30030000
30030000
30030000
30030000
00000000
00000000
30030000
30030000
3CCF0000
3CCF0000
00000000
00000000
00000000
00000000
00000000
00000000
00000000
00000000
ENDCHAR
STARTCHAR char0
ENCODING 154
SWIDTH 960 0
DWIDTH 18 0
BBX 18 36 0 -6
BITMAP
00000000
00000000
00000000
00000000
00000000
00000000
00000000
00000000
00000000
00000000
3CCF0000
3CCF0000
30030000
30030000
00000000
00000000
30030000
30030000
30030000
30030000
30030000
30030000
00000000
00000000
30030000
30030000
3CCF0000
3CCF0000
00000000
00000000
00000000
00000000
00000000
00000000
00000000
00000000
ENDCHAR
STARTCHAR char0
ENCODING 155
SWIDTH 960 0
DWIDTH 18 0
BBX 18 36 0 -6
BITMAP
00000000
00000000
00000000
00000000
00000000
00000000
00000000
00000000
00000000
00000000
3CCF0000
3CCF0000
30030000
30030000
00000000
00000000
30030000
30030000
30030000
30030000
30030000
30030000
00000000
00000000
30030000
30030000
3CCF0000
3CCF0000
00000000
00000000
00000000
00000000
00000000
00000000
00000000
00000000
ENDCHAR
STARTCHAR char0
ENCODING 156
SWIDTH 960 0
DWIDTH 18 0
BBX 18 36 0 -6
BITMAP
00000000
00000000
00000000
00000000
00000000
00000000
00000000
00000000
00000000
00000000
3CCF0000
3CCF0000
30030000
30030000
00000000
00000000
30030000
30030000
30030000
30030000
30030000
30030000
00000000
00000000
30030000
30030000
3CCF0000
3CCF0000
00000000
00000000
00000000
00000000
00000000
00000000
00000000
00000000
ENDCHAR
STARTCHAR char0
ENCODING 157
SWIDTH 960 0
DWIDTH 18 0
BBX 18 36 0 -6
BITMAP
00000000
00000000
00000000
00000000
00000000
00000000
00000000
00000000
00000000
00000000
3CCF0000
3CCF0000
30030000
30030000
00000000
00000000
30030000
30030000
30030000
30030000
30030000
30030000
00000000
00000000
30030000
30030000
3CCF0000
3CCF0000
00000000
00000000
00000000
00000000
00000000
00000000
00000000
00000000
ENDCHAR
STARTCHAR char0
ENCODING 158
SWIDTH 960 0
DWIDTH 18 0
BBX 18 36 0 -6
BITMAP
00000000
00000000
00000000
00000000
00000000
00000000
00000000
00000000
00000000
00000000
3CCF0000
3CCF0000
30030000
30030000
00000000
00000000
30030000
30030000
30030000
30030000
30030000
30030000
00000000
00000000
30030000
30030000
3CCF0000
3CCF0000
00000000
00000000
00000000
00000000
00000000
00000000
00000000
00000000
ENDCHAR
STARTCHAR char0
ENCODING 159
SWIDTH 960 0
DWIDTH 18 0
BBX 18 36 0 -6
BITMAP
00000000
00000000
00000000
00000000
00000000
00000000
00000000
00000000
00000000
00000000
3CCF0000
3CCF0000
30030000
30030000
00000000
00000000
30030000
30030000
30030000
30030000
30030000
30030000
00000000
00000000
30030000
30030000
3CCF0000
3CCF0000
00000000
00000000
00000000
00000000
00000000
00000000
00000000
00000000
ENDCHAR
STARTCHAR char0
ENCODING 160
SWIDTH 960 0
DWIDTH 18 0
BBX 18 36 0 -6
BITMAP
00000000
00000000
00000000
00000000
00000000
00000000
00000000
00000000
00000000
00000000
00000000
00000000
00000000
00000000
00000000
00000000
00000000
00000000
00000000
00000000
00000000
00000000
00000000
00000000
00000000
00000000
00000000
00000000
00000000
00000000
00000000
00000000
00000000
00000000
00000000
00000000
ENDCHAR
STARTCHAR U+00a1
ENCODING 161
SWIDTH 960 0
DWIDTH 18 0
BBX 18 36 0 -6
BITMAP
00000000
00000000
00000000
00000000
00000000
00000000
00000000
00000000
00000000
00000000
00F00000
00F00000
00F00000
00F00000
00000000
00000000
00F00000
00F00000
00F00000
00F00000
00F00000
00F00000
00F00000
00F00000
00F00000
00F00000
00F00000
00F00000
00F00000
00F00000
00F00000
00F00000
00F00000
00F00000
00000000
00000000
ENDCHAR
STARTCHAR U+0063
ENCODING 162
SWIDTH 960 0
DWIDTH 18 0
BBX 18 36 0 -6
BITMAP
00000000
00000000
00000000
00000000
00000000
00000000
00300000
00300000
00300000
00300000
03FF0000
03FF0000
0C30C000
0C30C000
0C300000
0C300000
0C300000
0C300000
0C300000
0C300000
0C300000
0C300000
0C30C000
0C30C000
03FF0000
03FF0000
00300000
00300000
00300000
00300000
00000000
00000000
00000000
00000000
00000000
00000000
ENDCHAR
STARTCHAR sU+00a3
ENCODING 163
SWIDTH 960 0
DWIDTH 18 0
BBX 18 36 0 -6
BITMAP
00000000
00000000
00000000
00000000
00000000
00000000
00000000
00000000
03FC0000
03FC0000
0F030000
0F030000
0F000000
0F000000
0F000000
0F000000
0F000000
0F000000
3FC00000
3FC00000
0F000000
0F000000
0F000000
0F000000
0F000000
0F000000
0F030000
0F030000
3FFC0000
3FFC0000
00000000
00000000
00000000
00000000
00000000
00000000
ENDCHAR
STARTCHAR U+00a4
ENCODING 164
SWIDTH 960 0
DWIDTH 18 0
BBX 18 36 0 -6
BITMAP
00000000
00000000
00000000
00000000
00000000
00000000
00000000
00000000
00000000
00000000
00000000
00000000
33F30000
33F30000
0C0C0000
0C0C0000
30030000
30030000
30030000
30030000
30030000
30030000
0C0C0000
0C0C0000
33F30000
33F30000
00000000
00000000
00000000
00000000
00000000
00000000
00000000
00000000
00000000
00000000
ENDCHAR
STARTCHAR U+00a5
ENCODING 165
SWIDTH 960 0
DWIDTH 18 0
BBX 18 36 0 -6
BITMAP
00000000
00000000
00000000
00000000
00000000
00000000
0F0F0000
0F0F0000
0F0F0000
0F0F0000
0F0F0000
0F0F0000
0F0F0000
0F0F0000
3F0FC000
3F0FC000
03FC0000
03FC0000
3FFFC000
3FFFC000
00F00000
00F00000
00F00000
00F00000
00F00000
00F00000
00F00000
00F00000
00F00000
00F00000
00000000
00000000
00000000
00000000
00000000
00000000
ENDCHAR
STARTCHAR U+00a6
ENCODING 166
SWIDTH 960 0
DWIDTH 18 0
BBX 18 36 0 -6
BITMAP
00000000
00000000
00000000
00000000
00000000
00000000
00F00000
00F00000
00F00000
00F00000
00F00000
00F00000
00F00000
00F00000
00F00000
00F00000
00000000
00000000
00000000
00000000
00F00000
00F00000
00F00000
00F00000
00F00000
00F00000
00F00000
00F00000
00F00000
00F00000
00000000
00000000
00000000
00000000
00000000
00000000
ENDCHAR
STARTCHAR U+0073
ENCODING 167
SWIDTH 960 0
DWIDTH 18 0
BBX 18 36 0 -6
BITMAP
3FFF0000
3FFF0000
30030000
30030000
30000000
30000000
30000000
30000000
30000000
30000000
30000000
30000000
3FFF0000
3FFF0000
30030000
30030000
30030000
30030000
30030000
30030000
30030000
30030000
3FFF0000
3FFF0000
00030000
00030000
00030000
00030000
00030000
00030000
00030000
00030000
30030000
30030000
3FFF0000
3FFF0000
ENDCHAR
STARTCHAR char168
ENCODING 168
SWIDTH 960 0
DWIDTH 18 0
BBX 18 36 0 -6
BITMAP
00000000
00000000
03030000
03030000
03030000
03030000
00000000
00000000
00000000
00000000
00000000
00000000
00000000
00000000
00000000
00000000
00000000
00000000
00000000
00000000
00000000
00000000
00000000
00000000
00000000
00000000
00000000
00000000
00000000
00000000
00000000
00000000
00000000
00000000
00000000
00000000
ENDCHAR
STARTCHAR U+0063
ENCODING 169
SWIDTH 960 0
DWIDTH 18 0
BBX 18 36 0 -6
BITMAP
00000000
00000000
00000000
00000000
00000000
00000000
00000000
00000000
0FFC0000
0FFC0000
30030000
30030000
30F30000
30F30000
33030000
33030000
33030000
33030000
30F30000
30F30000
30030000
30030000
0FFC0000
0FFC0000
00000000
00000000
00000000
00000000
00000000
00000000
00000000
00000000
00000000
00000000
00000000
00000000
ENDCHAR
STARTCHAR U+00aa
ENCODING 170
SWIDTH 960 0
DWIDTH 18 0
BBX 18 36 0 -6
BITMAP
00000000
00000000
00000000
00000000
00000000
00000000
00000000
00000000
00FC0000
00FC0000
03030000
03030000
00FF0000
00FF0000
03030000
03030000
03FF0000
03FF0000
00000000
00000000
03FF0000
03FF0000
00000000
00000000
00000000
00000000
00000000
00000000
00000000
00000000
00000000
00000000
00000000
00000000
00000000
00000000
ENDCHAR
STARTCHAR U+003e
ENCODING 171
SWIDTH 960 0
DWIDTH 18 0
BBX 18 36 0 -6
BITMAP
00000000
00000000
00000000
00000000
00000000
00000000
00000000
00000000
00000000
00000000
00000000
00000000
00C30000
00C30000
030C0000
030C0000
0C300000
0C300000
30C00000
30C00000
0C300000
0C300000
030C0000
030C0000
00C30000
00C30000
00000000
00000000
00000000
00000000
00000000
00000000
00000000
00000000
00000000
00000000
ENDCHAR
STARTCHAR char172
ENCODING 172
SWIDTH 960 0
DWIDTH 18 0
BBX 18 36 0 -6
BITMAP
00000000
00000000
00000000
00000000
00000000
00000000
00000000
00000000
00000000
00000000
00000000
00000000
00000000
00000000
00000000
00000000
00000000
00000000
3FFF0000
3FFF0000
3FFF0000
3FFF0000
00030000
00030000
00030000
00030000
00000000
00000000
00000000
00000000
00000000
00000000
00000000
00000000
00000000
00000000
ENDCHAR
STARTCHAR U+002d
ENCODING 173
SWIDTH 960 0
DWIDTH 18 0
BBX 18 36 0 -6
BITMAP
00000000
00000000
00000000
00000000
00000000
00000000
00000000
00000000
00000000
00000000
00000000
00000000
00000000
00000000
00000000
00000000
00000000
00000000
00000000
00000000
3FFF0000
3FFF0000
00000000
00000000
00000000
00000000
00000000
00000000
00000000
00000000
00000000
00000000
00000000
00000000
00000000
00000000
ENDCHAR
STARTCHAR U+0063
ENCODING 174
SWIDTH 960 0
DWIDTH 18 0
BBX 18 36 0 -6
BITMAP
00000000
00000000
00000000
00000000
00000000
00000000
00000000
00000000
0FFC0000
0FFC0000
30030000
30030000
30F30000
30F30000
33030000
33030000
33030000
33030000
33030000
33030000
30030000
30030000
0FFC0000
0FFC0000
00000000
00000000
00000000
00000000
00000000
00000000
00000000
00000000
00000000
00000000
00000000
00000000
ENDCHAR
STARTCHAR char175
ENCODING 175
SWIDTH 960 0
DWIDTH 18 0
BBX 18 36 0 -6
BITMAP
00000000
00000000
03FF0000
03FF0000
00000000
00000000
00000000
00000000
00000000
00000000
00000000
00000000
00000000
00000000
00000000
00000000
00000000
00000000
00000000
00000000
00000000
00000000
00000000
00000000
00000000
00000000
00000000
00000000
00000000
00000000
00000000
00000000
00000000
00000000
00000000
00000000
ENDCHAR
STARTCHAR char176
ENCODING 176
SWIDTH 960 0
DWIDTH 18 0
BBX 18 36 0 -6
BITMAP
00000000
00000000
00000000
00000000
00FC0000
00FC0000
03030000
03030000
03030000
03030000
03030000
03030000
00FC0000
00FC0000
00000000
00000000
00000000
00000000
00000000
00000000
00000000
00000000
00000000
00000000
00000000
00000000
00000000
00000000
00000000
00000000
00000000
00000000
00000000
00000000
00000000
00000000
ENDCHAR
STARTCHAR U+002b
ENCODING 177
SWIDTH 960 0
DWIDTH 18 0
BBX 18 36 0 -6
BITMAP
00000000
00000000
00000000
00000000
00000000
00000000
00000000
00000000
00000000
00000000
00000000
00000000
00C00000
00C00000
00C00000
00C00000
00C00000
00C00000
3FFF0000
3FFF0000
00C00000
00C00000
00C00000
00C00000
00C00000
00C00000
00000000
00000000
3FFF0000
3FFF0000
00000000
00000000
00000000
00000000
00000000
00000000
ENDCHAR
STARTCHAR U+0032
ENCODING 178
SWIDTH 960 0
DWIDTH 18 0
BBX 18 36 0 -6
BITMAP
00000000
00000000
00000000
00000000
00000000
00000000
03F00000
03F00000
0C3C0000
0C3C0000
003C0000
003C0000
003C0000
003C0000
00F00000
00F00000
03C00000
03C00000
0FFC0000
0FFC0000
00000000
00000000
00000000
00000000
00000000
00000000
00000000
00000000
00000000
00000000
00000000
00000000
00000000
00000000
00000000
00000000
ENDCHAR
STARTCHAR U+0033
ENCODING 179
SWIDTH 960 0
DWIDTH 18 0
BBX 18 36 0 -6
BITMAP
00000000
00000000
00000000
00000000
00000000
00000000
03F00000
03F00000
0C3C0000
0C3C0000
003C0000
003C0000
03F00000
03F00000
003C0000
003C0000
0C3C0000
0C3C0000
03F00000
03F00000
00000000
00000000
00000000
00000000
00000000
00000000
00000000
00000000
00000000
00000000
00000000
00000000
00000000
00000000
00000000
00000000
ENDCHAR
STARTCHAR U+00c0
ENCODING 180
SWIDTH 960 0
DWIDTH 18 0
BBX 18 36 0 -6
BITMAP
003C0000
003C0000
00FC0000
00FC0000
00C00000
00C00000
00000000
00000000
00000000
00000000
00000000
00000000
00000000
00000000
00000000
00000000
00000000
00000000
00000000
00000000
00000000
00000000
00000000
00000000
00000000
00000000
00000000
00000000
00000000
00000000
00000000
00000000
00000000
00000000
00000000
00000000
ENDCHAR
STARTCHAR U+0075
ENCODING 181
SWIDTH 960 0
DWIDTH 18 0
BBX 18 36 0 -6
BITMAP
00000000
00000000
00000000
00000000
00000000
00000000
00000000
00000000
00000000
00000000
00000000
00000000
00000000
00000000
3C0F0000
3C0F0000
3C0F0000
3C0F0000
3C0F0000
3C0F0000
3C0F0000
3C0F0000
3C0F0000
3C0F0000
3C0F0000
3C0F0000
3C0F0000
3C0F0000
3FFFC000
3FFFC000
3C000000
3C000000
3C000000
3C000000
3C000000
3C000000
ENDCHAR
STARTCHAR char182
ENCODING 182
SWIDTH 960 0
DWIDTH 18 0
BBX 18 36 0 -6
BITMAP
00000000
00000000
00000000
00000000
00000000
00000000
03FF0000
03FF0000
0FC30000
0FC30000
0FC30000
0FC30000
0FC30000
0FC30000
0FC30000
0FC30000
03C30000
03C30000
00C30000
00C30000
00C30000
00C30000
00C30000
00C30000
00C30000
00C30000
00C30000
00C30000
00C30000
00C30000
00000000
00000000
00000000
00000000
00000000
00000000
ENDCHAR
STARTCHAR U+00b7
ENCODING 183
SWIDTH 960 0
DWIDTH 18 0
BBX 18 36 0 -6
BITMAP
00000000
00000000
00000000
00000000
00000000
00000000
00000000
00000000
00000000
00000000
00000000
00000000
00000000
00000000
00000000
00000000
00000000
00000000
00F00000
00F00000
00F00000
00F00000
00000000
00000000
00000000
00000000
00000000
00000000
00000000
00000000
00000000
00000000
00000000
00000000
00000000
00000000
ENDCHAR
STARTCHAR char184
ENCODING 184
SWIDTH 960 0
DWIDTH 18 0
BBX 18 36 0 -6
BITMAP
00000000
00000000
00000000
00000000
00000000
00000000
00000000
00000000
00000000
00000000
00000000
00000000
00000000
00000000
00000000
00000000
00000000
00000000
00000000
00000000
00000000
00000000
00000000
00000000
00000000
00000000
00000000
00000000
00000000
00000000
00C00000
00C00000
0FC00000
0FC00000
0F000000
0F000000
ENDCHAR
STARTCHAR char185
ENCODING 185
SWIDTH 960 0
DWIDTH 18 0
BBX 18 36 0 -6
BITMAP
00000000
00000000
00000000
00000000
00000000
00000000
03F00000
03F00000
03F00000
03F00000
00F00000
00F00000
00F00000
00F00000
00F00000
00F00000
00F00000
00F00000
00F00000
00F00000
00000000
00000000
00000000
00000000
00000000
00000000
00000000
00000000
00000000
00000000
00000000
00000000
00000000
00000000
00000000
00000000
ENDCHAR
STARTCHAR U+00aa
ENCODING 186
SWIDTH 960 0
DWIDTH 18 0
BBX 18 36 0 -6
BITMAP
00000000
00000000
00000000
00000000
00000000
00000000
00000000
00000000
00FC0000
00FC0000
03030000
03030000
03030000
03030000
03030000
03030000
00FC0000
00FC0000
00000000
00000000
03FF0000
03FF0000
00000000
00000000
00000000
00000000
00000000
00000000
00000000
00000000
00000000
00000000
00000000
00000000
00000000
00000000
ENDCHAR
STARTCHAR U+003e
ENCODING 187
SWIDTH 960 0
DWIDTH 18 0
BBX 18 36 0 -6
BITMAP
00000000
00000000
00000000
00000000
00000000
00000000
00000000
00000000
00000000
00000000
00000000
00000000
30C00000
30C00000
0C300000
0C300000
030C0000
030C0000
00C30000
00C30000
030C0000
030C0000
0C300000
0C300000
30C00000
30C00000
00000000
00000000
00000000
00000000
00000000
00000000
00000000
00000000
00000000
00000000
ENDCHAR
STARTCHAR U+003f
ENCODING 191
SWIDTH 960 0
DWIDTH 18 0
BBX 18 36 0 -6
BITMAP
00000000
00000000
00000000
00000000
00000000
00000000
00000000
00000000
00000000
00000000
00000000
00000000
00F00000
00F00000
00F00000
00F00000
00000000
00000000
00F00000
00F00000
00F00000
00F00000
03C00000
03C00000
0F000000
0F000000
3C000000
3C000000
3C000000
3C000000
3C030000
3C030000
0FFC0000
0FFC0000
00000000
00000000
ENDCHAR
STARTCHAR U+00c0
ENCODING 192
SWIDTH 960 0
DWIDTH 18 0
BBX 18 36 0 -6
BITMAP
0F000000
0F000000
03C00000
03C00000
00F00000
00F00000
00000000
00000000
0FFC0000
0FFC0000
3C0F0000
3C0F0000
3C0F0000
3C0F0000
3C0F0000
3C0F0000
3C0F0000
3C0F0000
3FFF0000
3FFF0000
3C0F0000
3C0F0000
3C0F0000
3C0F0000
3C0F0000
3C0F0000
3C0F0000
3C0F0000
3C0F0000
3C0F0000
00000000
00000000
00000000
00000000
00000000
00000000
ENDCHAR
STARTCHAR U+00c0
ENCODING 193
SWIDTH 960 0
DWIDTH 18 0
BBX 18 36 0 -6
BITMAP
003C0000
003C0000
00F00000
00F00000
03C00000
03C00000
00000000
00000000
0FFC0000
0FFC0000
3C0F0000
3C0F0000
3C0F0000
3C0F0000
3C0F0000
3C0F0000
3C0F0000
3C0F0000
3FFF0000
3FFF0000
3C0F0000
3C0F0000
3C0F0000
3C0F0000
3C0F0000
3C0F0000
3C0F0000
3C0F0000
3C0F0000
3C0F0000
00000000
00000000
00000000
00000000
00000000
00000000
ENDCHAR
STARTCHAR U+00c0
ENCODING 194
SWIDTH 960 0
DWIDTH 18 0
BBX 18 36 0 -6
BITMAP
00C00000
00C00000
03F00000
03F00000
0F3C0000
0F3C0000
00000000
00000000
0FFC0000
0FFC0000
3C0F0000
3C0F0000
3C0F0000
3C0F0000
3C0F0000
3C0F0000
3C0F0000
3C0F0000
3FFF0000
3FFF0000
3C0F0000
3C0F0000
3C0F0000
3C0F0000
3C0F0000
3C0F0000
3C0F0000
3C0F0000
3C0F0000
3C0F0000
00000000
00000000
00000000
00000000
00000000
00000000
ENDCHAR
STARTCHAR U+00c0
ENCODING 195
SWIDTH 960 0
DWIDTH 18 0
BBX 18 36 0 -6
BITMAP
00000000
00000000
0FCF0000
0FCF0000
3CFC0000
3CFC0000
00000000
00000000
0FFC0000
0FFC0000
3C0F0000
3C0F0000
3C0F0000
3C0F0000
3C0F0000
3C0F0000
3C0F0000
3C0F0000
3FFF0000
3FFF0000
3C0F0000
3C0F0000
3C0F0000
3C0F0000
3C0F0000
3C0F0000
3C0F0000
3C0F0000
3C0F0000
3C0F0000
00000000
00000000
00000000
00000000
00000000
00000000
ENDCHAR
STARTCHAR U+00c0
ENCODING 196
SWIDTH 960 0
DWIDTH 18 0
BBX 18 36 0 -6
BITMAP
00000000
00000000
0F3C0000
0F3C0000
0F3C0000
0F3C0000
00000000
00000000
0FFC0000
0FFC0000
3C0F0000
3C0F0000
3C0F0000
3C0F0000
3C0F0000
3C0F0000
3C0F0000
3C0F0000
3FFF0000
3FFF0000
3C0F0000
3C0F0000
3C0F0000
3C0F0000
3C0F0000
3C0F0000
3C0F0000
3C0F0000
3C0F0000
3C0F0000
00000000
00000000
00000000
00000000
00000000
00000000
ENDCHAR
STARTCHAR U+00c0
ENCODING 197
SWIDTH 960 0
DWIDTH 18 0
BBX 18 36 0 -6
BITMAP
03F00000
03F00000
0C0C0000
0C0C0000
0C0C0000
0C0C0000
03F00000
03F00000
0FFC0000
0FFC0000
3C0F0000
3C0F0000
3C0F0000
3C0F0000
3C0F0000
3C0F0000
3C0F0000
3C0F0000
3FFF0000
3FFF0000
3C0F0000
3C0F0000
3C0F0000
3C0F0000
3C0F0000
3C0F0000
3C0F0000
3C0F0000
3C0F0000
3C0F0000
00000000
00000000
00000000
00000000
00000000
00000000
ENDCHAR
STARTCHAR U+00c0
ENCODING 198
SWIDTH 960 0
DWIDTH 18 0
BBX 18 36 0 -6
BITMAP
00000000
00000000
00000000
00000000
00000000
00000000
00000000
00000000
3FFF0000
3FFF0000
F3C00000
F3C00000
F3C00000
F3C00000
F3C00000
F3C00000
F3C00000
F3C00000
FFFC0000
FFFC0000
F3C00000
F3C00000
F3C00000
F3C00000
F3C00000
F3C00000
F3C00000
F3C00000
F3FF0000
F3FF0000
00000000
00000000
00000000
00000000
00000000
00000000
ENDCHAR
STARTCHAR U+0043
ENCODING 199
SWIDTH 960 0
DWIDTH 18 0
BBX 18 36 0 -6
BITMAP
00000000
00000000
00000000
00000000
00000000
00000000
00000000
00000000
0FFC0000
0FFC0000
3C030000
3C030000
3C000000
3C000000
3C000000
3C000000
3C000000
3C000000
3C000000
3C000000
3C000000
3C000000
3C000000
3C000000
3C000000
3C000000
3C030000
3C030000
0FFC0000
0FFC0000
00C00000
00C00000
0FC00000
0FC00000
0F000000
0F000000
ENDCHAR
STARTCHAR U+0045
ENCODING 200
SWIDTH 960 0
DWIDTH 18 0
BBX 18 36 0 -6
BITMAP
0F000000
0F000000
03C00000
03C00000
00F00000
00F00000
00000000
00000000
3FFF0000
3FFF0000
3C000000
3C000000
3C000000
3C000000
3C000000
3C000000
3C000000
3C000000
3FF00000
3FF00000
3C000000
3C000000
3C000000
3C000000
3C000000
3C000000
3C000000
3C000000
3FFF0000
3FFF0000
00000000
00000000
00000000
00000000
00000000
00000000
ENDCHAR
STARTCHAR U+0045
ENCODING 201
SWIDTH 960 0
DWIDTH 18 0
BBX 18 36 0 -6
BITMAP
003C0000
003C0000
00F00000
00F00000
03C00000
03C00000
00000000
00000000
3FFF0000
3FFF0000
3C000000
3C000000
3C000000
3C000000
3C000000
3C000000
3C000000
3C000000
3FF00000
3FF00000
3C000000
3C000000
3C000000
3C000000
3C000000
3C000000
3C000000
3C000000
3FFF0000
3FFF0000
00000000
00000000
00000000
00000000
00000000
00000000
ENDCHAR
STARTCHAR U+0045
ENCODING 202
SWIDTH 960 0
DWIDTH 18 0
BBX 18 36 0 -6
BITMAP
00C00000
00C00000
03F00000
03F00000
0F3C0000
0F3C0000
00000000
00000000
3FFF0000
3FFF0000
3C000000
3C000000
3C000000
3C000000
3C000000
3C000000
3C000000
3C000000
3FF00000
3FF00000
3C000000
3C000000
3C000000
3C000000
3C000000
3C000000
3C000000
3C000000
3FFF0000
3FFF0000
00000000
00000000
00000000
00000000
00000000
00000000
ENDCHAR
STARTCHAR U+0045
ENCODING 203
SWIDTH 960 0
DWIDTH 18 0
BBX 18 36 0 -6
BITMAP
00000000
00000000
0F3C0000
0F3C0000
0F3C0000
0F3C0000
00000000
00000000
3FFF0000
3FFF0000
3C000000
3C000000
3C000000
3C000000
3C000000
3C000000
3C000000
3C000000
3FF00000
3FF00000
3C000000
3C000000
3C000000
3C000000
3C000000
3C000000
3C000000
3C000000
3FFF0000
3FFF0000
00000000
00000000
00000000
00000000
00000000
00000000
ENDCHAR
STARTCHAR U+0049
ENCODING 204
SWIDTH 960 0
DWIDTH 18 0
BBX 18 36 0 -6
BITMAP
0F000000
0F000000
03C00000
03C00000
00F00000
00F00000
00000000
00000000
3FFC0000
3FFC0000
03C00000
03C00000
03C00000
03C00000
03C00000
03C00000
03C00000
03C00000
03C00000
03C00000
03C00000
03C00000
03C00000
03C00000
03C00000
03C00000
03C00000
03C00000
3FFC0000
3FFC0000
00000000
00000000
00000000
00000000
00000000
00000000
ENDCHAR
STARTCHAR U+0049
ENCODING 205
SWIDTH 960 0
DWIDTH 18 0
BBX 18 36 0 -6
BITMAP
003C0000
003C0000
00F00000
00F00000
03C00000
03C00000
00000000
00000000
3FFC0000
3FFC0000
03C00000
03C00000
03C00000
03C00000
03C00000
03C00000
03C00000
03C00000
03C00000
03C00000
03C00000
03C00000
03C00000
03C00000
03C00000
03C00000
03C00000
03C00000
3FFC0000
3FFC0000
00000000
00000000
00000000
00000000
00000000
00000000
ENDCHAR
STARTCHAR U+0049
ENCODING 206
SWIDTH 960 0
DWIDTH 18 0
BBX 18 36 0 -6
BITMAP
03C00000
03C00000
0FF00000
0FF00000
0C300000
0C300000
00000000
00000000
3FFC0000
3FFC0000
03C00000
03C00000
03C00000
03C00000
03C00000
03C00000
03C00000
03C00000
03C00000
03C00000
03C00000
03C00000
03C00000
03C00000
03C00000
03C00000
03C00000
03C00000
3FFC0000
3FFC0000
00000000
00000000
00000000
00000000
00000000
00000000
ENDCHAR
STARTCHAR U+0049
ENCODING 207
SWIDTH 960 0
DWIDTH 18 0
BBX 18 36 0 -6
BITMAP
00000000
00000000
3CF00000
3CF00000
3CF00000
3CF00000
00000000
00000000
3FFC0000
3FFC0000
03C00000
03C00000
03C00000
03C00000
03C00000
03C00000
03C00000
03C00000
03C00000
03C00000
03C00000
03C00000
03C00000
03C00000
03C00000
03C00000
03C00000
03C00000
3FFC0000
3FFC0000
00000000
00000000
00000000
00000000
00000000
00000000
ENDCHAR
STARTCHAR U+0044
ENCODING 208
SWIDTH 960 0
DWIDTH 18 0
BBX 18 36 0 -6
BITMAP
00000000
00000000
00000000
00000000
00000000
00000000
00000000
00000000
3FFC0000
3FFC0000
3C0F0000
3C0F0000
3C0F0000
3C0F0000
3C0F0000
3C0F0000
FFCF0000
FFCF0000
FFCF0000
FFCF0000
3C0F0000
3C0F0000
3C0F0000
3C0F0000
3C0F0000
3C0F0000
3C0F0000
3C0F0000
3FFC0000
3FFC0000
00000000
00000000
00000000
00000000
00000000
00000000
ENDCHAR
STARTCHAR U+004e
ENCODING 209
SWIDTH 960 0
DWIDTH 18 0
BBX 18 36 0 -6
BITMAP
00000000
00000000
0FCF0000
0FCF0000
3CFC0000
3CFC0000
00000000
00000000
30030000
30030000
30030000
30030000
3C030000
3C030000
3F030000
3F030000
3FC30000
3FC30000
33F30000
33F30000
30FF0000
30FF0000
303F0000
303F0000
300F0000
300F0000
30030000
30030000
30030000
30030000
00000000
00000000
00000000
00000000
00000000
00000000
ENDCHAR
STARTCHAR U+004f
ENCODING 210
SWIDTH 960 0
DWIDTH 18 0
BBX 18 36 0 -6
BITMAP
0F000000
0F000000
03C00000
03C00000
00F00000
00F00000
00000000
00000000
0FFC0000
0FFC0000
3C0F0000
3C0F0000
3C0F0000
3C0F0000
3C0F0000
3C0F0000
3C0F0000
3C0F0000
3C0F0000
3C0F0000
3C0F0000
3C0F0000
3C0F0000
3C0F0000
3C0F0000
3C0F0000
3C0F0000
3C0F0000
0FFC0000
0FFC0000
00000000
00000000
00000000
00000000
00000000
00000000
ENDCHAR
STARTCHAR U+004f
ENCODING 211
SWIDTH 960 0
DWIDTH 18 0
BBX 18 36 0 -6
BITMAP
003C0000
003C0000
00F00000
00F00000
03C00000
03C00000
00000000
00000000
0FFC0000
0FFC0000
3C0F0000
3C0F0000
3C0F0000
3C0F0000
3C0F0000
3C0F0000
3C0F0000
3C0F0000
3C0F0000
3C0F0000
3C0F0000
3C0F0000
3C0F0000
3C0F0000
3C0F0000
3C0F0000
3C0F0000
3C0F0000
0FFC0000
0FFC0000
00000000
00000000
00000000
00000000
00000000
00000000
ENDCHAR
STARTCHAR U+004f
ENCODING 212
SWIDTH 960 0
DWIDTH 18 0
BBX 18 36 0 -6
BITMAP
00C00000
00C00000
03F00000
03F00000
0F3C0000
0F3C0000
00000000
00000000
0FFC0000
0FFC0000
3C0F0000
3C0F0000
3C0F0000
3C0F0000
3C0F0000
3C0F0000
3C0F0000
3C0F0000
3C0F0000
3C0F0000
3C0F0000
3C0F0000
3C0F0000
3C0F0000
3C0F0000
3C0F0000
3C0F0000
3C0F0000
0FFC0000
0FFC0000
00000000
00000000
00000000
00000000
00000000
00000000
ENDCHAR
STARTCHAR U+004f
ENCODING 213
SWIDTH 960 0
DWIDTH 18 0
BBX 18 36 0 -6
BITMAP
00000000
00000000
0FCF0000
0FCF0000
3CFC0000
3CFC0000
00000000
00000000
0FFC0000
0FFC0000
3C0F0000
3C0F0000
3C0F0000
3C0F0000
3C0F0000
3C0F0000
3C0F0000
3C0F0000
3C0F0000
3C0F0000
3C0F0000
3C0F0000
3C0F0000
3C0F0000
3C0F0000
3C0F0000
3C0F0000
3C0F0000
0FFC0000
0FFC0000
00000000
00000000
00000000
00000000
00000000
00000000
ENDCHAR
STARTCHAR U+004f
ENCODING 214
SWIDTH 960 0
DWIDTH 18 0
BBX 18 36 0 -6
BITMAP
00000000
00000000
0F3C0000
0F3C0000
0F3C0000
0F3C0000
00000000
00000000
0FFC0000
0FFC0000
3C0F0000
3C0F0000
3C0F0000
3C0F0000
3C0F0000
3C0F0000
3C0F0000
3C0F0000
3C0F0000
3C0F0000
3C0F0000
3C0F0000
3C0F0000
3C0F0000
3C0F0000
3C0F0000
3C0F0000
3C0F0000
0FFC0000
0FFC0000
00000000
00000000
00000000
00000000
00000000
00000000
ENDCHAR
STARTCHAR U+002b
ENCODING 215
SWIDTH 960 0
DWIDTH 18 0
BBX 18 36 0 -6
BITMAP
00000000
00000000
00000000
00000000
00000000
00000000
00000000
00000000
00000000
00000000
00000000
00000000
30030000
30030000
0C0C0000
0C0C0000
03300000
03300000
00C00000
00C00000
03300000
03300000
0C0C0000
0C0C0000
30030000
30030000
00000000
00000000
00000000
00000000
00000000
00000000
00000000
00000000
00000000
00000000
ENDCHAR
STARTCHAR U+004f
ENCODING 216
SWIDTH 960 0
DWIDTH 18 0
BBX 18 36 0 -6
BITMAP
00000000
00000000
00000000
00000000
00000000
00000000
00030000
00030000
0FFC0000
0FFC0000
3C0F0000
3C0F0000
3C3F0000
3C3F0000
3C3F0000
3C3F0000
3CCF0000
3CCF0000
3CCF0000
3CCF0000
3CCF0000
3CCF0000
3F0F0000
3F0F0000
3F0F0000
3F0F0000
3C0F0000
3C0F0000
0FFC0000
0FFC0000
30000000
30000000
00000000
00000000
00000000
00000000
ENDCHAR
STARTCHAR U+0055
ENCODING 217
SWIDTH 960 0
DWIDTH 18 0
BBX 18 36 0 -6
BITMAP
0F000000
0F000000
03C00000
03C00000
00F00000
00F00000
00000000
00000000
3C0F0000
3C0F0000
3C0F0000
3C0F0000
3C0F0000
3C0F0000
3C0F0000
3C0F0000
3C0F0000
3C0F0000
3C0F0000
3C0F0000
3C0F0000
3C0F0000
3C0F0000
3C0F0000
3C0F0000
3C0F0000
3C0F0000
3C0F0000
0FFC0000
0FFC0000
00000000
00000000
00000000
00000000
00000000
00000000
ENDCHAR
STARTCHAR U+0055
ENCODING 218
SWIDTH 960 0
DWIDTH 18 0
BBX 18 36 0 -6
BITMAP
003C0000
003C0000
00F00000
00F00000
03C00000
03C00000
00000000
00000000
3C0F0000
3C0F0000
3C0F0000
3C0F0000
3C0F0000
3C0F0000
3C0F0000
3C0F0000
3C0F0000
3C0F0000
3C0F0000
3C0F0000
3C0F0000
3C0F0000
3C0F0000
3C0F0000
3C0F0000
3C0F0000
3C0F0000
3C0F0000
0FFC0000
0FFC0000
00000000
00000000
00000000
00000000
00000000
00000000
ENDCHAR
STARTCHAR U+0055
ENCODING 219
SWIDTH 960 0
DWIDTH 18 0
BBX 18 36 0 -6
BITMAP
00C00000
00C00000
03F00000
03F00000
0F3C0000
0F3C0000
00000000
00000000
3C0F0000
3C0F0000
3C0F0000
3C0F0000
3C0F0000
3C0F0000
3C0F0000
3C0F0000
3C0F0000
3C0F0000
3C0F0000
3C0F0000
3C0F0000
3C0F0000
3C0F0000
3C0F0000
3C0F0000
3C0F0000
3C0F0000
3C0F0000
0FFC0000
0FFC0000
00000000
00000000
00000000
00000000
00000000
00000000
ENDCHAR
STARTCHAR U+0055
ENCODING 220
SWIDTH 960 0
DWIDTH 18 0
BBX 18 36 0 -6
BITMAP
00000000
00000000
0F3C0000
0F3C0000
0F3C0000
0F3C0000
00000000
00000000
3C0F0000
3C0F0000
3C0F0000
3C0F0000
3C0F0000
3C0F0000
3C0F0000
3C0F0000
3C0F0000
3C0F0000
3C0F0000
3C0F0000
3C0F0000
3C0F0000
3C0F0000
3C0F0000
3C0F0000
3C0F0000
3C0F0000
3C0F0000
0FFC0000
0FFC0000
00000000
00000000
00000000
00000000
00000000
00000000
ENDCHAR
STARTCHAR U+0059
ENCODING 221
SWIDTH 960 0
DWIDTH 18 0
BBX 18 36 0 -6
BITMAP
003C0000
003C0000
00F00000
00F00000
03C00000
03C00000
00000000
00000000
3C3C0000
3C3C0000
3C3C0000
3C3C0000
3C3C0000
3C3C0000
3C3C0000
3C3C0000
3C3C0000
3C3C0000
0FF00000
0FF00000
03C00000
03C00000
03C00000
03C00000
03C00000
03C00000
03C00000
03C00000
03C00000
03C00000
00000000
00000000
00000000
00000000
00000000
00000000
ENDCHAR
STARTCHAR U+00de
ENCODING 222
SWIDTH 960 0
DWIDTH 18 0
BBX 18 36 0 -6
BITMAP
00000000
00000000
00000000
00000000
00000000
00000000
3C000000
3C000000
3C000000
3C000000
3C000000
3C000000
3FFC0000
3FFC0000
3C0F0000
3C0F0000
3C0F0000
3C0F0000
3C0F0000
3C0F0000
3C0F0000
3C0F0000
3FFC0000
3FFC0000
3C000000
3C000000
3C000000
3C000000
3C000000
3C000000
00000000
00000000
00000000
00000000
00000000
00000000
ENDCHAR
STARTCHAR U+0062
ENCODING 223
SWIDTH 960 0
DWIDTH 18 0
BBX 18 36 0 -6
BITMAP
00000000
00000000
00000000
00000000
00000000
00000000
0FF00000
0FF00000
3C3C0000
3C3C0000
3C3C0000
3C3C0000
3C3C0000
3C3C0000
3CF00000
3CF00000
3CFC0000
3CFC0000
3C0F0000
3C0F0000
3C0F0000
3C0F0000
3C0F0000
3C0F0000
3C0F0000
3C0F0000
3CCF0000
3CCF0000
3CFC0000
3CFC0000
00000000
00000000
00000000
00000000
00000000
00000000
ENDCHAR
STARTCHAR U+0061
ENCODING 224
SWIDTH 960 0
DWIDTH 18 0
BBX 18 36 0 -6
BITMAP
00000000
00000000
00000000
00000000
00000000
00000000
0F000000
0F000000
03C00000
03C00000
00F00000
00F00000
00000000
00000000
0FFC0000
0FFC0000
300F0000
300F0000
0FFF0000
0FFF0000
3C0F0000
3C0F0000
3C0F0000
3C0F0000
3C0F0000
3C0F0000
3C0F0000
3C0F0000
0FFF0000
0FFF0000
00000000
00000000
00000000
00000000
00000000
00000000
ENDCHAR
STARTCHAR U+0061
ENCODING 225
SWIDTH 960 0
DWIDTH 18 0
BBX 18 36 0 -6
BITMAP
00000000
00000000
00000000
00000000
00000000
00000000
003C0000
003C0000
00F00000
00F00000
03C00000
03C00000
00000000
00000000
0FFC0000
0FFC0000
300F0000
300F0000
0FFF0000
0FFF0000
3C0F0000
3C0F0000
3C0F0000
3C0F0000
3C0F0000
3C0F0000
3C0F0000
3C0F0000
0FFF0000
0FFF0000
00000000
00000000
00000000
00000000
00000000
00000000
ENDCHAR
STARTCHAR U+0061
ENCODING 226
SWIDTH 960 0
DWIDTH 18 0
BBX 18 36 0 -6
BITMAP
00000000
00000000
00000000
00000000
00000000
00000000
00C00000
00C00000
03F00000
03F00000
0F3C0000
0F3C0000
00000000
00000000
0FFC0000
0FFC0000
300F0000
300F0000
0FFF0000
0FFF0000
3C0F0000
3C0F0000
3C0F0000
3C0F0000
3C0F0000
3C0F0000
3C0F0000
3C0F0000
0FFF0000
0FFF0000
00000000
00000000
00000000
00000000
00000000
00000000
ENDCHAR
STARTCHAR U+0061
ENCODING 227
SWIDTH 960 0
DWIDTH 18 0
BBX 18 36 0 -6
BITMAP
00000000
00000000
00000000
00000000
00000000
00000000
00000000
00000000
0FCF0000
0FCF0000
3CFC0000
3CFC0000
00000000
00000000
0FFC0000
0FFC0000
300F0000
300F0000
0FFF0000
0FFF0000
3C0F0000
3C0F0000
3C0F0000
3C0F0000
3C0F0000
3C0F0000
3C0F0000
3C0F0000
0FFF0000
0FFF0000
00000000
00000000
00000000
00000000
00000000
00000000
ENDCHAR
STARTCHAR U+0061
ENCODING 228
SWIDTH 960 0
DWIDTH 18 0
BBX 18 36 0 -6
BITMAP
00000000
00000000
00000000
00000000
00000000
00000000
00000000
00000000
0F3C0000
0F3C0000
0F3C0000
0F3C0000
00000000
00000000
0FFC0000
0FFC0000
300F0000
300F0000
0FFF0000
0FFF0000
3C0F0000
3C0F0000
3C0F0000
3C0F0000
3C0F0000
3C0F0000
3C0F0000
3C0F0000
0FFF0000
0FFF0000
00000000
00000000
00000000
00000000
00000000
00000000
ENDCHAR
STARTCHAR U+0061
ENCODING 229
SWIDTH 960 0
DWIDTH 18 0
BBX 18 36 0 -6
BITMAP
00000000
00000000
00000000
00000000
03F00000
03F00000
0C0C0000
0C0C0000
0C0C0000
0C0C0000
03F00000
03F00000
00000000
00000000
0FFC0000
0FFC0000
300F0000
300F0000
0FFF0000
0FFF0000
3C0F0000
3C0F0000
3C0F0000
3C0F0000
3C0F0000
3C0F0000
3C0F0000
3C0F0000
0FFF0000
0FFF0000
00000000
00000000
00000000
00000000
00000000
00000000
ENDCHAR
STARTCHAR U+0061
ENCODING 230
SWIDTH 960 0
DWIDTH 18 0
BBX 18 36 0 -6
BITMAP
00000000
00000000
00000000
00000000
00000000
00000000
00000000
00000000
00000000
00000000
00000000
00000000
00000000
00000000
3FFC0000
3FFC0000
C3CF0000
C3CF0000
03CF0000
03CF0000
3FCF0000
3FCF0000
F3FF0000
F3FF0000
F3C00000
F3C00000
F3C30000
F3C30000
3FFC0000
3FFC0000
00000000
00000000
00000000
00000000
00000000
00000000
ENDCHAR
STARTCHAR U+0063
ENCODING 231
SWIDTH 960 0
DWIDTH 18 0
BBX 18 36 0 -6
BITMAP
00000000
00000000
00000000
00000000
00000000
00000000
00000000
00000000
00000000
00000000
00000000
00000000
00000000
00000000
0FFC0000
0FFC0000
3C030000
3C030000
3C000000
3C000000
3C000000
3C000000
3C000000
3C000000
3C000000
3C000000
3C030000
3C030000
0FFC0000
0FFC0000
00C00000
00C00000
0FC00000
0FC00000
0F000000
0F000000
ENDCHAR
STARTCHAR U+00e8
ENCODING 232
SWIDTH 960 0
DWIDTH 18 0
BBX 18 36 0 -6
BITMAP
00000000
00000000
00000000
00000000
00000000
00000000
0F000000
0F000000
03C00000
03C00000
00F00000
00F00000
00000000
00000000
0FFC0000
0FFC0000
3C0F0000
3C0F0000
3C0F0000
3C0F0000
3C0F0000
3C0F0000
3FFF0000
3FFF0000
3C000000
3C000000
3C030000
3C030000
0FFC0000
0FFC0000
00000000
00000000
00000000
00000000
00000000
00000000
ENDCHAR
STARTCHAR U+00e8
ENCODING 233
SWIDTH 960 0
DWIDTH 18 0
BBX 18 36 0 -6
BITMAP
00000000
00000000
00000000
00000000
00000000
00000000
003C0000
003C0000
00F00000
00F00000
03C00000
03C00000
00000000
00000000
0FFC0000
0FFC0000
3C0F0000
3C0F0000
3C0F0000
3C0F0000
3C0F0000
3C0F0000
3FFF0000
3FFF0000
3C000000
3C000000
3C030000
3C030000
0FFC0000
0FFC0000
00000000
00000000
00000000
00000000
00000000
00000000
ENDCHAR
STARTCHAR U+00e8
ENCODING 234
SWIDTH 960 0
DWIDTH 18 0
BBX 18 36 0 -6
BITMAP
00000000
00000000
00000000
00000000
00000000
00000000
00C00000
00C00000
03F00000
03F00000
0F3C0000
0F3C0000
00000000
00000000
0FFC0000
0FFC0000
3C0F0000
3C0F0000
3C0F0000
3C0F0000
3C0F0000
3C0F0000
3FFF0000
3FFF0000
3C000000
3C000000
3C030000
3C030000
0FFC0000
0FFC0000
00000000
00000000
00000000
00000000
00000000
00000000
ENDCHAR
STARTCHAR U+00eb
ENCODING 235
SWIDTH 960 0
DWIDTH 18 0
BBX 18 36 0 -6
BITMAP
00000000
00000000
00000000
00000000
00000000
00000000
00000000
00000000
0F3C0000
0F3C0000
0F3C0000
0F3C0000
00000000
00000000
0FFC0000
0FFC0000
3C0F0000
3C0F0000
3C0F0000
3C0F0000
3C0F0000
3C0F0000
3FFF0000
3FFF0000
3C000000
3C000000
3C030000
3C030000
0FFC0000
0FFC0000
00000000
00000000
00000000
00000000
00000000
00000000
ENDCHAR
STARTCHAR U+0069
ENCODING 236
SWIDTH 960 0
DWIDTH 18 0
BBX 18 36 0 -6
BITMAP
00000000
00000000
00000000
00000000
00000000
00000000
3C000000
3C000000
0F000000
0F000000
03C00000
03C00000
00000000
00000000
0FC00000
0FC00000
03C00000
03C00000
03C00000
03C00000
03C00000
03C00000
03C00000
03C00000
03C00000
03C00000
03C00000
03C00000
00FC0000
00FC0000
00000000
00000000
00000000
00000000
00000000
00000000
ENDCHAR
STARTCHAR U+0069
ENCODING 237
SWIDTH 960 0
DWIDTH 18 0
BBX 18 36 0 -6
BITMAP
00000000
00000000
00000000
00000000
00000000
00000000
00F00000
00F00000
03C00000
03C00000
0F000000
0F000000
00000000
00000000
0FC00000
0FC00000
03C00000
03C00000
03C00000
03C00000
03C00000
03C00000
03C00000
03C00000
03C00000
03C00000
03C00000
03C00000
00FC0000
00FC0000
00000000
00000000
00000000
00000000
00000000
00000000
ENDCHAR
STARTCHAR U+0069
ENCODING 238
SWIDTH 960 0
DWIDTH 18 0
BBX 18 36 0 -6
BITMAP
00000000
00000000
00000000
00000000
00000000
00000000
03000000
03000000
0FC00000
0FC00000
3CF00000
3CF00000
00000000
00000000
0FC00000
0FC00000
03C00000
03C00000
03C00000
03C00000
03C00000
03C00000
03C00000
03C00000
03C00000
03C00000
03C00000
03C00000
00FC0000
00FC0000
00000000
00000000
00000000
00000000
00000000
00000000
ENDCHAR
STARTCHAR U+0069
ENCODING 239
SWIDTH 960 0
DWIDTH 18 0
BBX 18 36 0 -6
BITMAP
00000000
00000000
00000000
00000000
00000000
00000000
00000000
00000000
3CF00000
3CF00000
3CF00000
3CF00000
00000000
00000000
0FC00000
0FC00000
03C00000
03C00000
03C00000
03C00000
03C00000
03C00000
03C00000
03C00000
03C00000
03C00000
03C00000
03C00000
00FC0000
00FC0000
00000000
00000000
00000000
00000000
00000000
00000000
ENDCHAR
STARTCHAR U+0064
ENCODING 240
SWIDTH 960 0
DWIDTH 18 0
BBX 18 36 0 -6
BITMAP
00000000
00000000
00000000
00000000
00000000
00000000
00000000
00000000
3CF00000
3CF00000
0FC00000
0FC00000
3CF00000
3CF00000
003C0000
003C0000
0FFC0000
0FFC0000
3C0F0000
3C0F0000
3C0F0000
3C0F0000
3C0F0000
3C0F0000
3C0F0000
3C0F0000
3C0F0000
3C0F0000
0FFC0000
0FFC0000
00000000
00000000
00000000
00000000
00000000
00000000
ENDCHAR
STARTCHAR U+006e
ENCODING 241
SWIDTH 960 0
DWIDTH 18 0
BBX 18 36 0 -6
BITMAP
00000000
00000000
00000000
00000000
00000000
00000000
00000000
00000000
0FCF0000
0FCF0000
3CFC0000
3CFC0000
00000000
00000000
3FFC0000
3FFC0000
3C0F0000
3C0F0000
3C0F0000
3C0F0000
3C0F0000
3C0F0000
3C0F0000
3C0F0000
3C0F0000
3C0F0000
3C0F0000
3C0F0000
3C0F0000
3C0F0000
00000000
00000000
00000000
00000000
00000000
00000000
ENDCHAR
STARTCHAR U+006f
ENCODING 242
SWIDTH 960 0
DWIDTH 18 0
BBX 18 36 0 -6
BITMAP
00000000
00000000
00000000
00000000
00000000
00000000
0F000000
0F000000
03C00000
03C00000
00F00000
00F00000
00000000
00000000
0FFC0000
0FFC0000
3C0F0000
3C0F0000
3C0F0000
3C0F0000
3C0F0000
3C0F0000
3C0F0000
3C0F0000
3C0F0000
3C0F0000
3C0F0000
3C0F0000
0FFC0000
0FFC0000
00000000
00000000
00000000
00000000
00000000
00000000
ENDCHAR
STARTCHAR U+006f
ENCODING 243
SWIDTH 960 0
DWIDTH 18 0
BBX 18 36 0 -6
BITMAP
00000000
00000000
00000000
00000000
00000000
00000000
003C0000
003C0000
00F00000
00F00000
03C00000
03C00000
00000000
00000000
0FFC0000
0FFC0000
3C0F0000
3C0F0000
3C0F0000
3C0F0000
3C0F0000
3C0F0000
3C0F0000
3C0F0000
3C0F0000
3C0F0000
3C0F0000
3C0F0000
0FFC0000
0FFC0000
00000000
00000000
00000000
00000000
00000000
00000000
ENDCHAR
STARTCHAR U+006f
ENCODING 244
SWIDTH 960 0
DWIDTH 18 0
BBX 18 36 0 -6
BITMAP
00000000
00000000
00000000
00000000
00000000
00000000
00C00000
00C00000
03F00000
03F00000
0F3C0000
0F3C0000
00000000
00000000
0FFC0000
0FFC0000
3C0F0000
3C0F0000
3C0F0000
3C0F0000
3C0F0000
3C0F0000
3C0F0000
3C0F0000
3C0F0000
3C0F0000
3C0F0000
3C0F0000
0FFC0000
0FFC0000
00000000
00000000
00000000
00000000
00000000
00000000
ENDCHAR
STARTCHAR U+006f
ENCODING 245
SWIDTH 960 0
DWIDTH 18 0
BBX 18 36 0 -6
BITMAP
00000000
00000000
00000000
00000000
00000000
00000000
00000000
00000000
0FCF0000
0FCF0000
3CFC0000
3CFC0000
00000000
00000000
0FFC0000
0FFC0000
3C0F0000
3C0F0000
3C0F0000
3C0F0000
3C0F0000
3C0F0000
3C0F0000
3C0F0000
3C0F0000
3C0F0000
3C0F0000
3C0F0000
0FFC0000
0FFC0000
00000000
00000000
00000000
00000000
00000000
00000000
ENDCHAR
STARTCHAR U+006f
ENCODING 246
SWIDTH 960 0
DWIDTH 18 0
BBX 18 36 0 -6
BITMAP
00000000
00000000
00000000
00000000
00000000
00000000
00000000
00000000
0F3C0000
0F3C0000
0F3C0000
0F3C0000
00000000
00000000
0FFC0000
0FFC0000
3C0F0000
3C0F0000
3C0F0000
3C0F0000
3C0F0000
3C0F0000
3C0F0000
3C0F0000
3C0F0000
3C0F0000
3C0F0000
3C0F0000
0FFC0000
0FFC0000
00000000
00000000
00000000
00000000
00000000
00000000
ENDCHAR
STARTCHAR U+002b
ENCODING 247
SWIDTH 960 0
DWIDTH 18 0
BBX 18 36 0 -6
BITMAP
00000000
00000000
00000000
00000000
00000000
00000000
00000000
00000000
00000000
00000000
00000000
00000000
00C00000
00C00000
00C00000
00C00000
00000000
00000000
3FFF0000
3FFF0000
00000000
00000000
00C00000
00C00000
00C00000
00C00000
00000000
00000000
00000000
00000000
00000000
00000000
00000000
00000000
00000000
00000000
ENDCHAR
STARTCHAR U+006f
ENCODING 248
SWIDTH 960 0
DWIDTH 18 0
BBX 18 36 0 -6
BITMAP
00000000
00000000
00000000
00000000
00000000
00000000
00000000
00000000
00000000
00000000
00000000
00000000
0000C000
0000C000
0FFFC000
0FFFC000
3C0F0000
3C0F0000
3C3F0000
3C3F0000
3CFF0000
3CFF0000
3FCF0000
3FCF0000
3F0F0000
3F0F0000
3C0F0000
3C0F0000
3FFC0000
3FFC0000
00000000
00000000
00000000
00000000
00000000
00000000
ENDCHAR
STARTCHAR U+0075
ENCODING 249
SWIDTH 960 0
DWIDTH 18 0
BBX 18 36 0 -6
BITMAP
00000000
00000000
00000000
00000000
00000000
00000000
0F000000
0F000000
03C00000
03C00000
00F00000
00F00000
00000000
00000000
3C0F0000
3C0F0000
3C0F0000
3C0F0000
3C0F0000
3C0F0000
3C0F0000
3C0F0000
3C0F0000
3C0F0000
3C0F0000
3C0F0000
3C0F0000
3C0F0000
0FFF0000
0FFF0000
00000000
00000000
00000000
00000000
00000000
00000000
ENDCHAR
STARTCHAR U+0075
ENCODING 250
SWIDTH 960 0
DWIDTH 18 0
BBX 18 36 0 -6
BITMAP
00000000
00000000
00000000
00000000
00000000
00000000
003C0000
003C0000
00F00000
00F00000
03C00000
03C00000
00000000
00000000
3C0F0000
3C0F0000
3C0F0000
3C0F0000
3C0F0000
3C0F0000
3C0F0000
3C0F0000
3C0F0000
3C0F0000
3C0F0000
3C0F0000
3C0F0000
3C0F0000
0FFF0000
0FFF0000
00000000
00000000
00000000
00000000
00000000
00000000
ENDCHAR
STARTCHAR U+0075
ENCODING 251
SWIDTH 960 0
DWIDTH 18 0
BBX 18 36 0 -6
BITMAP
00000000
00000000
00000000
00000000
00000000
00000000
00C00000
00C00000
03F00000
03F00000
0F3C0000
0F3C0000
00000000
00000000
3C0F0000
3C0F0000
3C0F0000
3C0F0000
3C0F0000
3C0F0000
3C0F0000
3C0F0000
3C0F0000
3C0F0000
3C0F0000
3C0F0000
3C0F0000
3C0F0000
0FFF0000
0FFF0000
00000000
00000000
00000000
00000000
00000000
00000000
ENDCHAR
STARTCHAR U+0075
ENCODING 252
SWIDTH 960 0
DWIDTH 18 0
BBX 18 36 0 -6
BITMAP
00000000
00000000
00000000
00000000
00000000
00000000
00000000
00000000
0F3C0000
0F3C0000
0F3C0000
0F3C0000
00000000
00000000
3C0F0000
3C0F0000
3C0F0000
3C0F0000
3C0F0000
3C0F0000
3C0F0000
3C0F0000
3C0F0000
3C0F0000
3C0F0000
3C0F0000
3C0F0000
3C0F0000
0FFF0000
0FFF0000
00000000
00000000
00000000
00000000
00000000
00000000
ENDCHAR
STARTCHAR U+0079
ENCODING 253
SWIDTH 960 0
DWIDTH 18 0
BBX 18 36 0 -6
BITMAP
00000000
00000000
00000000
00000000
00000000
00000000
003C0000
003C0000
00F00000
00F00000
03C00000
03C00000
00000000
00000000
3C0F0000
3C0F0000
3C0F0000
3C0F0000
3C0F0000
3C0F0000
3C0F0000
3C0F0000
3C0F0000
3C0F0000
3C0F0000
3C0F0000
3C0F0000
3C0F0000
0FFF0000
0FFF0000
000F0000
000F0000
300F0000
300F0000
0FFC0000
0FFC0000
ENDCHAR
STARTCHAR U+00FE
ENCODING 254
SWIDTH 960 0
DWIDTH 18 0
BBX 18 36 0 -6
BITMAP
00000000
00000000
00000000
00000000
00000000
00000000
00000000
00000000
3C000000
3C000000
3C000000
3C000000
3C000000
3C000000
3FFC0000
3FFC0000
3C0F0000
3C0F0000
3C0F0000
3C0F0000
3C0F0000
3C0F0000
3C0F0000
3C0F0000
3C0F0000
3C0F0000
3C0F0000
3C0F0000
3FFC0000
3FFC0000
3C000000
3C000000
3C000000
3C000000
3C000000
3C000000
ENDCHAR
STARTCHAR U+0079
ENCODING 255
SWIDTH 960 0
DWIDTH 18 0
BBX 18 36 0 -6
BITMAP
00000000
00000000
00000000
00000000
00000000
00000000
00000000
00000000
0F3C0000
0F3C0000
0F3C0000
0F3C0000
00000000
00000000
3C0F0000
3C0F0000
3C0F0000
3C0F0000
3C0F0000
3C0F0000
3C0F0000
3C0F0000
3C0F0000
3C0F0000
3C0F0000
3C0F0000
3C0F0000
3C0F0000
0FFF0000
0FFF0000
000F0000
000F0000
300F0000
300F0000
0FFC0000
0FFC0000
ENDCHAR
STARTCHAR U+006f
ENCODING 650
SWIDTH 960 0
DWIDTH 18 0
BBX 18 36 0 -6
BITMAP
00000000
00000000
00000000
00000000
00000000
00000000
00000000
00000000
00000000
00000000
00000000
00000000
3F3F0000
3F3F0000
03300000
03300000
0F3C0000
0F3C0000
3C0F0000
3C0F0000
3C0F0000
3C0F0000
3C0F0000
3C0F0000
3C0F0000
3C0F0000
3C0F0000
3C0F0000
0FFC0000
0FFC0000
00000000
00000000
00000000
00000000
00000000
00000000
ENDCHAR
STARTCHAR U+0027
ENCODING 691
SWIDTH 960 0
DWIDTH 18 0
BBX 18 36 0 -6
BITMAP
00000000
00000000
00000000
00000000
00000000
00000000
00FC0000
00FC0000
00C00000
00C00000
00C00000
00C00000
00C00000
00C00000
00000000
00000000
00000000
00000000
00000000
00000000
00000000
00000000
00000000
00000000
00000000
00000000
00000000
00000000
00000000
00000000
00000000
00000000
00000000
00000000
00000000
00000000
ENDCHAR
STARTCHAR U+0027
ENCODING 712
SWIDTH 960 0
DWIDTH 18 0
BBX 18 36 0 -6
BITMAP
00000000
00000000
00000000
00000000
00000000
00000000
00C00000
00C00000
00C00000
00C00000
00C00000
00C00000
00C00000
00C00000
00000000
00000000
00000000
00000000
00000000
00000000
00000000
00000000
00000000
00000000
00000000
00000000
00000000
00000000
00000000
00000000
00000000
00000000
00000000
00000000
00000000
00000000
ENDCHAR
STARTCHAR U+003a
ENCODING 720
SWIDTH 960 0
DWIDTH 18 0
BBX 18 36 0 -6
BITMAP
00000000
00000000
00000000
00000000
00000000
00000000
00000000
00000000
00000000
00000000
00000000
00000000
03F00000
03F00000
03F00000
03F00000
00C00000
00C00000
00000000
00000000
00000000
00000000
00000000
00000000
00C00000
00C00000
03F00000
03F00000
03F00000
03F00000
00000000
00000000
00000000
00000000
00000000
00000000
ENDCHAR
STARTCHAR U+0061
ENCODING 945
SWIDTH 960 0
DWIDTH 18 0
BBX 18 36 0 -6
BITMAP
00000000
00000000
00000000
00000000
00000000
00000000
00000000
00000000
00000000
00000000
00000000
00000000
00000000
00000000
0FF3C000
0FF3C000
3C3F0000
3C3F0000
3C0F0000
3C0F0000
3C0F0000
3C0F0000
3C0F0000
3C0F0000
3C0F0000
3C0F0000
3C3F0000
3C3F0000
0FF3C000
0FF3C000
00000000
00000000
00000000
00000000
00000000
00000000
ENDCHAR
STARTCHAR U+0062
ENCODING 946
SWIDTH 960 0
DWIDTH 18 0
BBX 18 36 0 -6
BITMAP
00000000
00000000
00000000
00000000
00000000
00000000
0FF00000
0FF00000
3C3C0000
3C3C0000
3C3C0000
3C3C0000
3C3C0000
3C3C0000
3C300000
3C300000
3FFC0000
3FFC0000
3C0F0000
3C0F0000
3C0F0000
3C0F0000
3C0F0000
3C0F0000
3C0F0000
3C0F0000
3C0F0000
3C0F0000
3FFC0000
3FFC0000
3C000000
3C000000
3C000000
3C000000
3C000000
3C000000
ENDCHAR
STARTCHAR char955
ENCODING 955
SWIDTH 960 0
DWIDTH 18 0
BBX 18 36 0 -6
BITMAP
00000000
00000000
00000000
00000000
00000000
00000000
00000000
00000000
3C000000
3C000000
3F000000
3F000000
03C00000
03C00000
03C00000
03C00000
00F00000
00F00000
03F00000
03F00000
033C0000
033C0000
0F3C0000
0F3C0000
0C0F0000
0C0F0000
3C0F0000
3C0F0000
300F0000
300F0000
00000000
00000000
00000000
00000000
00000000
00000000
ENDCHAR
STARTCHAR U+0075
ENCODING 956
SWIDTH 960 0
DWIDTH 18 0
BBX 18 36 0 -6
BITMAP
00000000
00000000
00000000
00000000
00000000
00000000
00000000
00000000
00000000
00000000
00000000
00000000
00000000
00000000
3C0F0000
3C0F0000
3C0F0000
3C0F0000
3C0F0000
3C0F0000
3C0F0000
3C0F0000
3C0F0000
3C0F0000
3C0F0000
3C0F0000
3C0F0000
3C0F0000
3FFFC000
3FFFC000
3C000000
3C000000
3C000000
3C000000
3C000000
3C000000
ENDCHAR
STARTCHAR char960
ENCODING 960
SWIDTH 960 0
DWIDTH 18 0
BBX 18 36 0 -6
BITMAP
00000000
00000000
00000000
00000000
00000000
00000000
00000000
00000000
00000000
00000000
00000000
00000000
00000000
00000000
3FFF0000
3FFF0000
FFFF0000
FFFF0000
0C3C0000
0C3C0000
0C3C0000
0C3C0000
0C3C0000
0C3C0000
0C3F0000
0C3F0000
3C3F0000
3C3F0000
303F0000
303F0000
00000000
00000000
00000000
00000000
00000000
00000000
ENDCHAR
STARTCHAR char8211
ENCODING 8211
SWIDTH 960 0
DWIDTH 18 0
BBX 18 36 0 -6
BITMAP
00000000
00000000
00000000
00000000
00000000
00000000
00000000
00000000
00000000
00000000
00000000
00000000
00000000
00000000
00000000
00000000
00000000
00000000
03FF0000
03FF0000
00000000
00000000
00000000
00000000
00000000
00000000
00000000
00000000
00000000
00000000
00000000
00000000
00000000
00000000
00000000
00000000
ENDCHAR
STARTCHAR char8211
ENCODING 8212
SWIDTH 960 0
DWIDTH 18 0
BBX 18 36 0 -6
BITMAP
00000000
00000000
00000000
00000000
00000000
00000000
00000000
00000000
00000000
00000000
00000000
00000000
00000000
00000000
00000000
00000000
00000000
00000000
FFFF0000
FFFF0000
00000000
00000000
00000000
00000000
00000000
00000000
00000000
00000000
00000000
00000000
00000000
00000000
00000000
00000000
00000000
00000000
ENDCHAR
STARTCHAR U+002c
ENCODING 8216
SWIDTH 960 0
DWIDTH 18 0
BBX 18 36 0 -6
BITMAP
00000000
00000000
00300000
00300000
00C00000
00C00000
00F00000
00F00000
00F00000
00F00000
00000000
00000000
00000000
00000000
00000000
00000000
00000000
00000000
00000000
00000000
00000000
00000000
00000000
00000000
00000000
00000000
00000000
00000000
00000000
00000000
00000000
00000000
00000000
00000000
00000000
00000000
ENDCHAR
STARTCHAR U+002c
ENCODING 8217
SWIDTH 960 0
DWIDTH 18 0
BBX 18 36 0 -6
BITMAP
00000000
00000000
00000000
00000000
00000000
00000000
00F00000
00F00000
00F00000
00F00000
00300000
00300000
00C00000
00C00000
00000000
00000000
00000000
00000000
00000000
00000000
00000000
00000000
00000000
00000000
00000000
00000000
00000000
00000000
00000000
00000000
00000000
00000000
00000000
00000000
00000000
00000000
ENDCHAR
STARTCHAR U+002c
ENCODING 8218
SWIDTH 960 0
DWIDTH 18 0
BBX 18 36 0 -6
BITMAP
00000000
00000000
00000000
00000000
00000000
00000000
00000000
00000000
00000000
00000000
00000000
00000000
00000000
00000000
00000000
00000000
00000000
00000000
00000000
00000000
00000000
00000000
00000000
00000000
00000000
00000000
00F00000
00F00000
00F00000
00F00000
00300000
00300000
00C00000
00C00000
00000000
00000000
ENDCHAR
STARTCHAR U+002c
ENCODING 8220
SWIDTH 960 0
DWIDTH 18 0
BBX 18 36 0 -6
BITMAP
00000000
00000000
00C30000
00C30000
030C0000
030C0000
03CF0000
03CF0000
03CF0000
03CF0000
00000000
00000000
00000000
00000000
00000000
00000000
00000000
00000000
00000000
00000000
00000000
00000000
00000000
00000000
00000000
00000000
00000000
00000000
00000000
00000000
00000000
00000000
00000000
00000000
00000000
00000000
ENDCHAR
STARTCHAR U+002c
ENCODING 8221
SWIDTH 960 0
DWIDTH 18 0
BBX 18 36 0 -6
BITMAP
00000000
00000000
00000000
00000000
00000000
00000000
03CF0000
03CF0000
03CF0000
03CF0000
00C30000
00C30000
030C0000
030C0000
00000000
00000000
00000000
00000000
00000000
00000000
00000000
00000000
00000000
00000000
00000000
00000000
00000000
00000000
00000000
00000000
00000000
00000000
00000000
00000000
00000000
00000000
ENDCHAR
STARTCHAR U+002c
ENCODING 8222
SWIDTH 960 0
DWIDTH 18 0
BBX 18 36 0 -6
BITMAP
00000000
00000000
00000000
00000000
00000000
00000000
00000000
00000000
00000000
00000000
00000000
00000000
00000000
00000000
00000000
00000000
00000000
00000000
00000000
00000000
00000000
00000000
00000000
00000000
00000000
00000000
03CF0000
03CF0000
03CF0000
03CF0000
00C30000
00C30000
030C0000
030C0000
00000000
00000000
ENDCHAR
STARTCHAR char8224
ENCODING 8224
SWIDTH 960 0
DWIDTH 18 0
BBX 18 36 0 -6
BITMAP
00000000
00000000
00000000
00000000
00000000
00000000
00F00000
00F00000
00F00000
00F00000
00F00000
00F00000
3FFFC000
3FFFC000
3FFFC000
3FFFC000
00F00000
00F00000
00F00000
00F00000
00F00000
00F00000
00F00000
00F00000
00F00000
00F00000
00F00000
00F00000
00F00000
00F00000
00000000
00000000
00000000
00000000
00000000
00000000
ENDCHAR
STARTCHAR char8224
ENCODING 8225
SWIDTH 960 0
DWIDTH 18 0
BBX 18 36 0 -6
BITMAP
00000000
00000000
00000000
00000000
00000000
00000000
00F00000
00F00000
00F00000
00F00000
00F00000
00F00000
3FFFC000
3FFFC000
3FFFC000
3FFFC000
00F00000
00F00000
00F00000
00F00000
3FFFC000
3FFFC000
3FFFC000
3FFFC000
00F00000
00F00000
00F00000
00F00000
00F00000
00F00000
00000000
00000000
00000000
00000000
00000000
00000000
ENDCHAR
STARTCHAR char8226
ENCODING 8226
SWIDTH 960 0
DWIDTH 18 0
BBX 18 36 0 -6
BITMAP
00000000
00000000
00000000
00000000
00000000
00000000
00000000
00000000
00000000
00000000
00000000
00000000
00000000
00000000
03F00000
03F00000
0FFC0000
0FFC0000
0FFC0000
0FFC0000
0FFC0000
0FFC0000
03F00000
03F00000
00000000
00000000
00000000
00000000
00000000
00000000
00000000
00000000
00000000
00000000
00000000
00000000
ENDCHAR
STARTCHAR char8230
ENCODING 8230
SWIDTH 960 0
DWIDTH 18 0
BBX 18 36 0 -6
BITMAP
00000000
00000000
00000000
00000000
00000000
00000000
00000000
00000000
00000000
00000000
00000000
00000000
00000000
00000000
00000000
00000000
00000000
00000000
00000000
00000000
00000000
00000000
00000000
00000000
00000000
00000000
00000000
00000000
3CF3C000
3CF3C000
3CF3C000
3CF3C000
00000000
00000000
00000000
00000000
ENDCHAR
STARTCHAR U+0025
ENCODING 8240
SWIDTH 960 0
DWIDTH 18 0
BBX 18 36 0 -6
BITMAP
00000000
00000000
00000000
00000000
00000000
00000000
00000000
00000000
0F000000
0F000000
30C00000
30C00000
30C00000
30C00000
0F03C000
0F03C000
003C0000
003C0000
03C00000
03C00000
3C000000
3C000000
00000000
00000000
0F03C000
0F03C000
30CC0000
30CC0000
30CC0000
30CC0000
0F03C000
0F03C000
00000000
00000000
00000000
00000000
ENDCHAR
STARTCHAR U+0043
ENCODING 8364
SWIDTH 960 0
DWIDTH 18 0
BBX 18 36 0 -6
BITMAP
00000000
00000000
00000000
00000000
00000000
00000000
00000000
00000000
03FF0000
03FF0000
0F00C000
0F00C000
0F000000
0F000000
0F000000
0F000000
3FFC0000
3FFC0000
0F000000
0F000000
3FFC0000
3FFC0000
0F000000
0F000000
0F000000
0F000000
0F00C000
0F00C000
03FF0000
03FF0000
00000000
00000000
00000000
00000000
00000000
00000000
ENDCHAR
STARTCHAR U+0052
ENCODING 8477
SWIDTH 960 0
DWIDTH 18 0
BBX 18 36 0 -6
BITMAP
00000000
00000000
00000000
00000000
00000000
00000000
00000000
00000000
3FFC0000
3FFC0000
330F0000
330F0000
330F0000
330F0000
330F0000
330F0000
330F0000
330F0000
330F0000
330F0000
33FC0000
33FC0000
330F0000
330F0000
330F0000
330F0000
330F0000
330F0000
3F0F0000
3F0F0000
00000000
00000000
00000000
00000000
00000000
00000000
ENDCHAR
STARTCHAR char8482
ENCODING 8482
SWIDTH 960 0
DWIDTH 18 0
BBX 18 36 0 -6
BITMAP
00000000
00000000
03FF0000
03FF0000
00300000
00300000
00300000
00300000
00300000
00300000
00300000
00300000
00000000
00000000
03CF0000
03CF0000
03FF0000
03FF0000
03330000
03330000
03030000
03030000
00000000
00000000
00000000
00000000
00000000
00000000
00000000
00000000
00000000
00000000
00000000
00000000
00000000
00000000
ENDCHAR
STARTCHAR char8594
ENCODING 8594
SWIDTH 960 0
DWIDTH 18 0
BBX 18 36 0 -6
BITMAP
00000000
00000000
00000000
00000000
00000000
00000000
00000000
00000000
00000000
00000000
00000000
00000000
00F00000
00F00000
003C0000
003C0000
000F0000
000F0000
3FFFC000
3FFFC000
000F0000
000F0000
003C0000
003C0000
00F00000
00F00000
00000000
00000000
00000000
00000000
00000000
00000000
00000000
00000000
00000000
00000000
ENDCHAR
STARTCHAR char8658
ENCODING 8656
SWIDTH 960 0
DWIDTH 18 0
BBX 18 36 0 -6
BITMAP
00000000
00000000
00000000
00000000
00000000
00000000
00000000
00000000
00000000
00000000
00000000
00000000
00C00000
00C00000
03C00000
03C00000
0FFFC000
0FFFC000
3C000000
3C000000
F0000000
F0000000
3C000000
3C000000
0FFFC000
0FFFC000
03C00000
03C00000
00C00000
00C00000
00000000
00000000
00000000
00000000
00000000
00000000
ENDCHAR
STARTCHAR char8658
ENCODING 8658
SWIDTH 960 0
DWIDTH 18 0
BBX 18 36 0 -6
BITMAP
00000000
00000000
00000000
00000000
00000000
00000000
00000000
00000000
00000000
00000000
00000000
00000000
00C00000
00C00000
00F00000
00F00000
FFFC0000
FFFC0000
000F0000
000F0000
0003C000
0003C000
000F0000
000F0000
FFFC0000
FFFC0000
00F00000
00F00000
00C00000
00C00000
00000000
00000000
00000000
00000000
00000000
00000000
ENDCHAR
STARTCHAR U+0041
ENCODING 8704
SWIDTH 960 0
DWIDTH 18 0
BBX 18 36 0 -6
BITMAP
00000000
00000000
00000000
00000000
00000000
00000000
00000000
00000000
3C0F0000
3C0F0000
3C0F0000
3C0F0000
3C0F0000
3C0F0000
3C0F0000
3C0F0000
3C0F0000
3C0F0000
3FFF0000
3FFF0000
3C0F0000
3C0F0000
3C0F0000
3C0F0000
3C0F0000
3C0F0000
3C0F0000
3C0F0000
0FFC0000
0FFC0000
00000000
00000000
00000000
00000000
00000000
00000000
ENDCHAR
STARTCHAR char8712
ENCODING 8712
SWIDTH 960 0
DWIDTH 18 0
BBX 18 36 0 -6
BITMAP
00000000
00000000
00000000
00000000
00000000
00000000
00000000
00000000
03FF0000
03FF0000
0F000000
0F000000
3C000000
3C000000
3C000000
3C000000
3FFC0000
3FFC0000
3C000000
3C000000
3C000000
3C000000
0F000000
0F000000
03FF0000
03FF0000
00000000
00000000
00000000
00000000
00000000
00000000
00000000
00000000
00000000
00000000
ENDCHAR
STARTCHAR char8712
ENCODING 8715
SWIDTH 960 0
DWIDTH 18 0
BBX 18 36 0 -6
BITMAP
00000000
00000000
00000000
00000000
00000000
00000000
00000000
00000000
3FF00000
3FF00000
003C0000
003C0000
000F0000
000F0000
000F0000
000F0000
0FFF0000
0FFF0000
000F0000
000F0000
000F0000
000F0000
003C0000
003C0000
3FF00000
3FF00000
00000000
00000000
00000000
00000000
00000000
00000000
00000000
00000000
00000000
00000000
ENDCHAR
STARTCHAR char8718
ENCODING 8718
SWIDTH 960 0
DWIDTH 18 0
BBX 18 36 0 -6
BITMAP
00000000
00000000
00000000
00000000
00000000
00000000
00000000
00000000
00000000
00000000
00000000
00000000
00000000
00000000
3FFF0000
3FFF0000
3FFF0000
3FFF0000
3FFF0000
3FFF0000
3FFF0000
3FFF0000
3FFF0000
3FFF0000
3FFF0000
3FFF0000
3FFF0000
3FFF0000
00000000
00000000
00000000
00000000
00000000
00000000
00000000
00000000
ENDCHAR
STARTCHAR char8719
ENCODING 8719
SWIDTH 960 0
DWIDTH 18 0
BBX 18 36 0 -6
BITMAP
00000000
00000000
00000000
00000000
00000000
00000000
3FFFC000
3FFFC000
3C03C000
3C03C000
3C03C000
3C03C000
3C03C000
3C03C000
3C03C000
3C03C000
3C03C000
3C03C000
3C03C000
3C03C000
3C03C000
3C03C000
3C03C000
3C03C000
3C03C000
3C03C000
3C03C000
3C03C000
3C03C000
3C03C000
3C03C000
3C03C000
00000000
00000000
00000000
00000000
ENDCHAR
STARTCHAR char8719
ENCODING 8720
SWIDTH 960 0
DWIDTH 18 0
BBX 18 36 0 -6
BITMAP
00000000
00000000
00000000
00000000
00000000
00000000
3C03C000
3C03C000
3C03C000
3C03C000
3C03C000
3C03C000
3C03C000
3C03C000
3C03C000
3C03C000
3C03C000
3C03C000
3C03C000
3C03C000
3C03C000
3C03C000
3C03C000
3C03C000
3C03C000
3C03C000
3C03C000
3C03C000
3C03C000
3C03C000
3FFFC000
3FFFC000
00000000
00000000
00000000
00000000
ENDCHAR
STARTCHAR char8721
ENCODING 8721
SWIDTH 960 0
DWIDTH 18 0
BBX 18 36 0 -6
BITMAP
00000000
00000000
00000000
00000000
00000000
00000000
FFFF0000
FFFF0000
F00F0000
F00F0000
F00F0000
F00F0000
3C000000
3C000000
0F000000
0F000000
03C00000
03C00000
00F00000
00F00000
03C00000
03C00000
0F000000
0F000000
3C000000
3C000000
F00F0000
F00F0000
F00F0000
F00F0000
FFFF0000
FFFF0000
00000000
00000000
00000000
00000000
ENDCHAR
STARTCHAR char8722
ENCODING 8722
SWIDTH 960 0
DWIDTH 18 0
BBX 18 36 0 -6
BITMAP
00000000
00000000
00000000
00000000
00000000
00000000
00000000
00000000
00000000
00000000
00000000
00000000
00000000
00000000
00000000
00000000
00000000
00000000
0FFFC000
0FFFC000
00000000
00000000
00000000
00000000
00000000
00000000
00000000
00000000
00000000
00000000
00000000
00000000
00000000
00000000
00000000
00000000
ENDCHAR
STARTCHAR char8730
ENCODING 8730
SWIDTH 960 0
DWIDTH 18 0
BBX 18 36 0 -6
BITMAP
00000000
00000000
00000000
00000000
00000000
00000000
00000000
00000000
00000000
00000000
00030000
00030000
00030000
00030000
000F0000
000F0000
000C0000
000C0000
F03C0000
F03C0000
30300000
30300000
3CF00000
3CF00000
0FC00000
0FC00000
03000000
03000000
03000000
03000000
00000000
00000000
00000000
00000000
00000000
00000000
ENDCHAR
STARTCHAR infinity
ENCODING 8734
SWIDTH 960 0
DWIDTH 18 0
BBX 18 36 0 -6
BITMAP
00000000
00000000
00000000
00000000
00000000
00000000
00000000
00000000
00000000
00000000
00000000
00000000
00000000
00000000
00000000
00000000
0F0F0000
0F0F0000
30F0C000
30F0C000
30F0C000
30F0C000
0F0F0000
0F0F0000
00000000
00000000
00000000
00000000
00000000
00000000
00000000
00000000
00000000
00000000
00000000
00000000
ENDCHAR
STARTCHAR U+006e
ENCODING 8743
SWIDTH 960 0
DWIDTH 18 0
BBX 18 36 0 -6
BITMAP
00000000
00000000
00000000
00000000
00000000
00000000
00000000
00000000
00000000
00000000
00000000
00000000
00C00000
00C00000
03F00000
03F00000
0F3C0000
0F3C0000
3C0F0000
3C0F0000
3C0F0000
3C0F0000
3C0F0000
3C0F0000
3C0F0000
3C0F0000
00000000
00000000
00000000
00000000
00000000
00000000
00000000
00000000
00000000
00000000
ENDCHAR
STARTCHAR U+006e
ENCODING 8744
SWIDTH 960 0
DWIDTH 18 0
BBX 18 36 0 -6
BITMAP
00000000
00000000
00000000
00000000
00000000
00000000
00000000
00000000
00000000
00000000
00000000
00000000
3C0F0000
3C0F0000
3C0F0000
3C0F0000
3C0F0000
3C0F0000
3C0F0000
3C0F0000
0F3C0000
0F3C0000
03F00000
03F00000
00C00000
00C00000
00000000
00000000
00000000
00000000
00000000
00000000
00000000
00000000
00000000
00000000
ENDCHAR
STARTCHAR U+006e
ENCODING 8745
SWIDTH 960 0
DWIDTH 18 0
BBX 18 36 0 -6
BITMAP
00000000
00000000
00000000
00000000
00000000
00000000
00000000
00000000
00000000
00000000
00000000
00000000
0FFC0000
0FFC0000
3C0F0000
3C0F0000
3C0F0000
3C0F0000
3C0F0000
3C0F0000
3C0F0000
3C0F0000
3C0F0000
3C0F0000
3C0F0000
3C0F0000
00000000
00000000
00000000
00000000
00000000
00000000
00000000
00000000
00000000
00000000
ENDCHAR
STARTCHAR U+006e
ENCODING 8746
SWIDTH 960 0
DWIDTH 18 0
BBX 18 36 0 -6
BITMAP
00000000
00000000
00000000
00000000
00000000
00000000
00000000
00000000
00000000
00000000
00000000
00000000
3C0F0000
3C0F0000
3C0F0000
3C0F0000
3C0F0000
3C0F0000
3C0F0000
3C0F0000
3C0F0000
3C0F0000
3C0F0000
3C0F0000
0FFC0000
0FFC0000
00000000
00000000
00000000
00000000
00000000
00000000
00000000
00000000
00000000
00000000
ENDCHAR
STARTCHAR char8750
ENCODING 8750
SWIDTH 960 0
DWIDTH 18 0
BBX 18 36 0 -6
BITMAP
00000000
00000000
000C0000
000C0000
00300000
00300000
00300000
00300000
00300000
00300000
00300000
00300000
00FC0000
00FC0000
03330000
03330000
03330000
03330000
03330000
03330000
00FC0000
00FC0000
00300000
00300000
00300000
00300000
00300000
00300000
00300000
00300000
00300000
00300000
00C00000
00C00000
00000000
00000000
ENDCHAR
STARTCHAR U+003d
ENCODING 8800
SWIDTH 960 0
DWIDTH 18 0
BBX 18 36 0 -6
BITMAP
00000000
00000000
00000000
00000000
00000000
00000000
00000000
00000000
00000000
00000000
00000000
00000000
00030000
00030000
000C0000
000C0000
3FFF0000
3FFF0000
00300000
00300000
00C00000
00C00000
03000000
03000000
3FFF0000
3FFF0000
0C000000
0C000000
30000000
30000000
00000000
00000000
00000000
00000000
00000000
00000000
ENDCHAR
STARTCHAR U+003d
ENCODING 8802
SWIDTH 960 0
DWIDTH 18 0
BBX 18 36 0 -6
BITMAP
00000000
00000000
00000000
00000000
00000000
00000000
00000000
00000000
00030000
00030000
000C0000
000C0000
FFFF0000
FFFF0000
00300000
00300000
00C00000
00C00000
FFFF0000
FFFF0000
03000000
03000000
0C000000
0C000000
FFFF0000
FFFF0000
30000000
30000000
C0000000
C0000000
00000000
00000000
00000000
00000000
00000000
00000000
ENDCHAR
STARTCHAR U+003c
ENCODING 8804
SWIDTH 960 0
DWIDTH 18 0
BBX 18 36 0 -6
BITMAP
00000000
00000000
00000000
00000000
00000000
00000000
00000000
00000000
00000000
00000000
00000000
00000000
003F0000
003F0000
03F00000
03F00000
3F000000
3F000000
F0000000
F0000000
3F000000
3F000000
03F00000
03F00000
003F0000
003F0000
00000000
00000000
00000000
00000000
FFFF0000
FFFF0000
FFFF0000
FFFF0000
00000000
00000000
ENDCHAR
STARTCHAR U+003c
ENCODING 8805
SWIDTH 960 0
DWIDTH 18 0
BBX 18 36 0 -6
BITMAP
00000000
00000000
00000000
00000000
00000000
00000000
00000000
00000000
00000000
00000000
00000000
00000000
FC000000
FC000000
0FC00000
0FC00000
00FC0000
00FC0000
000F0000
000F0000
00FC0000
00FC0000
0FC00000
0FC00000
FC000000
FC000000
00000000
00000000
00000000
00000000
FFFF0000
FFFF0000
FFFF0000
FFFF0000
00000000
00000000
ENDCHAR
STARTCHAR char8866
ENCODING 8866
SWIDTH 960 0
DWIDTH 18 0
BBX 18 36 0 -6
BITMAP
00000000
00000000
00000000
00000000
00000000
00000000
00000000
00000000
3C000000
3C000000
3C000000
3C000000
3C000000
3C000000
3C000000
3C000000
3C000000
3C000000
3FFF0000
3FFF0000
3C000000
3C000000
3C000000
3C000000
3C000000
3C000000
3C000000
3C000000
3C000000
3C000000
00000000
00000000
00000000
00000000
00000000
00000000
ENDCHAR
STARTCHAR char8901
ENCODING 8901
SWIDTH 960 0
DWIDTH 18 0
BBX 18 36 0 -6
BITMAP
00000000
00000000
00000000
00000000
00000000
00000000
00000000
00000000
00000000
00000000
00000000
00000000
00000000
00000000
00000000
00000000
03F00000
03F00000
03F00000
03F00000
03F00000
03F00000
00000000
00000000
00000000
00000000
00000000
00000000
00000000
00000000
00000000
00000000
00000000
00000000
00000000
00000000
ENDCHAR
STARTCHAR char8968
ENCODING 8968
SWIDTH 960 0
DWIDTH 18 0
BBX 18 36 0 -6
BITMAP
00000000
00000000
00FFC000
00FFC000
00FFC000
00FFC000
00F00000
00F00000
00F00000
00F00000
00F00000
00F00000
00F00000
00F00000
00F00000
00F00000
00F00000
00F00000
00F00000
00F00000
00F00000
00F00000
00F00000
00F00000
00F00000
00F00000
00F00000
00F00000
00F00000
00F00000
00F00000
00F00000
00F00000
00F00000
00F00000
00F00000
ENDCHAR
STARTCHAR char8968
ENCODING 8969
SWIDTH 960 0
DWIDTH 18 0
BBX 18 36 0 -6
BITMAP
00000000
00000000
3FF00000
3FF00000
3FF00000
3FF00000
00F00000
00F00000
00F00000
00F00000
00F00000
00F00000
00F00000
00F00000
00F00000
00F00000
00F00000
00F00000
00F00000
00F00000
00F00000
00F00000
00F00000
00F00000
00F00000
00F00000
00F00000
00F00000
00F00000
00F00000
00F00000
00F00000
00F00000
00F00000
00F00000
00F00000
ENDCHAR
STARTCHAR char8968
ENCODING 8970
SWIDTH 960 0
DWIDTH 18 0
BBX 18 36 0 -6
BITMAP
00F00000
00F00000
00F00000
00F00000
00F00000
00F00000
00F00000
00F00000
00F00000
00F00000
00F00000
00F00000
00F00000
00F00000
00F00000
00F00000
00F00000
00F00000
00F00000
00F00000
00F00000
00F00000
00F00000
00F00000
00F00000
00F00000
00F00000
00F00000
00F00000
00F00000
00FFC000
00FFC000
00FFC000
00FFC000
00000000
00000000
ENDCHAR
STARTCHAR char8968
ENCODING 8971
SWIDTH 960 0
DWIDTH 18 0
BBX 18 36 0 -6
BITMAP
00F00000
00F00000
00F00000
00F00000
00F00000
00F00000
00F00000
00F00000
00F00000
00F00000
00F00000
00F00000
00F00000
00F00000
00F00000
00F00000
00F00000
00F00000
00F00000
00F00000
00F00000
00F00000
00F00000
00F00000
00F00000
00F00000
00F00000
00F00000
00F00000
00F00000
3FF00000
3FF00000
3FF00000
3FF00000
00000000
00000000
ENDCHAR
STARTCHAR char172
ENCODING 8976
SWIDTH 960 0
DWIDTH 18 0
BBX 18 36 0 -6
BITMAP
00000000
00000000
00000000
00000000
00000000
00000000
00000000
00000000
00000000
00000000
00000000
00000000
00000000
00000000
00000000
00000000
00000000
00000000
3FFF0000
3FFF0000
3FFF0000
3FFF0000
30000000
30000000
30000000
30000000
00000000
00000000
00000000
00000000
00000000
00000000
00000000
00000000
00000000
00000000
ENDCHAR
STARTCHAR U+002f
ENCODING 9023
SWIDTH 960 0
DWIDTH 18 0
BBX 18 36 0 -6
BITMAP
00000000
00000000
00000000
00000000
00000000
00000000
00030000
00030000
00030000
00030000
000C0000
000C0000
000C0000
000C0000
00300000
00300000
0FFF0000
0FFF0000
00C00000
00C00000
00C00000
00C00000
03000000
03000000
03000000
03000000
0C000000
0C000000
0C000000
0C000000
00000000
00000000
00000000
00000000
00000000
00000000
ENDCHAR
STARTCHAR U+006c
ENCODING 9075
SWIDTH 960 0
DWIDTH 18 0
BBX 18 36 0 -6
BITMAP
00000000
00000000
00000000
00000000
00000000
00000000
00000000
00000000
3FC00000
3FC00000
03C00000
03C00000
03C00000
03C00000
03C00000
03C00000
03C00000
03C00000
03C00000
03C00000
03C00000
03C00000
03C00000
03C00000
03C00000
03C00000
03C00000
03C00000
00FF0000
00FF0000
00000000
00000000
00000000
00000000
00000000
00000000
ENDCHAR
STARTCHAR char9472
ENCODING 9472
SWIDTH 960 0
DWIDTH 18 0
BBX 18 36 0 -6
BITMAP
00000000
00000000
00000000
00000000
00000000
00000000
00000000
00000000
00000000
00000000
00000000
00000000
00000000
00000000
00000000
00000000
FFFFC000
FFFFC000
00000000
00000000
00000000
00000000
00000000
00000000
00000000
00000000
00000000
00000000
00000000
00000000
00000000
00000000
00000000
00000000
00000000
00000000
ENDCHAR
STARTCHAR char9472
ENCODING 9473
SWIDTH 960 0
DWIDTH 18 0
BBX 18 36 0 -6
BITMAP
00000000
00000000
00000000
00000000
00000000
00000000
00000000
00000000
00000000
00000000
00000000
00000000
00000000
00000000
FFFFC000
FFFFC000
FFFFC000
FFFFC000
FFFFC000
FFFFC000
00000000
00000000
00000000
00000000
00000000
00000000
00000000
00000000
00000000
00000000
00000000
00000000
00000000
00000000
00000000
00000000
ENDCHAR
STARTCHAR char9474
ENCODING 9474
SWIDTH 960 0
DWIDTH 18 0
BBX 18 36 0 -6
BITMAP
00C00000
00C00000
00C00000
00C00000
00C00000
00C00000
00C00000
00C00000
00C00000
00C00000
00C00000
00C00000
00C00000
00C00000
00C00000
00C00000
00C00000
00C00000
00C00000
00C00000
00C00000
00C00000
00C00000
00C00000
00C00000
00C00000
00C00000
00C00000
00C00000
00C00000
00C00000
00C00000
00C00000
00C00000
00C00000
00C00000
ENDCHAR
STARTCHAR char9474
ENCODING 9475
SWIDTH 960 0
DWIDTH 18 0
BBX 18 36 0 -6
BITMAP
03F00000
03F00000
03F00000
03F00000
03F00000
03F00000
03F00000
03F00000
03F00000
03F00000
03F00000
03F00000
03F00000
03F00000
03F00000
03F00000
03F00000
03F00000
03F00000
03F00000
03F00000
03F00000
03F00000
03F00000
03F00000
03F00000
03F00000
03F00000
03F00000
03F00000
03F00000
03F00000
03F00000
03F00000
03F00000
03F00000
ENDCHAR
STARTCHAR char9472
ENCODING 9476
SWIDTH 960 0
DWIDTH 18 0
BBX 18 36 0 -6
BITMAP
00000000
00000000
00000000
00000000
00000000
00000000
00000000
00000000
00000000
00000000
00000000
00000000
00000000
00000000
00000000
00000000
3CCFC000
3CCFC000
00000000
00000000
00000000
00000000
00000000
00000000
00000000
00000000
00000000
00000000
00000000
00000000
00000000
00000000
00000000
00000000
00000000
00000000
ENDCHAR
STARTCHAR char9472
ENCODING 9477
SWIDTH 960 0
DWIDTH 18 0
BBX 18 36 0 -6
BITMAP
00000000
00000000
00000000
00000000
00000000
00000000
00000000
00000000
00000000
00000000
00000000
00000000
00000000
00000000
3CCFC000
3CCFC000
3CCFC000
3CCFC000
3CCFC000
3CCFC000
00000000
00000000
00000000
00000000
00000000
00000000
00000000
00000000
00000000
00000000
00000000
00000000
00000000
00000000
00000000
00000000
ENDCHAR
STARTCHAR char9474
ENCODING 9478
SWIDTH 960 0
DWIDTH 18 0
BBX 18 36 0 -6
BITMAP
00000000
00000000
00C00000
00C00000
00C00000
00C00000
00000000
00000000
00C00000
00C00000
00C00000
00C00000
00C00000
00C00000
00C00000
00C00000
00000000
00000000
00C00000
00C00000
00C00000
00C00000
00C00000
00C00000
00C00000
00C00000
00000000
00000000
00C00000
00C00000
00C00000
00C00000
00C00000
00C00000
00C00000
00C00000
ENDCHAR
STARTCHAR char9474
ENCODING 9479
SWIDTH 960 0
DWIDTH 18 0
BBX 18 36 0 -6
BITMAP
00000000
00000000
03F00000
03F00000
03F00000
03F00000
00000000
00000000
03F00000
03F00000
03F00000
03F00000
03F00000
03F00000
03F00000
03F00000
00000000
00000000
03F00000
03F00000
03F00000
03F00000
03F00000
03F00000
03F00000
03F00000
00000000
00000000
03F00000
03F00000
03F00000
03F00000
03F00000
03F00000
03F00000
03F00000
ENDCHAR
STARTCHAR char9472
ENCODING 9480
SWIDTH 960 0
DWIDTH 18 0
BBX 18 36 0 -6
BITMAP
00000000
00000000
00000000
00000000
00000000
00000000
00000000
00000000
00000000
00000000
00000000
00000000
00000000
00000000
00000000
00000000
3CF3C000
3CF3C000
00000000
00000000
00000000
00000000
00000000
00000000
00000000
00000000
00000000
00000000
00000000
00000000
00000000
00000000
00000000
00000000
00000000
00000000
ENDCHAR
STARTCHAR char9472
ENCODING 9481
SWIDTH 960 0
DWIDTH 18 0
BBX 18 36 0 -6
BITMAP
00000000
00000000
00000000
00000000
00000000
00000000
00000000
00000000
00000000
00000000
00000000
00000000
00000000
00000000
3CF3C000
3CF3C000
3CF3C000
3CF3C000
3CF3C000
3CF3C000
00000000
00000000
00000000
00000000
00000000
00000000
00000000
00000000
00000000
00000000
00000000
00000000
00000000
00000000
00000000
00000000
ENDCHAR
STARTCHAR char9474
ENCODING 9482
SWIDTH 960 0
DWIDTH 18 0
BBX 18 36 0 -6
BITMAP
00C00000
00C00000
00C00000
00C00000
00000000
00000000
00C00000
00C00000
00C00000
00C00000
00C00000
00C00000
00000000
00000000
00C00000
00C00000
00C00000
00C00000
00C00000
00C00000
00000000
00000000
00C00000
00C00000
00C00000
00C00000
00C00000
00C00000
00000000
00000000
00C00000
00C00000
00C00000
00C00000
00C00000
00C00000
ENDCHAR
STARTCHAR char9474
ENCODING 9483
SWIDTH 960 0
DWIDTH 18 0
BBX 18 36 0 -6
BITMAP
03F00000
03F00000
03F00000
03F00000
00000000
00000000
03F00000
03F00000
03F00000
03F00000
03F00000
03F00000
00000000
00000000
03F00000
03F00000
03F00000
03F00000
03F00000
03F00000
00000000
00000000
03F00000
03F00000
03F00000
03F00000
03F00000
03F00000
00000000
00000000
03F00000
03F00000
03F00000
03F00000
03F00000
03F00000
ENDCHAR
STARTCHAR char9581
ENCODING 9484
SWIDTH 960 0
DWIDTH 18 0
BBX 18 36 0 -6
BITMAP
00000000
00000000
00000000
00000000
00000000
00000000
00000000
00000000
00000000
00000000
00000000
00000000
00000000
00000000
00000000
00000000
00FFC000
00FFC000
00C00000
00C00000
00C00000
00C00000
00C00000
00C00000
00C00000
00C00000
00C00000
00C00000
00C00000
00C00000
00C00000
00C00000
00C00000
00C00000
00C00000
00C00000
ENDCHAR
STARTCHAR char9581
ENCODING 9485
SWIDTH 960 0
DWIDTH 18 0
BBX 18 36 0 -6
BITMAP
00000000
00000000
00000000
00000000
00000000
00000000
00000000
00000000
00000000
00000000
00000000
00000000
00000000
00000000
00FFC000
00FFC000
00FFC000
00FFC000
00FFC000
00FFC000
00C00000
00C00000
00C00000
00C00000
00C00000
00C00000
00C00000
00C00000
00C00000
00C00000
00C00000
00C00000
00C00000
00C00000
00C00000
00C00000
ENDCHAR
STARTCHAR char9581
ENCODING 9486
SWIDTH 960 0
DWIDTH 18 0
BBX 18 36 0 -6
BITMAP
00000000
00000000
00000000
00000000
00000000
00000000
00000000
00000000
00000000
00000000
00000000
00000000
00000000
00000000
00000000
00000000
03FFC000
03FFC000
03F00000
03F00000
03F00000
03F00000
03F00000
03F00000
03F00000
03F00000
03F00000
03F00000
03F00000
03F00000
03F00000
03F00000
03F00000
03F00000
03F00000
03F00000
ENDCHAR
STARTCHAR char9581
ENCODING 9487
SWIDTH 960 0
DWIDTH 18 0
BBX 18 36 0 -6
BITMAP
00000000
00000000
00000000
00000000
00000000
00000000
00000000
00000000
00000000
00000000
00000000
00000000
00000000
00000000
03FFC000
03FFC000
03FFC000
03FFC000
03FFC000
03FFC000
03F00000
03F00000
03F00000
03F00000
03F00000
03F00000
03F00000
03F00000
03F00000
03F00000
03F00000
03F00000
03F00000
03F00000
03F00000
03F00000
ENDCHAR
STARTCHAR char9581
ENCODING 9488
SWIDTH 960 0
DWIDTH 18 0
BBX 18 36 0 -6
BITMAP
00000000
00000000
00000000
00000000
00000000
00000000
00000000
00000000
00000000
00000000
00000000
00000000
00000000
00000000
00000000
00000000
FFC00000
FFC00000
00C00000
00C00000
00C00000
00C00000
00C00000
00C00000
00C00000
00C00000
00C00000
00C00000
00C00000
00C00000
00C00000
00C00000
00C00000
00C00000
00C00000
00C00000
ENDCHAR
STARTCHAR char9581
ENCODING 9489
SWIDTH 960 0
DWIDTH 18 0
BBX 18 36 0 -6
BITMAP
00000000
00000000
00000000
00000000
00000000
00000000
00000000
00000000
00000000
00000000
00000000
00000000
00000000
00000000
FFC00000
FFC00000
FFC00000
FFC00000
FFC00000
FFC00000
00C00000
00C00000
00C00000
00C00000
00C00000
00C00000
00C00000
00C00000
00C00000
00C00000
00C00000
00C00000
00C00000
00C00000
00C00000
00C00000
ENDCHAR
STARTCHAR char9581
ENCODING 9490
SWIDTH 960 0
DWIDTH 18 0
BBX 18 36 0 -6
BITMAP
00000000
00000000
00000000
00000000
00000000
00000000
00000000
00000000
00000000
00000000
00000000
00000000
00000000
00000000
00000000
00000000
FFF00000
FFF00000
03F00000
03F00000
03F00000
03F00000
03F00000
03F00000
03F00000
03F00000
03F00000
03F00000
03F00000
03F00000
03F00000
03F00000
03F00000
03F00000
03F00000
03F00000
ENDCHAR
STARTCHAR char9581
ENCODING 9491
SWIDTH 960 0
DWIDTH 18 0
BBX 18 36 0 -6
BITMAP
00000000
00000000
00000000
00000000
00000000
00000000
00000000
00000000
00000000
00000000
00000000
00000000
00000000
00000000
FFF00000
FFF00000
FFF00000
FFF00000
FFF00000
FFF00000
03F00000
03F00000
03F00000
03F00000
03F00000
03F00000
03F00000
03F00000
03F00000
03F00000
03F00000
03F00000
03F00000
03F00000
03F00000
03F00000
ENDCHAR
STARTCHAR char9581
ENCODING 9492
SWIDTH 960 0
DWIDTH 18 0
BBX 18 36 0 -6
BITMAP
00C00000
00C00000
00C00000
00C00000
00C00000
00C00000
00C00000
00C00000
00C00000
00C00000
00C00000
00C00000
00C00000
00C00000
00C00000
00C00000
00FFC000
00FFC000
00000000
00000000
00000000
00000000
00000000
00000000
00000000
00000000
00000000
00000000
00000000
00000000
00000000
00000000
00000000
00000000
00000000
00000000
ENDCHAR
STARTCHAR char9581
ENCODING 9493
SWIDTH 960 0
DWIDTH 18 0
BBX 18 36 0 -6
BITMAP
00C00000
00C00000
00C00000
00C00000
00C00000
00C00000
00C00000
00C00000
00C00000
00C00000
00C00000
00C00000
00C00000
00C00000
00FFC000
00FFC000
00FFC000
00FFC000
00FFC000
00FFC000
00000000
00000000
00000000
00000000
00000000
00000000
00000000
00000000
00000000
00000000
00000000
00000000
00000000
00000000
00000000
00000000
ENDCHAR
STARTCHAR char9581
ENCODING 9494
SWIDTH 960 0
DWIDTH 18 0
BBX 18 36 0 -6
BITMAP
03F00000
03F00000
03F00000
03F00000
03F00000
03F00000
03F00000
03F00000
03F00000
03F00000
03F00000
03F00000
03F00000
03F00000
03F00000
03F00000
03FFC000
03FFC000
00000000
00000000
00000000
00000000
00000000
00000000
00000000
00000000
00000000
00000000
00000000
00000000
00000000
00000000
00000000
00000000
00000000
00000000
ENDCHAR
STARTCHAR char9581
ENCODING 9495
SWIDTH 960 0
DWIDTH 18 0
BBX 18 36 0 -6
BITMAP
03F00000
03F00000
03F00000
03F00000
03F00000
03F00000
03F00000
03F00000
03F00000
03F00000
03F00000
03F00000
03F00000
03F00000
03FFC000
03FFC000
03FFC000
03FFC000
03FFC000
03FFC000
00000000
00000000
00000000
00000000
00000000
00000000
00000000
00000000
00000000
00000000
00000000
00000000
00000000
00000000
00000000
00000000
ENDCHAR
STARTCHAR char9581
ENCODING 9496
SWIDTH 960 0
DWIDTH 18 0
BBX 18 36 0 -6
BITMAP
00C00000
00C00000
00C00000
00C00000
00C00000
00C00000
00C00000
00C00000
00C00000
00C00000
00C00000
00C00000
00C00000
00C00000
00C00000
00C00000
FFC00000
FFC00000
00000000
00000000
00000000
00000000
00000000
00000000
00000000
00000000
00000000
00000000
00000000
00000000
00000000
00000000
00000000
00000000
00000000
00000000
ENDCHAR
STARTCHAR char9581
ENCODING 9497
SWIDTH 960 0
DWIDTH 18 0
BBX 18 36 0 -6
BITMAP
00C00000
00C00000
00C00000
00C00000
00C00000
00C00000
00C00000
00C00000
00C00000
00C00000
00C00000
00C00000
00C00000
00C00000
FFC00000
FFC00000
FFC00000
FFC00000
FFC00000
FFC00000
00000000
00000000
00000000
00000000
00000000
00000000
00000000
00000000
00000000
00000000
00000000
00000000
00000000
00000000
00000000
00000000
ENDCHAR
STARTCHAR char9581
ENCODING 9498
SWIDTH 960 0
DWIDTH 18 0
BBX 18 36 0 -6
BITMAP
03F00000
03F00000
03F00000
03F00000
03F00000
03F00000
03F00000
03F00000
03F00000
03F00000
03F00000
03F00000
03F00000
03F00000
03F00000
03F00000
FFF00000
FFF00000
00000000
00000000
00000000
00000000
00000000
00000000
00000000
00000000
00000000
00000000
00000000
00000000
00000000
00000000
00000000
00000000
00000000
00000000
ENDCHAR
STARTCHAR char9581
ENCODING 9499
SWIDTH 960 0
DWIDTH 18 0
BBX 18 36 0 -6
BITMAP
03F00000
03F00000
03F00000
03F00000
03F00000
03F00000
03F00000
03F00000
03F00000
03F00000
03F00000
03F00000
03F00000
03F00000
FFF00000
FFF00000
FFF00000
FFF00000
FFF00000
FFF00000
00000000
00000000
00000000
00000000
00000000
00000000
00000000
00000000
00000000
00000000
00000000
00000000
00000000
00000000
00000000
00000000
ENDCHAR
STARTCHAR char9474
ENCODING 9500
SWIDTH 960 0
DWIDTH 18 0
BBX 18 36 0 -6
BITMAP
00C00000
00C00000
00C00000
00C00000
00C00000
00C00000
00C00000
00C00000
00C00000
00C00000
00C00000
00C00000
00C00000
00C00000
00C00000
00C00000
00FFC000
00FFC000
00C00000
00C00000
00C00000
00C00000
00C00000
00C00000
00C00000
00C00000
00C00000
00C00000
00C00000
00C00000
00C00000
00C00000
00C00000
00C00000
00C00000
00C00000
ENDCHAR
STARTCHAR char9474
ENCODING 9501
SWIDTH 960 0
DWIDTH 18 0
BBX 18 36 0 -6
BITMAP
00C00000
00C00000
00C00000
00C00000
00C00000
00C00000
00C00000
00C00000
00C00000
00C00000
00C00000
00C00000
00C00000
00C00000
00FFC000
00FFC000
00FFC000
00FFC000
00FFC000
00FFC000
00C00000
00C00000
00C00000
00C00000
00C00000
00C00000
00C00000
00C00000
00C00000
00C00000
00C00000
00C00000
00C00000
00C00000
00C00000
00C00000
ENDCHAR
STARTCHAR char9474
ENCODING 9502
SWIDTH 960 0
DWIDTH 18 0
BBX 18 36 0 -6
BITMAP
03F00000
03F00000
03F00000
03F00000
03F00000
03F00000
03F00000
03F00000
03F00000
03F00000
03F00000
03F00000
03F00000
03F00000
03F00000
03F00000
03FFC000
03FFC000
00C00000
00C00000
00C00000
00C00000
00C00000
00C00000
00C00000
00C00000
00C00000
00C00000
00C00000
00C00000
00C00000
00C00000
00C00000
00C00000
00C00000
00C00000
ENDCHAR
STARTCHAR char9474
ENCODING 9503
SWIDTH 960 0
DWIDTH 18 0
BBX 18 36 0 -6
BITMAP
00C00000
00C00000
00C00000
00C00000
00C00000
00C00000
00C00000
00C00000
00C00000
00C00000
00C00000
00C00000
00C00000
00C00000
00C00000
00C00000
00FFC000
00FFC000
03F00000
03F00000
03F00000
03F00000
03F00000
03F00000
03F00000
03F00000
03F00000
03F00000
03F00000
03F00000
03F00000
03F00000
03F00000
03F00000
03F00000
03F00000
ENDCHAR
STARTCHAR char9474
ENCODING 9504
SWIDTH 960 0
DWIDTH 18 0
BBX 18 36 0 -6
BITMAP
03F00000
03F00000
03F00000
03F00000
03F00000
03F00000
03F00000
03F00000
03F00000
03F00000
03F00000
03F00000
03F00000
03F00000
03F00000
03F00000
03FFC000
03FFC000
03F00000
03F00000
03F00000
03F00000
03F00000
03F00000
03F00000
03F00000
03F00000
03F00000
03F00000
03F00000
03F00000
03F00000
03F00000
03F00000
03F00000
03F00000
ENDCHAR
STARTCHAR char9474
ENCODING 9505
SWIDTH 960 0
DWIDTH 18 0
BBX 18 36 0 -6
BITMAP
03F00000
03F00000
03F00000
03F00000
03F00000
03F00000
03F00000
03F00000
03F00000
03F00000
03F00000
03F00000
03F00000
03F00000
03FFC000
03FFC000
03FFC000
03FFC000
00FFC000
00FFC000
00C00000
00C00000
00C00000
00C00000
00C00000
00C00000
00C00000
00C00000
00C00000
00C00000
00C00000
00C00000
00C00000
00C00000
00C00000
00C00000
ENDCHAR
STARTCHAR char9474
ENCODING 9506
SWIDTH 960 0
DWIDTH 18 0
BBX 18 36 0 -6
BITMAP
00C00000
00C00000
00C00000
00C00000
00C00000
00C00000
00C00000
00C00000
00C00000
00C00000
00C00000
00C00000
00C00000
00C00000
00FFC000
00FFC000
03FFC000
03FFC000
03FFC000
03FFC000
03F00000
03F00000
03F00000
03F00000
03F00000
03F00000
03F00000
03F00000
03F00000
03F00000
03F00000
03F00000
03F00000
03F00000
03F00000
03F00000
ENDCHAR
STARTCHAR char9581
ENCODING 9507
SWIDTH 960 0
DWIDTH 18 0
BBX 18 36 0 -6
BITMAP
03F00000
03F00000
03F00000
03F00000
03F00000
03F00000
03F00000
03F00000
03F00000
03F00000
03F00000
03F00000
03F00000
03F00000
03FFC000
03FFC000
03FFC000
03FFC000
03FFC000
03FFC000
03F00000
03F00000
03F00000
03F00000
03F00000
03F00000
03F00000
03F00000
03F00000
03F00000
03F00000
03F00000
03F00000
03F00000
03F00000
03F00000
ENDCHAR
STARTCHAR char9474
ENCODING 9508
SWIDTH 960 0
DWIDTH 18 0
BBX 18 36 0 -6
BITMAP
00C00000
00C00000
00C00000
00C00000
00C00000
00C00000
00C00000
00C00000
00C00000
00C00000
00C00000
00C00000
00C00000
00C00000
00C00000
00C00000
FFC00000
FFC00000
00C00000
00C00000
00C00000
00C00000
00C00000
00C00000
00C00000
00C00000
00C00000
00C00000
00C00000
00C00000
00C00000
00C00000
00C00000
00C00000
00C00000
00C00000
ENDCHAR
STARTCHAR char9474
ENCODING 9509
SWIDTH 960 0
DWIDTH 18 0
BBX 18 36 0 -6
BITMAP
00C00000
00C00000
00C00000
00C00000
00C00000
00C00000
00C00000
00C00000
00C00000
00C00000
00C00000
00C00000
00C00000
00C00000
FFC00000
FFC00000
FFC00000
FFC00000
FFC00000
FFC00000
00C00000
00C00000
00C00000
00C00000
00C00000
00C00000
00C00000
00C00000
00C00000
00C00000
00C00000
00C00000
00C00000
00C00000
00C00000
00C00000
ENDCHAR
STARTCHAR char9474
ENCODING 9510
SWIDTH 960 0
DWIDTH 18 0
BBX 18 36 0 -6
BITMAP
03F00000
03F00000
03F00000
03F00000
03F00000
03F00000
03F00000
03F00000
03F00000
03F00000
03F00000
03F00000
03F00000
03F00000
03F00000
03F00000
FFF00000
FFF00000
00C00000
00C00000
00C00000
00C00000
00C00000
00C00000
00C00000
00C00000
00C00000
00C00000
00C00000
00C00000
00C00000
00C00000
00C00000
00C00000
00C00000
00C00000
ENDCHAR
STARTCHAR char9474
ENCODING 9511
SWIDTH 960 0
DWIDTH 18 0
BBX 18 36 0 -6
BITMAP
00C00000
00C00000
00C00000
00C00000
00C00000
00C00000
00C00000
00C00000
00C00000
00C00000
00C00000
00C00000
00C00000
00C00000
00C00000
00C00000
FFC00000
FFC00000
03F00000
03F00000
03F00000
03F00000
03F00000
03F00000
03F00000
03F00000
03F00000
03F00000
03F00000
03F00000
03F00000
03F00000
03F00000
03F00000
03F00000
03F00000
ENDCHAR
STARTCHAR char9474
ENCODING 9512
SWIDTH 960 0
DWIDTH 18 0
BBX 18 36 0 -6
BITMAP
03F00000
03F00000
03F00000
03F00000
03F00000
03F00000
03F00000
03F00000
03F00000
03F00000
03F00000
03F00000
03F00000
03F00000
03F00000
03F00000
FFF00000
FFF00000
03F00000
03F00000
03F00000
03F00000
03F00000
03F00000
03F00000
03F00000
03F00000
03F00000
03F00000
03F00000
03F00000
03F00000
03F00000
03F00000
03F00000
03F00000
ENDCHAR
STARTCHAR char9474
ENCODING 9513
SWIDTH 960 0
DWIDTH 18 0
BBX 18 36 0 -6
BITMAP
03F00000
03F00000
03F00000
03F00000
03F00000
03F00000
03F00000
03F00000
03F00000
03F00000
03F00000
03F00000
03F00000
03F00000
FFF00000
FFF00000
FFF00000
FFF00000
FFC00000
FFC00000
00C00000
00C00000
00C00000
00C00000
00C00000
00C00000
00C00000
00C00000
00C00000
00C00000
00C00000
00C00000
00C00000
00C00000
00C00000
00C00000
ENDCHAR
STARTCHAR char9474
ENCODING 9514
SWIDTH 960 0
DWIDTH 18 0
BBX 18 36 0 -6
BITMAP
00C00000
00C00000
00C00000
00C00000
00C00000
00C00000
00C00000
00C00000
00C00000
00C00000
00C00000
00C00000
00C00000
00C00000
FFC00000
FFC00000
FFF00000
FFF00000
FFF00000
FFF00000
03F00000
03F00000
03F00000
03F00000
03F00000
03F00000
03F00000
03F00000
03F00000
03F00000
03F00000
03F00000
03F00000
03F00000
03F00000
03F00000
ENDCHAR
STARTCHAR char9581
ENCODING 9515
SWIDTH 960 0
DWIDTH 18 0
BBX 18 36 0 -6
BITMAP
03F00000
03F00000
03F00000
03F00000
03F00000
03F00000
03F00000
03F00000
03F00000
03F00000
03F00000
03F00000
03F00000
03F00000
FFF00000
FFF00000
FFF00000
FFF00000
FFF00000
FFF00000
03F00000
03F00000
03F00000
03F00000
03F00000
03F00000
03F00000
03F00000
03F00000
03F00000
03F00000
03F00000
03F00000
03F00000
03F00000
03F00000
ENDCHAR
STARTCHAR char9472
ENCODING 9516
SWIDTH 960 0
DWIDTH 18 0
BBX 18 36 0 -6
BITMAP
00000000
00000000
00000000
00000000
00000000
00000000
00000000
00000000
00000000
00000000
00000000
00000000
00000000
00000000
00000000
00000000
FFFFC000
FFFFC000
00C00000
00C00000
00C00000
00C00000
00C00000
00C00000
00C00000
00C00000
00C00000
00C00000
00C00000
00C00000
00C00000
00C00000
00C00000
00C00000
00C00000
00C00000
ENDCHAR
STARTCHAR char9472
ENCODING 9517
SWIDTH 960 0
DWIDTH 18 0
BBX 18 36 0 -6
BITMAP
00000000
00000000
00000000
00000000
00000000
00000000
00000000
00000000
00000000
00000000
00000000
00000000
00000000
00000000
FFC00000
FFC00000
FFFFC000
FFFFC000
FFC00000
FFC00000
00C00000
00C00000
00C00000
00C00000
00C00000
00C00000
00C00000
00C00000
00C00000
00C00000
00C00000
00C00000
00C00000
00C00000
00C00000
00C00000
ENDCHAR
STARTCHAR char9472
ENCODING 9518
SWIDTH 960 0
DWIDTH 18 0
BBX 18 36 0 -6
BITMAP
00000000
00000000
00000000
00000000
00000000
00000000
00000000
00000000
00000000
00000000
00000000
00000000
00000000
00000000
00FFC000
00FFC000
FFFFC000
FFFFC000
00FFC000
00FFC000
00C00000
00C00000
00C00000
00C00000
00C00000
00C00000
00C00000
00C00000
00C00000
00C00000
00C00000
00C00000
00C00000
00C00000
00C00000
00C00000
ENDCHAR
STARTCHAR char9472
ENCODING 9519
SWIDTH 960 0
DWIDTH 18 0
BBX 18 36 0 -6
BITMAP
00000000
00000000
00000000
00000000
00000000
00000000
00000000
00000000
00000000
00000000
00000000
00000000
00000000
00000000
FFFFC000
FFFFC000
FFFFC000
FFFFC000
FFFFC000
FFFFC000
00C00000
00C00000
00C00000
00C00000
00C00000
00C00000
00C00000
00C00000
00C00000
00C00000
00C00000
00C00000
00C00000
00C00000
00C00000
00C00000
ENDCHAR
STARTCHAR char9472
ENCODING 9520
SWIDTH 960 0
DWIDTH 18 0
BBX 18 36 0 -6
BITMAP
00000000
00000000
00000000
00000000
00000000
00000000
00000000
00000000
00000000
00000000
00000000
00000000
00000000
00000000
00000000
00000000
FFFFC000
FFFFC000
03F00000
03F00000
03F00000
03F00000
03F00000
03F00000
03F00000
03F00000
03F00000
03F00000
03F00000
03F00000
03F00000
03F00000
03F00000
03F00000
03F00000
03F00000
ENDCHAR
STARTCHAR char9472
ENCODING 9521
SWIDTH 960 0
DWIDTH 18 0
BBX 18 36 0 -6
BITMAP
00000000
00000000
00000000
00000000
00000000
00000000
00000000
00000000
00000000
00000000
00000000
00000000
00000000
00000000
FFC00000
FFC00000
FFFFC000
FFFFC000
FFF00000
FFF00000
03F00000
03F00000
03F00000
03F00000
03F00000
03F00000
03F00000
03F00000
03F00000
03F00000
03F00000
03F00000
03F00000
03F00000
03F00000
03F00000
ENDCHAR
STARTCHAR char9472
ENCODING 9522
SWIDTH 960 0
DWIDTH 18 0
BBX 18 36 0 -6
BITMAP
00000000
00000000
00000000
00000000
00000000
00000000
00000000
00000000
00000000
00000000
00000000
00000000
00000000
00000000
00FFC000
00FFC000
FFFFC000
FFFFC000
03FFC000
03FFC000
03F00000
03F00000
03F00000
03F00000
03F00000
03F00000
03F00000
03F00000
03F00000
03F00000
03F00000
03F00000
03F00000
03F00000
03F00000
03F00000
ENDCHAR
STARTCHAR char9472
ENCODING 9523
SWIDTH 960 0
DWIDTH 18 0
BBX 18 36 0 -6
BITMAP
00000000
00000000
00000000
00000000
00000000
00000000
00000000
00000000
00000000
00000000
00000000
00000000
00000000
00000000
FFFFC000
FFFFC000
FFFFC000
FFFFC000
FFFFC000
FFFFC000
03F00000
03F00000
03F00000
03F00000
03F00000
03F00000
03F00000
03F00000
03F00000
03F00000
03F00000
03F00000
03F00000
03F00000
03F00000
03F00000
ENDCHAR
STARTCHAR char9581
ENCODING 9524
SWIDTH 960 0
DWIDTH 18 0
BBX 18 36 0 -6
BITMAP
00C00000
00C00000
00C00000
00C00000
00C00000
00C00000
00C00000
00C00000
00C00000
00C00000
00C00000
00C00000
00C00000
00C00000
00C00000
00C00000
FFFFC000
FFFFC000
00000000
00000000
00000000
00000000
00000000
00000000
00000000
00000000
00000000
00000000
00000000
00000000
00000000
00000000
00000000
00000000
00000000
00000000
ENDCHAR
STARTCHAR char9581
ENCODING 9525
SWIDTH 960 0
DWIDTH 18 0
BBX 18 36 0 -6
BITMAP
00C00000
00C00000
00C00000
00C00000
00C00000
00C00000
00C00000
00C00000
00C00000
00C00000
00C00000
00C00000
00C00000
00C00000
FFC00000
FFC00000
FFFFC000
FFFFC000
FFC00000
FFC00000
00000000
00000000
00000000
00000000
00000000
00000000
00000000
00000000
00000000
00000000
00000000
00000000
00000000
00000000
00000000
00000000
ENDCHAR
STARTCHAR char9581
ENCODING 9526
SWIDTH 960 0
DWIDTH 18 0
BBX 18 36 0 -6
BITMAP
00C00000
00C00000
00C00000
00C00000
00C00000
00C00000
00C00000
00C00000
00C00000
00C00000
00C00000
00C00000
00C00000
00C00000
00FFC000
00FFC000
FFFFC000
FFFFC000
00FFC000
00FFC000
00000000
00000000
00000000
00000000
00000000
00000000
00000000
00000000
00000000
00000000
00000000
00000000
00000000
00000000
00000000
00000000
ENDCHAR
STARTCHAR char9581
ENCODING 9527
SWIDTH 960 0
DWIDTH 18 0
BBX 18 36 0 -6
BITMAP
00C00000
00C00000
00C00000
00C00000
00C00000
00C00000
00C00000
00C00000
00C00000
00C00000
00C00000
00C00000
00C00000
00C00000
FFFFC000
FFFFC000
FFFFC000
FFFFC000
FFFFC000
FFFFC000
00000000
00000000
00000000
00000000
00000000
00000000
00000000
00000000
00000000
00000000
00000000
00000000
00000000
00000000
00000000
00000000
ENDCHAR
STARTCHAR char9581
ENCODING 9528
SWIDTH 960 0
DWIDTH 18 0
BBX 18 36 0 -6
BITMAP
03F00000
03F00000
03F00000
03F00000
03F00000
03F00000
03F00000
03F00000
03F00000
03F00000
03F00000
03F00000
03F00000
03F00000
03F00000
03F00000
FFFFC000
FFFFC000
00000000
00000000
00000000
00000000
00000000
00000000
00000000
00000000
00000000
00000000
00000000
00000000
00000000
00000000
00000000
00000000
00000000
00000000
ENDCHAR
STARTCHAR char9581
ENCODING 9529
SWIDTH 960 0
DWIDTH 18 0
BBX 18 36 0 -6
BITMAP
03F00000
03F00000
03F00000
03F00000
03F00000
03F00000
03F00000
03F00000
03F00000
03F00000
03F00000
03F00000
03F00000
03F00000
FFF00000
FFF00000
FFFFC000
FFFFC000
FFC00000
FFC00000
00000000
00000000
00000000
00000000
00000000
00000000
00000000
00000000
00000000
00000000
00000000
00000000
00000000
00000000
00000000
00000000
ENDCHAR
STARTCHAR char9581
ENCODING 9530
SWIDTH 960 0
DWIDTH 18 0
BBX 18 36 0 -6
BITMAP
03F00000
03F00000
03F00000
03F00000
03F00000
03F00000
03F00000
03F00000
03F00000
03F00000
03F00000
03F00000
03F00000
03F00000
03FFC000
03FFC000
FFFFC000
FFFFC000
00FFC000
00FFC000
00000000
00000000
00000000
00000000
00000000
00000000
00000000
00000000
00000000
00000000
00000000
00000000
00000000
00000000
00000000
00000000
ENDCHAR
STARTCHAR char9581
ENCODING 9531
SWIDTH 960 0
DWIDTH 18 0
BBX 18 36 0 -6
BITMAP
03F00000
03F00000
03F00000
03F00000
03F00000
03F00000
03F00000
03F00000
03F00000
03F00000
03F00000
03F00000
03F00000
03F00000
FFFFC000
FFFFC000
FFFFC000
FFFFC000
FFFFC000
FFFFC000
00000000
00000000
00000000
00000000
00000000
00000000
00000000
00000000
00000000
00000000
00000000
00000000
00000000
00000000
00000000
00000000
ENDCHAR
STARTCHAR char9472
ENCODING 9532
SWIDTH 960 0
DWIDTH 18 0
BBX 18 36 0 -6
BITMAP
00C00000
00C00000
00C00000
00C00000
00C00000
00C00000
00C00000
00C00000
00C00000
00C00000
00C00000
00C00000
00C00000
00C00000
00C00000
00C00000
FFFFC000
FFFFC000
00C00000
00C00000
00C00000
00C00000
00C00000
00C00000
00C00000
00C00000
00C00000
00C00000
00C00000
00C00000
00C00000
00C00000
00C00000
00C00000
00C00000
00C00000
ENDCHAR
STARTCHAR char9472
ENCODING 9533
SWIDTH 960 0
DWIDTH 18 0
BBX 18 36 0 -6
BITMAP
00C00000
00C00000
00C00000
00C00000
00C00000
00C00000
00C00000
00C00000
00C00000
00C00000
00C00000
00C00000
00C00000
00C00000
FFC00000
FFC00000
FFFFC000
FFFFC000
FFC00000
FFC00000
00C00000
00C00000
00C00000
00C00000
00C00000
00C00000
00C00000
00C00000
00C00000
00C00000
00C00000
00C00000
00C00000
00C00000
00C00000
00C00000
ENDCHAR
STARTCHAR char9472
ENCODING 9534
SWIDTH 960 0
DWIDTH 18 0
BBX 18 36 0 -6
BITMAP
00C00000
00C00000
00C00000
00C00000
00C00000
00C00000
00C00000
00C00000
00C00000
00C00000
00C00000
00C00000
00C00000
00C00000
00FFC000
00FFC000
FFFFC000
FFFFC000
00FFC000
00FFC000
00C00000
00C00000
00C00000
00C00000
00C00000
00C00000
00C00000
00C00000
00C00000
00C00000
00C00000
00C00000
00C00000
00C00000
00C00000
00C00000
ENDCHAR
STARTCHAR char9472
ENCODING 9535
SWIDTH 960 0
DWIDTH 18 0
BBX 18 36 0 -6
BITMAP
00C00000
00C00000
00C00000
00C00000
00C00000
00C00000
00C00000
00C00000
00C00000
00C00000
00C00000
00C00000
00C00000
00C00000
FFFFC000
FFFFC000
FFFFC000
FFFFC000
FFFFC000
FFFFC000
00C00000
00C00000
00C00000
00C00000
00C00000
00C00000
00C00000
00C00000
00C00000
00C00000
00C00000
00C00000
00C00000
00C00000
00C00000
00C00000
ENDCHAR
STARTCHAR char9472
ENCODING 9536
SWIDTH 960 0
DWIDTH 18 0
BBX 18 36 0 -6
BITMAP
03F00000
03F00000
03F00000
03F00000
03F00000
03F00000
03F00000
03F00000
03F00000
03F00000
03F00000
03F00000
03F00000
03F00000
03F00000
03F00000
03F00000
03F00000
FFFFC000
FFFFC000
00C00000
00C00000
00C00000
00C00000
00C00000
00C00000
00C00000
00C00000
00C00000
00C00000
00C00000
00C00000
00C00000
00C00000
00C00000
00C00000
ENDCHAR
STARTCHAR char9472
ENCODING 9537
SWIDTH 960 0
DWIDTH 18 0
BBX 18 36 0 -6
BITMAP
00C00000
00C00000
00C00000
00C00000
00C00000
00C00000
00C00000
00C00000
00C00000
00C00000
00C00000
00C00000
00C00000
00C00000
00C00000
00C00000
00C00000
00C00000
FFFFC000
FFFFC000
03F00000
03F00000
03F00000
03F00000
03F00000
03F00000
03F00000
03F00000
03F00000
03F00000
03F00000
03F00000
03F00000
03F00000
03F00000
03F00000
ENDCHAR
STARTCHAR char9472
ENCODING 9538
SWIDTH 960 0
DWIDTH 18 0
BBX 18 36 0 -6
BITMAP
03F00000
03F00000
03F00000
03F00000
03F00000
03F00000
03F00000
03F00000
03F00000
03F00000
03F00000
03F00000
03F00000
03F00000
03F00000
03F00000
FFFFC000
FFFFC000
03F00000
03F00000
03F00000
03F00000
03F00000
03F00000
03F00000
03F00000
03F00000
03F00000
03F00000
03F00000
03F00000
03F00000
03F00000
03F00000
03F00000
03F00000
ENDCHAR
STARTCHAR char9472
ENCODING 9539
SWIDTH 960 0
DWIDTH 18 0
BBX 18 36 0 -6
BITMAP
03F00000
03F00000
03F00000
03F00000
03F00000
03F00000
03F00000
03F00000
03F00000
03F00000
03F00000
03F00000
03F00000
03F00000
FFF00000
FFF00000
FFFFC000
FFFFC000
FFC00000
FFC00000
00C00000
00C00000
00C00000
00C00000
00C00000
00C00000
00C00000
00C00000
00C00000
00C00000
00C00000
00C00000
00C00000
00C00000
00C00000
00C00000
ENDCHAR
STARTCHAR char9472
ENCODING 9540
SWIDTH 960 0
DWIDTH 18 0
BBX 18 36 0 -6
BITMAP
03F00000
03F00000
03F00000
03F00000
03F00000
03F00000
03F00000
03F00000
03F00000
03F00000
03F00000
03F00000
03F00000
03F00000
03FFC000
03FFC000
FFFFC000
FFFFC000
00FFC000
00FFC000
00C00000
00C00000
00C00000
00C00000
00C00000
00C00000
00C00000
00C00000
00C00000
00C00000
00C00000
00C00000
00C00000
00C00000
00C00000
00C00000
ENDCHAR
STARTCHAR char9472
ENCODING 9541
SWIDTH 960 0
DWIDTH 18 0
BBX 18 36 0 -6
BITMAP
00C00000
00C00000
00C00000
00C00000
00C00000
00C00000
00C00000
00C00000
00C00000
00C00000
00C00000
00C00000
00C00000
00C00000
FFC00000
FFC00000
FFFFC000
FFFFC000
FFF00000
FFF00000
03F00000
03F00000
03F00000
03F00000
03F00000
03F00000
03F00000
03F00000
03F00000
03F00000
03F00000
03F00000
03F00000
03F00000
03F00000
03F00000
ENDCHAR
STARTCHAR char9472
ENCODING 9542
SWIDTH 960 0
DWIDTH 18 0
BBX 18 36 0 -6
BITMAP
00C00000
00C00000
00C00000
00C00000
00C00000
00C00000
00C00000
00C00000
00C00000
00C00000
00C00000
00C00000
00C00000
00C00000
00FFC000
00FFC000
FFFFC000
FFFFC000
03FFC000
03FFC000
03F00000
03F00000
03F00000
03F00000
03F00000
03F00000
03F00000
03F00000
03F00000
03F00000
03F00000
03F00000
03F00000
03F00000
03F00000
03F00000
ENDCHAR
STARTCHAR char9472
ENCODING 9543
SWIDTH 960 0
DWIDTH 18 0
BBX 18 36 0 -6
BITMAP
03F00000
03F00000
03F00000
03F00000
03F00000
03F00000
03F00000
03F00000
03F00000
03F00000
03F00000
03F00000
03F00000
03F00000
FFFFC000
FFFFC000
FFFFC000
FFFFC000
FFFFC000
FFFFC000
00C00000
00C00000
00C00000
00C00000
00C00000
00C00000
00C00000
00C00000
00C00000
00C00000
00C00000
00C00000
00C00000
00C00000
00C00000
00C00000
ENDCHAR
STARTCHAR char9472
ENCODING 9544
SWIDTH 960 0
DWIDTH 18 0
BBX 18 36 0 -6
BITMAP
00C00000
00C00000
00C00000
00C00000
00C00000
00C00000
00C00000
00C00000
00C00000
00C00000
00C00000
00C00000
00C00000
00C00000
FFFFC000
FFFFC000
FFFFC000
FFFFC000
FFFFC000
FFFFC000
03F00000
03F00000
03F00000
03F00000
03F00000
03F00000
03F00000
03F00000
03F00000
03F00000
03F00000
03F00000
03F00000
03F00000
03F00000
03F00000
ENDCHAR
STARTCHAR char9472
ENCODING 9545
SWIDTH 960 0
DWIDTH 18 0
BBX 18 36 0 -6
BITMAP
03F00000
03F00000
03F00000
03F00000
03F00000
03F00000
03F00000
03F00000
03F00000
03F00000
03F00000
03F00000
03F00000
03F00000
FFF00000
FFF00000
FFFFC000
FFFFC000
FFF00000
FFF00000
03F00000
03F00000
03F00000
03F00000
03F00000
03F00000
03F00000
03F00000
03F00000
03F00000
03F00000
03F00000
03F00000
03F00000
03F00000
03F00000
ENDCHAR
STARTCHAR char9472
ENCODING 9546
SWIDTH 960 0
DWIDTH 18 0
BBX 18 36 0 -6
BITMAP
03F00000
03F00000
03F00000
03F00000
03F00000
03F00000
03F00000
03F00000
03F00000
03F00000
03F00000
03F00000
03F00000
03F00000
03FFC000
03FFC000
FFFFC000
FFFFC000
03FFC000
03FFC000
03F00000
03F00000
03F00000
03F00000
03F00000
03F00000
03F00000
03F00000
03F00000
03F00000
03F00000
03F00000
03F00000
03F00000
03F00000
03F00000
ENDCHAR
STARTCHAR char9472
ENCODING 9547
SWIDTH 960 0
DWIDTH 18 0
BBX 18 36 0 -6
BITMAP
03F00000
03F00000
03F00000
03F00000
03F00000
03F00000
03F00000
03F00000
03F00000
03F00000
03F00000
03F00000
03F00000
03F00000
FFFFC000
FFFFC000
FFFFC000
FFFFC000
FFFFC000
FFFFC000
03F00000
03F00000
03F00000
03F00000
03F00000
03F00000
03F00000
03F00000
03F00000
03F00000
03F00000
03F00000
03F00000
03F00000
03F00000
03F00000
ENDCHAR
STARTCHAR char9472
ENCODING 9548
SWIDTH 960 0
DWIDTH 18 0
BBX 18 36 0 -6
BITMAP
00000000
00000000
00000000
00000000
00000000
00000000
00000000
00000000
00000000
00000000
00000000
00000000
00000000
00000000
00000000
00000000
FF3FC000
FF3FC000
00000000
00000000
00000000
00000000
00000000
00000000
00000000
00000000
00000000
00000000
00000000
00000000
00000000
00000000
00000000
00000000
00000000
00000000
ENDCHAR
STARTCHAR char9472
ENCODING 9549
SWIDTH 960 0
DWIDTH 18 0
BBX 18 36 0 -6
BITMAP
00000000
00000000
00000000
00000000
00000000
00000000
00000000
00000000
00000000
00000000
00000000
00000000
00000000
00000000
FF3FC000
FF3FC000
FF3FC000
FF3FC000
FF3FC000
FF3FC000
00000000
00000000
00000000
00000000
00000000
00000000
00000000
00000000
00000000
00000000
00000000
00000000
00000000
00000000
00000000
00000000
ENDCHAR
STARTCHAR char9474
ENCODING 9550
SWIDTH 960 0
DWIDTH 18 0
BBX 18 36 0 -6
BITMAP
00C00000
00C00000
00C00000
00C00000
00C00000
00C00000
00C00000
00C00000
00C00000
00C00000
00C00000
00C00000
00C00000
00C00000
00000000
00000000
00000000
00000000
00C00000
00C00000
00C00000
00C00000
00C00000
00C00000
00C00000
00C00000
00C00000
00C00000
00C00000
00C00000
00C00000
00C00000
00C00000
00C00000
00C00000
00C00000
ENDCHAR
STARTCHAR char9474
ENCODING 9551
SWIDTH 960 0
DWIDTH 18 0
BBX 18 36 0 -6
BITMAP
03F00000
03F00000
03F00000
03F00000
03F00000
03F00000
03F00000
03F00000
03F00000
03F00000
03F00000
03F00000
03F00000
03F00000
00000000
00000000
00000000
00000000
03F00000
03F00000
03F00000
03F00000
03F00000
03F00000
03F00000
03F00000
03F00000
03F00000
03F00000
03F00000
03F00000
03F00000
03F00000
03F00000
03F00000
03F00000
ENDCHAR
STARTCHAR char9472
ENCODING 9552
SWIDTH 960 0
DWIDTH 18 0
BBX 18 36 0 -6
BITMAP
00000000
00000000
00000000
00000000
00000000
00000000
00000000
00000000
00000000
00000000
00000000
00000000
00000000
00000000
FFFFC000
FFFFC000
00000000
00000000
00000000
00000000
FFFFC000
FFFFC000
00000000
00000000
00000000
00000000
00000000
00000000
00000000
00000000
00000000
00000000
00000000
00000000
00000000
00000000
ENDCHAR
STARTCHAR char9581
ENCODING 9553
SWIDTH 960 0
DWIDTH 18 0
BBX 18 36 0 -6
BITMAP
030C0000
030C0000
030C0000
030C0000
030C0000
030C0000
030C0000
030C0000
030C0000
030C0000
030C0000
030C0000
030C0000
030C0000
030C0000
030C0000
030C0000
030C0000
030C0000
030C0000
030C0000
030C0000
030C0000
030C0000
030C0000
030C0000
030C0000
030C0000
030C0000
030C0000
030C0000
030C0000
030C0000
030C0000
030C0000
030C0000
ENDCHAR
STARTCHAR char9581
ENCODING 9554
SWIDTH 960 0
DWIDTH 18 0
BBX 18 36 0 -6
BITMAP
00000000
00000000
00000000
00000000
00000000
00000000
00000000
00000000
00000000
00000000
00000000
00000000
00000000
00000000
00FFC000
00FFC000
00C00000
00C00000
00C00000
00C00000
00FFC000
00FFC000
00C00000
00C00000
00C00000
00C00000
00C00000
00C00000
00C00000
00C00000
00C00000
00C00000
00C00000
00C00000
00C00000
00C00000
ENDCHAR
STARTCHAR char9581
ENCODING 9555
SWIDTH 960 0
DWIDTH 18 0
BBX 18 36 0 -6
BITMAP
00000000
00000000
00000000
00000000
00000000
00000000
00000000
00000000
00000000
00000000
00000000
00000000
00000000
00000000
00000000
00000000
00000000
00000000
03FFC000
03FFC000
030C0000
030C0000
030C0000
030C0000
030C0000
030C0000
030C0000
030C0000
030C0000
030C0000
030C0000
030C0000
030C0000
030C0000
030C0000
030C0000
ENDCHAR
STARTCHAR char9581
ENCODING 9556
SWIDTH 960 0
DWIDTH 18 0
BBX 18 36 0 -6
BITMAP
00000000
00000000
00000000
00000000
00000000
00000000
00000000
00000000
00000000
00000000
00000000
00000000
00000000
00000000
03FFC000
03FFC000
03000000
03000000
03000000
03000000
030FC000
030FC000
030C0000
030C0000
030C0000
030C0000
030C0000
030C0000
030C0000
030C0000
030C0000
030C0000
030C0000
030C0000
030C0000
030C0000
ENDCHAR
STARTCHAR char9581
ENCODING 9557
SWIDTH 960 0
DWIDTH 18 0
BBX 18 36 0 -6
BITMAP
00000000
00000000
00000000
00000000
00000000
00000000
00000000
00000000
00000000
00000000
00000000
00000000
00000000
00000000
FFC00000
FFC00000
00C00000
00C00000
00C00000
00C00000
FFC00000
FFC00000
00C00000
00C00000
00C00000
00C00000
00C00000
00C00000
00C00000
00C00000
00C00000
00C00000
00C00000
00C00000
00C00000
00C00000
ENDCHAR
STARTCHAR char9581
ENCODING 9558
SWIDTH 960 0
DWIDTH 18 0
BBX 18 36 0 -6
BITMAP
00000000
00000000
00000000
00000000
00000000
00000000
00000000
00000000
00000000
00000000
00000000
00000000
00000000
00000000
00000000
00000000
FFFC0000
FFFC0000
030C0000
030C0000
030C0000
030C0000
030C0000
030C0000
030C0000
030C0000
030C0000
030C0000
030C0000
030C0000
030C0000
030C0000
030C0000
030C0000
030C0000
030C0000
ENDCHAR
STARTCHAR char9581
ENCODING 9559
SWIDTH 960 0
DWIDTH 18 0
BBX 18 36 0 -6
BITMAP
00000000
00000000
00000000
00000000
00000000
00000000
00000000
00000000
00000000
00000000
00000000
00000000
00000000
00000000
FFFC0000
FFFC0000
000C0000
000C0000
000C0000
000C0000
FF0C0000
FF0C0000
030C0000
030C0000
030C0000
030C0000
030C0000
030C0000
030C0000
030C0000
030C0000
030C0000
030C0000
030C0000
030C0000
030C0000
ENDCHAR
STARTCHAR char9581
ENCODING 9560
SWIDTH 960 0
DWIDTH 18 0
BBX 18 36 0 -6
BITMAP
00C00000
00C00000
00C00000
00C00000
00C00000
00C00000
00C00000
00C00000
00C00000
00C00000
00C00000
00C00000
00C00000
00C00000
00FFC000
00FFC000
00C00000
00C00000
00C00000
00C00000
00FFC000
00FFC000
00000000
00000000
00000000
00000000
00000000
00000000
00000000
00000000
00000000
00000000
00000000
00000000
00000000
00000000
ENDCHAR
STARTCHAR char9581
ENCODING 9561
SWIDTH 960 0
DWIDTH 18 0
BBX 18 36 0 -6
BITMAP
030C0000
030C0000
030C0000
030C0000
030C0000
030C0000
030C0000
030C0000
030C0000
030C0000
030C0000
030C0000
030C0000
030C0000
030C0000
030C0000
03FFC000
03FFC000
00000000
00000000
00000000
00000000
00000000
00000000
00000000
00000000
00000000
00000000
00000000
00000000
00000000
00000000
00000000
00000000
00000000
00000000
ENDCHAR
STARTCHAR char9581
ENCODING 9562
SWIDTH 960 0
DWIDTH 18 0
BBX 18 36 0 -6
BITMAP
030C0000
030C0000
030C0000
030C0000
030C0000
030C0000
030C0000
030C0000
030C0000
030C0000
030C0000
030C0000
030C0000
030C0000
030FC000
030FC000
03000000
03000000
03000000
03000000
03FFC000
03FFC000
00000000
00000000
00000000
00000000
00000000
00000000
00000000
00000000
00000000
00000000
00000000
00000000
00000000
00000000
ENDCHAR
STARTCHAR char9581
ENCODING 9563
SWIDTH 960 0
DWIDTH 18 0
BBX 18 36 0 -6
BITMAP
00C00000
00C00000
00C00000
00C00000
00C00000
00C00000
00C00000
00C00000
00C00000
00C00000
00C00000
00C00000
00C00000
00C00000
FFC00000
FFC00000
00C00000
00C00000
00C00000
00C00000
FFC00000
FFC00000
00000000
00000000
00000000
00000000
00000000
00000000
00000000
00000000
00000000
00000000
00000000
00000000
00000000
00000000
ENDCHAR
STARTCHAR char9581
ENCODING 9564
SWIDTH 960 0
DWIDTH 18 0
BBX 18 36 0 -6
BITMAP
030C0000
030C0000
030C0000
030C0000
030C0000
030C0000
030C0000
030C0000
030C0000
030C0000
030C0000
030C0000
030C0000
030C0000
030C0000
030C0000
FFFC0000
FFFC0000
00000000
00000000
00000000
00000000
00000000
00000000
00000000
00000000
00000000
00000000
00000000
00000000
00000000
00000000
00000000
00000000
00000000
00000000
ENDCHAR
STARTCHAR char9581
ENCODING 9565
SWIDTH 960 0
DWIDTH 18 0
BBX 18 36 0 -6
BITMAP
030C0000
030C0000
030C0000
030C0000
030C0000
030C0000
030C0000
030C0000
030C0000
030C0000
030C0000
030C0000
030C0000
030C0000
FF0C0000
FF0C0000
000C0000
000C0000
000C0000
000C0000
FFFC0000
FFFC0000
00000000
00000000
00000000
00000000
00000000
00000000
00000000
00000000
00000000
00000000
00000000
00000000
00000000
00000000
ENDCHAR
STARTCHAR char9474
ENCODING 9566
SWIDTH 960 0
DWIDTH 18 0
BBX 18 36 0 -6
BITMAP
00C00000
00C00000
00C00000
00C00000
00C00000
00C00000
00C00000
00C00000
00C00000
00C00000
00C00000
00C00000
00FFC000
00FFC000
00C00000
00C00000
00C00000
00C00000
00FFC000
00FFC000
00C00000
00C00000
00C00000
00C00000
00C00000
00C00000
00C00000
00C00000
00C00000
00C00000
00C00000
00C00000
00C00000
00C00000
00C00000
00C00000
ENDCHAR
STARTCHAR char9581
ENCODING 9567
SWIDTH 960 0
DWIDTH 18 0
BBX 18 36 0 -6
BITMAP
030C0000
030C0000
030C0000
030C0000
030C0000
030C0000
030C0000
030C0000
030C0000
030C0000
030C0000
030C0000
030C0000
030C0000
030C0000
030C0000
030FC000
030FC000
030C0000
030C0000
030C0000
030C0000
030C0000
030C0000
030C0000
030C0000
030C0000
030C0000
030C0000
030C0000
030C0000
030C0000
030C0000
030C0000
030C0000
030C0000
ENDCHAR
STARTCHAR char9581
ENCODING 9568
SWIDTH 960 0
DWIDTH 18 0
BBX 18 36 0 -6
BITMAP
030C0000
030C0000
030C0000
030C0000
030C0000
030C0000
030C0000
030C0000
030C0000
030C0000
030C0000
030C0000
030FC000
030FC000
03000000
03000000
03000000
03000000
030FC000
030FC000
030C0000
030C0000
030C0000
030C0000
030C0000
030C0000
030C0000
030C0000
030C0000
030C0000
030C0000
030C0000
030C0000
030C0000
030C0000
030C0000
ENDCHAR
STARTCHAR char9474
ENCODING 9569
SWIDTH 960 0
DWIDTH 18 0
BBX 18 36 0 -6
BITMAP
00C00000
00C00000
00C00000
00C00000
00C00000
00C00000
00C00000
00C00000
00C00000
00C00000
00C00000
00C00000
FFC00000
FFC00000
00C00000
00C00000
00C00000
00C00000
FFC00000
FFC00000
00C00000
00C00000
00C00000
00C00000
00C00000
00C00000
00C00000
00C00000
00C00000
00C00000
00C00000
00C00000
00C00000
00C00000
00C00000
00C00000
ENDCHAR
STARTCHAR char9581
ENCODING 9570
SWIDTH 960 0
DWIDTH 18 0
BBX 18 36 0 -6
BITMAP
030C0000
030C0000
030C0000
030C0000
030C0000
030C0000
030C0000
030C0000
030C0000
030C0000
030C0000
030C0000
030C0000
030C0000
030C0000
030C0000
FF0C0000
FF0C0000
030C0000
030C0000
030C0000
030C0000
030C0000
030C0000
030C0000
030C0000
030C0000
030C0000
030C0000
030C0000
030C0000
030C0000
030C0000
030C0000
030C0000
030C0000
ENDCHAR
STARTCHAR char9581
ENCODING 9571
SWIDTH 960 0
DWIDTH 18 0
BBX 18 36 0 -6
BITMAP
030C0000
030C0000
030C0000
030C0000
030C0000
030C0000
030C0000
030C0000
030C0000
030C0000
030C0000
030C0000
FF0C0000
FF0C0000
000C0000
000C0000
000C0000
000C0000
FF0C0000
FF0C0000
030C0000
030C0000
030C0000
030C0000
030C0000
030C0000
030C0000
030C0000
030C0000
030C0000
030C0000
030C0000
030C0000
030C0000
030C0000
030C0000
ENDCHAR
STARTCHAR char9472
ENCODING 9572
SWIDTH 960 0
DWIDTH 18 0
BBX 18 36 0 -6
BITMAP
00000000
00000000
00000000
00000000
00000000
00000000
00000000
00000000
00000000
00000000
00000000
00000000
00000000
00000000
FFFFC000
FFFFC000
00000000
00000000
00000000
00000000
FFFFC000
FFFFC000
00C00000
00C00000
00C00000
00C00000
00C00000
00C00000
00C00000
00C00000
00C00000
00C00000
00C00000
00C00000
00C00000
00C00000
ENDCHAR
STARTCHAR char9472
ENCODING 9573
SWIDTH 960 0
DWIDTH 18 0
BBX 18 36 0 -6
BITMAP
00000000
00000000
00000000
00000000
00000000
00000000
00000000
00000000
00000000
00000000
00000000
00000000
00000000
00000000
00000000
00000000
00000000
00000000
FFFFC000
FFFFC000
030C0000
030C0000
030C0000
030C0000
030C0000
030C0000
030C0000
030C0000
030C0000
030C0000
030C0000
030C0000
030C0000
030C0000
030C0000
030C0000
ENDCHAR
STARTCHAR char9472
ENCODING 9574
SWIDTH 960 0
DWIDTH 18 0
BBX 18 36 0 -6
BITMAP
00000000
00000000
00000000
00000000
00000000
00000000
00000000
00000000
00000000
00000000
00000000
00000000
00000000
00000000
FFFFC000
FFFFC000
00000000
00000000
00000000
00000000
FF0FC000
FF0FC000
030C0000
030C0000
030C0000
030C0000
030C0000
030C0000
030C0000
030C0000
030C0000
030C0000
030C0000
030C0000
030C0000
030C0000
ENDCHAR
STARTCHAR char9472
ENCODING 9575
SWIDTH 960 0
DWIDTH 18 0
BBX 18 36 0 -6
BITMAP
00C00000
00C00000
00C00000
00C00000
00C00000
00C00000
00C00000
00C00000
00C00000
00C00000
00C00000
00C00000
00C00000
00C00000
FFFFC000
FFFFC000
00000000
00000000
00000000
00000000
FFFFC000
FFFFC000
00000000
00000000
00000000
00000000
00000000
00000000
00000000
00000000
00000000
00000000
00000000
00000000
00000000
00000000
ENDCHAR
STARTCHAR char9472
ENCODING 9576
SWIDTH 960 0
DWIDTH 18 0
BBX 18 36 0 -6
BITMAP
030C0000
030C0000
030C0000
030C0000
030C0000
030C0000
030C0000
030C0000
030C0000
030C0000
030C0000
030C0000
030C0000
030C0000
030C0000
030C0000
030C0000
030C0000
3FFFC000
3FFFC000
00000000
00000000
00000000
00000000
00000000
00000000
00000000
00000000
00000000
00000000
00000000
00000000
00000000
00000000
00000000
00000000
ENDCHAR
STARTCHAR char9472
ENCODING 9577
SWIDTH 960 0
DWIDTH 18 0
BBX 18 36 0 -6
BITMAP
030C0000
030C0000
030C0000
030C0000
030C0000
030C0000
030C0000
030C0000
030C0000
030C0000
030C0000
030C0000
030C0000
030C0000
FF0FC000
FF0FC000
00000000
00000000
00000000
00000000
FFFFC000
FFFFC000
00000000
00000000
00000000
00000000
00000000
00000000
00000000
00000000
00000000
00000000
00000000
00000000
00000000
00000000
ENDCHAR
STARTCHAR char9472
ENCODING 9578
SWIDTH 960 0
DWIDTH 18 0
BBX 18 36 0 -6
BITMAP
00C00000
00C00000
00C00000
00C00000
00C00000
00C00000
00C00000
00C00000
00C00000
00C00000
00C00000
00C00000
00C00000
00C00000
FFFFC000
FFFFC000
00000000
00000000
00000000
00000000
FFFFC000
FFFFC000
00C00000
00C00000
00C00000
00C00000
00C00000
00C00000
00C00000
00C00000
00C00000
00C00000
00C00000
00C00000
00C00000
00C00000
ENDCHAR
STARTCHAR char9581
ENCODING 9579
SWIDTH 960 0
DWIDTH 18 0
BBX 18 36 0 -6
BITMAP
030C0000
030C0000
030C0000
030C0000
030C0000
030C0000
030C0000
030C0000
030C0000
030C0000
030C0000
030C0000
030C0000
030C0000
030C0000
030C0000
FF0FC000
FF0FC000
030C0000
030C0000
030C0000
030C0000
030C0000
030C0000
030C0000
030C0000
030C0000
030C0000
030C0000
030C0000
030C0000
030C0000
030C0000
030C0000
030C0000
030C0000
ENDCHAR
STARTCHAR char9581
ENCODING 9580
SWIDTH 960 0
DWIDTH 18 0
BBX 18 36 0 -6
BITMAP
030C0000
030C0000
030C0000
030C0000
030C0000
030C0000
030C0000
030C0000
030C0000
030C0000
030C0000
030C0000
030C0000
030C0000
FF0FC000
FF0FC000
00000000
00000000
00000000
00000000
FF0FC000
FF0FC000
030C0000
030C0000
030C0000
030C0000
030C0000
030C0000
030C0000
030C0000
030C0000
030C0000
030C0000
030C0000
030C0000
030C0000
ENDCHAR
STARTCHAR char9581
ENCODING 9581
SWIDTH 960 0
DWIDTH 18 0
BBX 18 36 0 -6
BITMAP
00000000
00000000
00000000
00000000
00000000
00000000
00000000
00000000
00000000
00000000
00000000
00000000
00000000
00000000
00000000
00000000
003FC000
003FC000
00C00000
00C00000
00C00000
00C00000
00C00000
00C00000
00C00000
00C00000
00C00000
00C00000
00C00000
00C00000
00C00000
00C00000
00C00000
00C00000
00C00000
00C00000
ENDCHAR
STARTCHAR char9581
ENCODING 9582
SWIDTH 960 0
DWIDTH 18 0
BBX 18 36 0 -6
BITMAP
00000000
00000000
00000000
00000000
00000000
00000000
00000000
00000000
00000000
00000000
00000000
00000000
00000000
00000000
00000000
00000000
FF000000
FF000000
00C00000
00C00000
00C00000
00C00000
00C00000
00C00000
00C00000
00C00000
00C00000
00C00000
00C00000
00C00000
00C00000
00C00000
00C00000
00C00000
00C00000
00C00000
ENDCHAR
STARTCHAR char9581
ENCODING 9583
SWIDTH 960 0
DWIDTH 18 0
BBX 18 36 0 -6
BITMAP
00C00000
00C00000
00C00000
00C00000
00C00000
00C00000
00C00000
00C00000
00C00000
00C00000
00C00000
00C00000
00C00000
00C00000
00C00000
00C00000
FF000000
FF000000
00000000
00000000
00000000
00000000
00000000
00000000
00000000
00000000
00000000
00000000
00000000
00000000
00000000
00000000
00000000
00000000
00000000
00000000
ENDCHAR
STARTCHAR char9581
ENCODING 9584
SWIDTH 960 0
DWIDTH 18 0
BBX 18 36 0 -6
BITMAP
00C00000
00C00000
00C00000
00C00000
00C00000
00C00000
00C00000
00C00000
00C00000
00C00000
00C00000
00C00000
00C00000
00C00000
00C00000
00C00000
003FC000
003FC000
00000000
00000000
00000000
00000000
00000000
00000000
00000000
00000000
00000000
00000000
00000000
00000000
00000000
00000000
00000000
00000000
00000000
00000000
ENDCHAR
STARTCHAR char9581
ENCODING 9585
SWIDTH 960 0
DWIDTH 18 0
BBX 18 36 0 -6
BITMAP
0000C000
0000C000
0000C000
0000C000
00030000
00030000
00030000
00030000
000C0000
000C0000
000C0000
000C0000
00300000
00300000
00300000
00300000
00C00000
00C00000
00C00000
00C00000
03000000
03000000
03000000
03000000
0C000000
0C000000
0C000000
0C000000
30000000
30000000
30000000
30000000
C0000000
C0000000
C0000000
C0000000
ENDCHAR
STARTCHAR char9586
ENCODING 9586
SWIDTH 960 0
DWIDTH 18 0
BBX 18 36 0 -6
BITMAP
C0000000
C0000000
C0000000
C0000000
30000000
30000000
30000000
30000000
0C000000
0C000000
0C000000
0C000000
03000000
03000000
03000000
03000000
00C00000
00C00000
00C00000
00C00000
00300000
00300000
00300000
00300000
000C0000
000C0000
000C0000
000C0000
00030000
00030000
00030000
00030000
0000C000
0000C000
0000C000
0000C000
ENDCHAR
STARTCHAR char9581
ENCODING 9587
SWIDTH 960 0
DWIDTH 18 0
BBX 18 36 0 -6
BITMAP
C000C000
C000C000
C000C000
C000C000
30030000
30030000
30030000
30030000
0C0C0000
0C0C0000
0C0C0000
0C0C0000
03300000
03300000
03300000
03300000
00C00000
00C00000
00C00000
00C00000
03300000
03300000
03300000
03300000
0C0C0000
0C0C0000
0C0C0000
0C0C0000
30030000
30030000
30030000
30030000
C000C000
C000C000
C000C000
C000C000
ENDCHAR
STARTCHAR char9472
ENCODING 9588
SWIDTH 960 0
DWIDTH 18 0
BBX 18 36 0 -6
BITMAP
00000000
00000000
00000000
00000000
00000000
00000000
00000000
00000000
00000000
00000000
00000000
00000000
00000000
00000000
00000000
00000000
FFC00000
FFC00000
00000000
00000000
00000000
00000000
00000000
00000000
00000000
00000000
00000000
00000000
00000000
00000000
00000000
00000000
00000000
00000000
00000000
00000000
ENDCHAR
STARTCHAR char9472
ENCODING 9589
SWIDTH 960 0
DWIDTH 18 0
BBX 18 36 0 -6
BITMAP
00C00000
00C00000
00C00000
00C00000
00C00000
00C00000
00C00000
00C00000
00C00000
00C00000
00C00000
00C00000
00C00000
00C00000
00C00000
00C00000
00C00000
00C00000
00000000
00000000
00000000
00000000
00000000
00000000
00000000
00000000
00000000
00000000
00000000
00000000
00000000
00000000
00000000
00000000
00000000
00000000
ENDCHAR
STARTCHAR char9472
ENCODING 9590
SWIDTH 960 0
DWIDTH 18 0
BBX 18 36 0 -6
BITMAP
00000000
00000000
00000000
00000000
00000000
00000000
00000000
00000000
00000000
00000000
00000000
00000000
00000000
00000000
00000000
00000000
000FC000
000FC000
00000000
00000000
00000000
00000000
00000000
00000000
00000000
00000000
00000000
00000000
00000000
00000000
00000000
00000000
00000000
00000000
00000000
00000000
ENDCHAR
STARTCHAR char9472
ENCODING 9591
SWIDTH 960 0
DWIDTH 18 0
BBX 18 36 0 -6
BITMAP
00000000
00000000
00000000
00000000
00000000
00000000
00000000
00000000
00000000
00000000
00000000
00000000
00000000
00000000
00000000
00000000
00000000
00000000
00C00000
00C00000
00C00000
00C00000
00C00000
00C00000
00C00000
00C00000
00C00000
00C00000
00C00000
00C00000
00C00000
00C00000
00C00000
00C00000
00C00000
00C00000
ENDCHAR
STARTCHAR char9472
ENCODING 9592
SWIDTH 960 0
DWIDTH 18 0
BBX 18 36 0 -6
BITMAP
00000000
00000000
00000000
00000000
00000000
00000000
00000000
00000000
00000000
00000000
00000000
00000000
00000000
00000000
FFF00000
FFF00000
FFF00000
FFF00000
FFF00000
FFF00000
00000000
00000000
00000000
00000000
00000000
00000000
00000000
00000000
00000000
00000000
00000000
00000000
00000000
00000000
00000000
00000000
ENDCHAR
STARTCHAR char9472
ENCODING 9593
SWIDTH 960 0
DWIDTH 18 0
BBX 18 36 0 -6
BITMAP
03F00000
03F00000
03F00000
03F00000
03F00000
03F00000
03F00000
03F00000
03F00000
03F00000
03F00000
03F00000
03F00000
03F00000
03F00000
03F00000
03F00000
03F00000
00000000
00000000
00000000
00000000
00000000
00000000
00000000
00000000
00000000
00000000
00000000
00000000
00000000
00000000
00000000
00000000
00000000
00000000
ENDCHAR
STARTCHAR char9472
ENCODING 9594
SWIDTH 960 0
DWIDTH 18 0
BBX 18 36 0 -6
BITMAP
00000000
00000000
00000000
00000000
00000000
00000000
00000000
00000000
00000000
00000000
00000000
00000000
00000000
00000000
003FC000
003FC000
003FC000
003FC000
003FC000
003FC000
00000000
00000000
00000000
00000000
00000000
00000000
00000000
00000000
00000000
00000000
00000000
00000000
00000000
00000000
00000000
00000000
ENDCHAR
STARTCHAR char9472
ENCODING 9595
SWIDTH 960 0
DWIDTH 18 0
BBX 18 36 0 -6
BITMAP
00000000
00000000
00000000
00000000
00000000
00000000
00000000
00000000
00000000
00000000
00000000
00000000
00000000
00000000
00000000
00000000
00000000
00000000
03F00000
03F00000
03F00000
03F00000
03F00000
03F00000
03F00000
03F00000
03F00000
03F00000
03F00000
03F00000
03F00000
03F00000
03F00000
03F00000
03F00000
03F00000
ENDCHAR
STARTCHAR char9472
ENCODING 9596
SWIDTH 960 0
DWIDTH 18 0
BBX 18 36 0 -6
BITMAP
00000000
00000000
00000000
00000000
00000000
00000000
00000000
00000000
00000000
00000000
00000000
00000000
00000000
00000000
003FC000
003FC000
FFFFC000
FFFFC000
003FC000
003FC000
00000000
00000000
00000000
00000000
00000000
00000000
00000000
00000000
00000000
00000000
00000000
00000000
00000000
00000000
00000000
00000000
ENDCHAR
STARTCHAR char9472
ENCODING 9597
SWIDTH 960 0
DWIDTH 18 0
BBX 18 36 0 -6
BITMAP
00C00000
00C00000
00C00000
00C00000
00C00000
00C00000
00C00000
00C00000
00C00000
00C00000
00C00000
00C00000
00C00000
00C00000
00C00000
00C00000
00C00000
00C00000
03F00000
03F00000
03F00000
03F00000
03F00000
03F00000
03F00000
03F00000
03F00000
03F00000
03F00000
03F00000
03F00000
03F00000
03F00000
03F00000
03F00000
03F00000
ENDCHAR
STARTCHAR char9472
ENCODING 9598
SWIDTH 960 0
DWIDTH 18 0
BBX 18 36 0 -6
BITMAP
00000000
00000000
00000000
00000000
00000000
00000000
00000000
00000000
00000000
00000000
00000000
00000000
00000000
00000000
FFF00000
FFF00000
FFFFC000
FFFFC000
FFF00000
FFF00000
00000000
00000000
00000000
00000000
00000000
00000000
00000000
00000000
00000000
00000000
00000000
00000000
00000000
00000000
00000000
00000000
ENDCHAR
STARTCHAR char9472
ENCODING 9599
SWIDTH 960 0
DWIDTH 18 0
BBX 18 36 0 -6
BITMAP
03F00000
03F00000
03F00000
03F00000
03F00000
03F00000
03F00000
03F00000
03F00000
03F00000
03F00000
03F00000
03F00000
03F00000
03F00000
03F00000
03F00000
03F00000
00C00000
00C00000
00C00000
00C00000
00C00000
00C00000
00C00000
00C00000
00C00000
00C00000
00C00000
00C00000
00C00000
00C00000
00C00000
00C00000
00C00000
00C00000
ENDCHAR
STARTCHAR char9675
ENCODING 9675
SWIDTH 960 0
DWIDTH 18 0
BBX 18 36 0 -6
BITMAP
00000000
00000000
00000000
00000000
00000000
00000000
00000000
00000000
00000000
00000000
0FF00000
0FF00000
300C0000
300C0000
C0030000
C0030000
C0030000
C0030000
C0030000
C0030000
C0030000
C0030000
300C0000
300C0000
0FF00000
0FF00000
00000000
00000000
00000000
00000000
00000000
00000000
00000000
00000000
00000000
00000000
ENDCHAR
STARTCHAR U+e005
ENCODING 57349
SWIDTH 960 0
DWIDTH 18 0
BBX 18 36 0 -6
BITMAP
00000000
00000000
00000000
00000000
00000000
00000000
00000000
00000000
003C0000
003C0000
00F00000
00F00000
00C00000
00C00000
3F3F0000
3F3F0000
FFFFC000
FFFFC000
FFFC0000
FFFC0000
FFF00000
FFF00000
FFFC0000
FFFC0000
FFFFC000
FFFFC000
3FFFC000
3FFFC000
0F3F0000
0F3F0000
00000000
00000000
00000000
00000000
00000000
00000000
ENDCHAR
STARTCHAR U+e006
ENCODING 57350
SWIDTH 960 0
DWIDTH 18 0
BBX 18 36 0 -6
BITMAP
00000000
00000000
00000000
00000000
00000000
00000000
00000000
00000000
00000000
00000000
00000000
00000000
00000000
00000000
00000000
00000000
00000000
00000000
00000000
00000000
00000000
00000000
00000000
00000000
00000000
00000000
00000000
00000000
00000000
00000000
00000000
00000000
00000000
00000000
00000000
00000000
ENDCHAR
STARTCHAR window
ENCODING 57360
SWIDTH 960 0
DWIDTH 18 0
BBX 18 36 0 -6
BITMAP
00000000
00000000
00000000
00000000
00000000
00000000
00000000
00000000
00000000
00000000
FFFFC000
FFFFC000
FFFFC000
FFFFC000
C000C000
C000C000
CCCCC000
CCCCC000
CCCCC000
CCCCC000
CCCCC000
CCCCC000
CF30C000
CF30C000
C000C000
C000C000
FFFFC000
FFFFC000
00000000
00000000
00000000
00000000
00000000
00000000
00000000
00000000
ENDCHAR
STARTCHAR window
ENCODING 57361
SWIDTH 960 0
DWIDTH 18 0
BBX 18 36 0 -6
BITMAP
00000000
00000000
00000000
00000000
00000000
00000000
00000000
00000000
00000000
00000000
FC0FC000
FC0FC000
C000C000
C000C000
C000C000
C000C000
00000000
00000000
00000000
00000000
00000000
00000000
C000C000
C000C000
C000C000
C000C000
FC0FC000
FC0FC000
00000000
00000000
00000000
00000000
00000000
00000000
00000000
00000000
ENDCHAR
STARTCHAR window
ENCODING 57362
SWIDTH 960 0
DWIDTH 18 0
BBX 18 36 0 -6
BITMAP
00000000
00000000
00000000
00000000
00000000
00000000
00000000
00000000
00000000
00000000
FFFFC000
FFFFC000
FFFFC000
FFFFC000
C000C000
C000C000
CC00C000
CC00C000
C300C000
C300C000
C300C000
C300C000
CCFCC000
CCFCC000
C000C000
C000C000
FFFFC000
FFFFC000
00000000
00000000
00000000
00000000
00000000
00000000
00000000
00000000
ENDCHAR
STARTCHAR window
ENCODING 57363
SWIDTH 960 0
DWIDTH 18 0
BBX 18 36 0 -6
BITMAP
00000000
00000000
00000000
00000000
00000000
00000000
00000000
00000000
00000000
00000000
FFFFC000
FFFFC000
C000C000
C000C000
C000C000
C000C000
C000C000
C000C000
C000C000
C000C000
FFFFC000
FFFFC000
FFFFC000
FFFFC000
00C00000
00C00000
0FFC0000
0FFC0000
00000000
00000000
00000000
00000000
00000000
00000000
00000000
00000000
ENDCHAR
STARTCHAR char57364
ENCODING 57364
SWIDTH 960 0
DWIDTH 18 0
BBX 18 36 0 -6
BITMAP
00000000
00000000
00000000
00000000
00000000
00000000
00000000
00000000
00000000
00000000
00C00000
00C00000
3FFF0000
3FFF0000
3C000000
3C000000
3C000000
3C000000
3FFF0000
3FFF0000
000F0000
000F0000
000F0000
000F0000
3FFF0000
3FFF0000
00C00000
00C00000
00000000
00000000
00000000
00000000
00000000
00000000
00000000
00000000
ENDCHAR
STARTCHAR char57365
ENCODING 57365
SWIDTH 960 0
DWIDTH 18 0
BBX 18 36 0 -6
BITMAP
00000000
00000000
00000000
00000000
00000000
00000000
00000000
00000000
00000000
00000000
0FFC0000
0FFC0000
3F3F0000
3F3F0000
FF3FC000
FF3FC000
FF3FC000
FF3FC000
FF00C000
FF00C000
FFFFC000
FFFFC000
FFFFC000
FFFFC000
3FFF0000
3FFF0000
0FFC0000
0FFC0000
00000000
00000000
00000000
00000000
00000000
00000000
00000000
00000000
ENDCHAR
STARTCHAR char57365
ENCODING 57366
SWIDTH 960 0
DWIDTH 18 0
BBX 18 36 0 -6
BITMAP
00000000
00000000
00000000
00000000
00000000
00000000
00000000
00000000
00000000
00000000
0FFC0000
0FFC0000
30030000
30030000
C0C0C000
C0C0C000
C0C0C000
C0C0C000
C0C0C000
C0C0C000
C0FCC000
C0FCC000
C000C000
C000C000
30030000
30030000
0FFC0000
0FFC0000
00000000
00000000
00000000
00000000
00000000
00000000
00000000
00000000
ENDCHAR
STARTCHAR char57365
ENCODING 57367
SWIDTH 960 0
DWIDTH 18 0
BBX 18 36 0 -6
BITMAP
00000000
00000000
00000000
00000000
00000000
00000000
00000000
00000000
00000000
00000000
FFFFC000
FFFFC000
FF3FC000
FF3FC000
FF3FC000
FF3FC000
FF3FC000
FF3FC000
FF3FC000
FF3FC000
FF00C000
FF00C000
FFFFC000
FFFFC000
FFFFC000
FFFFC000
FFFFC000
FFFFC000
00000000
00000000
00000000
00000000
00000000
00000000
00000000
00000000
ENDCHAR
STARTCHAR char57365
ENCODING 57368
SWIDTH 960 0
DWIDTH 18 0
BBX 18 36 0 -6
BITMAP
00000000
00000000
00000000
00000000
00000000
00000000
00000000
00000000
00000000
00000000
FFFFC000
FFFFC000
C000C000
C000C000
C0C0C000
C0C0C000
C0C0C000
C0C0C000
C0C0C000
C0C0C000
C0FCC000
C0FCC000
C000C000
C000C000
C000C000
C000C000
FFFFC000
FFFFC000
00000000
00000000
00000000
00000000
00000000
00000000
00000000
00000000
ENDCHAR
STARTCHAR char57365
ENCODING 57369
SWIDTH 960 0
DWIDTH 18 0
BBX 18 36 0 -6
BITMAP
00000000
00000000
00000000
00000000
00000000
00000000
00000000
00000000
00000000
00000000
30030000
30030000
FFFFC000
FFFFC000
FFFFC000
FFFFC000
C000C000
C000C000
CCCCC000
CCCCC000
C000C000
C000C000
CCCCC000
CCCCC000
C000C000
C000C000
FFFFC000
FFFFC000
00000000
00000000
00000000
00000000
00000000
00000000
00000000
00000000
ENDCHAR
STARTCHAR window
ENCODING 57376
SWIDTH 960 0
DWIDTH 18 0
BBX 18 36 0 -6
BITMAP
00000000
00000000
00000000
00000000
00000000
00000000
00000000
00000000
00000000
00000000
0FFC0000
0FFC0000
F003C000
F003C000
FC0FC000
FC0FC000
CFFCC000
CFFCC000
C0C0C000
C0C0C000
C0C0C000
C0C0C000
C0C0C000
C0C0C000
F0C3C000
F0C3C000
0FFC0000
0FFC0000
00000000
00000000
00000000
00000000
00000000
00000000
00000000
00000000
ENDCHAR
STARTCHAR char57377
ENCODING 57377
SWIDTH 960 0
DWIDTH 18 0
BBX 18 36 0 -6
BITMAP
00000000
00000000
00000000
00000000
00000000
00000000
00000000
00000000
00000000
00000000
F3F3C000
F3F3C000
F003C000
F003C000
0FFC0000
0FFC0000
CFFCC000
CFFCC000
CFFCC000
CFFCC000
CFFCC000
CFFCC000
0FFC0000
0FFC0000
F003C000
F003C000
F3F3C000
F3F3C000
00000000
00000000
00000000
00000000
00000000
00000000
00000000
00000000
ENDCHAR
STARTCHAR char57365
ENCODING 57381
SWIDTH 960 0
DWIDTH 18 0
BBX 18 36 0 -6
BITMAP
00000000
00000000
00000000
00000000
00000000
00000000
00000000
00000000
00000000
00000000
F3F3C000
F3F3C000
00000000
00000000
FFFFC000
FFFFC000
C000C000
C000C000
C000C000
C000C000
C000C000
C000C000
FFFFC000
FFFFC000
00000000
00000000
F3F3C000
F3F3C000
00000000
00000000
00000000
00000000
00000000
00000000
00000000
00000000
ENDCHAR
STARTCHAR char57365
ENCODING 57382
SWIDTH 960 0
DWIDTH 18 0
BBX 18 36 0 -6
BITMAP
00000000
00000000
00000000
00000000
00000000
00000000
00000000
00000000
00000000
00000000
F3F3C000
F3F3C000
00000000
00000000
FFFFC000
FFFFC000
FF00C000
FF00C000
FF00C000
FF00C000
FF00C000
FF00C000
FFFFC000
FFFFC000
00000000
00000000
F3F3C000
F3F3C000
00000000
00000000
00000000
00000000
00000000
00000000
00000000
00000000
ENDCHAR
STARTCHAR char57365
ENCODING 57383
SWIDTH 960 0
DWIDTH 18 0
BBX 18 36 0 -6
BITMAP
00000000
00000000
00000000
00000000
00000000
00000000
00000000
00000000
00000000
00000000
F3F3C000
F3F3C000
00000000
00000000
FFFFC000
FFFFC000
FFF0C000
FFF0C000
FFF0C000
FFF0C000
FFF0C000
FFF0C000
FFFFC000
FFFFC000
00000000
00000000
F3F3C000
F3F3C000
00000000
00000000
00000000
00000000
00000000
00000000
00000000
00000000
ENDCHAR
STARTCHAR char57365
ENCODING 57384
SWIDTH 960 0
DWIDTH 18 0
BBX 18 36 0 -6
BITMAP
00000000
00000000
00000000
00000000
00000000
00000000
00000000
00000000
00000000
00000000
F3F3C000
F3F3C000
00000000
00000000
FFFFC000
FFFFC000
FFFFC000
FFFFC000
FFFFC000
FFFFC000
FFFFC000
FFFFC000
FFFFC000
FFFFC000
00000000
00000000
F3F3C000
F3F3C000
00000000
00000000
00000000
00000000
00000000
00000000
00000000
00000000
ENDCHAR
STARTCHAR char57365
ENCODING 57397
SWIDTH 960 0
DWIDTH 18 0
BBX 18 36 0 -6
BITMAP
00000000
00000000
00000000
00000000
00000000
00000000
00000000
00000000
00000000
00000000
00000000
00000000
00000000
00000000
00000000
00000000
00000000
00000000
00000000
00000000
00000000
00000000
00000000
00000000
F3CF0000
F3CF0000
F3CF0000
F3CF0000
00000000
00000000
00000000
00000000
00000000
00000000
00000000
00000000
ENDCHAR
STARTCHAR char57365
ENCODING 57398
SWIDTH 960 0
DWIDTH 18 0
BBX 18 36 0 -6
BITMAP
00000000
00000000
00000000
00000000
00000000
00000000
00000000
00000000
00000000
00000000
00000000
00000000
00000000
00000000
00000000
00000000
00000000
00000000
00000000
00000000
F0000000
F0000000
F0000000
F0000000
F3CF0000
F3CF0000
F3CF0000
F3CF0000
00000000
00000000
00000000
00000000
00000000
00000000
00000000
00000000
ENDCHAR
STARTCHAR char57365
ENCODING 57399
SWIDTH 960 0
DWIDTH 18 0
BBX 18 36 0 -6
BITMAP
00000000
00000000
00000000
00000000
00000000
00000000
00000000
00000000
00000000
00000000
00000000
00000000
00000000
00000000
00000000
00000000
03C00000
03C00000
03C00000
03C00000
F3C00000
F3C00000
F3C00000
F3C00000
F3CF0000
F3CF0000
F3CF0000
F3CF0000
00000000
00000000
00000000
00000000
00000000
00000000
00000000
00000000
ENDCHAR
STARTCHAR char57365
ENCODING 57400
SWIDTH 960 0
DWIDTH 18 0
BBX 18 36 0 -6
BITMAP
00000000
00000000
00000000
00000000
00000000
00000000
00000000
00000000
00000000
00000000
00000000
00000000
000F0000
000F0000
000F0000
000F0000
03CF0000
03CF0000
03CF0000
03CF0000
F3CF0000
F3CF0000
F3CF0000
F3CF0000
F3CF0000
F3CF0000
F3CF0000
F3CF0000
00000000
00000000
00000000
00000000
00000000
00000000
00000000
00000000
ENDCHAR
STARTCHAR char57365
ENCODING 57413
SWIDTH 960 0
DWIDTH 18 0
BBX 18 36 0 -6
BITMAP
00000000
00000000
00000000
00000000
00000000
00000000
00000000
00000000
00000000
00000000
FFFFC000
FFFFC000
C000C000
C000C000
C000C000
C000C000
C000C000
C000C000
C000C000
C000C000
CFFCC000
CFFCC000
CC0CC000
CC0CC000
CC0CC000
CC0CC000
3FFFC000
3FFFC000
00000000
00000000
00000000
00000000
00000000
00000000
00000000
00000000
ENDCHAR
STARTCHAR char57365
ENCODING 57414
SWIDTH 960 0
DWIDTH 18 0
BBX 18 36 0 -6
BITMAP
00000000
00000000
00000000
00000000
00000000
00000000
00000000
00000000
00000000
00000000
FFFFC000
FFFFC000
C000C000
C000C000
C000C000
C000C000
C000C000
C000C000
C000C000
C000C000
CFFCC000
CFFCC000
CF0CC000
CF0CC000
CF0CC000
CF0CC000
3FFFC000
3FFFC000
00000000
00000000
00000000
00000000
00000000
00000000
00000000
00000000
ENDCHAR
STARTCHAR char57365
ENCODING 57415
SWIDTH 960 0
DWIDTH 18 0
BBX 18 36 0 -6
BITMAP
00000000
00000000
00000000
00000000
00000000
00000000
00000000
00000000
00000000
00000000
FFFFC000
FFFFC000
C000C000
C000C000
C000C000
C000C000
C000C000
C000C000
C000C000
C000C000
CFFCC000
CFFCC000
CFCCC000
CFCCC000
CFCCC000
CFCCC000
3FFFC000
3FFFC000
00000000
00000000
00000000
00000000
00000000
00000000
00000000
00000000
ENDCHAR
STARTCHAR char57365
ENCODING 57416
SWIDTH 960 0
DWIDTH 18 0
BBX 18 36 0 -6
BITMAP
00000000
00000000
00000000
00000000
00000000
00000000
00000000
00000000
00000000
00000000
FFFFC000
FFFFC000
C000C000
C000C000
C000C000
C000C000
C000C000
C000C000
C000C000
C000C000
CFFCC000
CFFCC000
CFFCC000
CFFCC000
CFFCC000
CFFCC000
3FFFC000
3FFFC000
00000000
00000000
00000000
00000000
00000000
00000000
00000000
00000000
ENDCHAR
STARTCHAR char57440
ENCODING 57440
SWIDTH 960 0
DWIDTH 18 0
BBX 18 36 0 -6
BITMAP
00000000
00000000
00000000
00000000
00000000
00000000
00000000
00000000
00000000
00000000
00000000
00000000
3FFC0000
3FFC0000
3C3C0000
3C3C0000
3CFC0000
3CFC0000
3FFC0000
3FFC0000
3F3C0000
3F3C0000
3C3C0000
3C3C0000
3FFC0000
3FFC0000
00000000
00000000
00000000
00000000
00000000
00000000
00000000
00000000
00000000
00000000
ENDCHAR
STARTCHAR char57440
ENCODING 57441
SWIDTH 960 0
DWIDTH 18 0
BBX 18 36 0 -6
BITMAP
00000000
00000000
00000000
00000000
00000000
00000000
00000000
00000000
00000000
00000000
00000000
00000000
03F00000
03F00000
03F00000
03F00000
00F00000
00F00000
00F00000
00F00000
00F00000
00F00000
00F00000
00F00000
00F00000
00F00000
00000000
00000000
00000000
00000000
00000000
00000000
00000000
00000000
00000000
00000000
ENDCHAR
STARTCHAR char57440
ENCODING 57442
SWIDTH 960 0
DWIDTH 18 0
BBX 18 36 0 -6
BITMAP
00000000
00000000
00000000
00000000
00000000
00000000
00000000
00000000
00000000
00000000
00000000
00000000
3FFC0000
3FFC0000
003C0000
003C0000
003C0000
003C0000
3FFC0000
3FFC0000
3C000000
3C000000
3C000000
3C000000
3FFC0000
3FFC0000
00000000
00000000
00000000
00000000
00000000
00000000
00000000
00000000
00000000
00000000
ENDCHAR
STARTCHAR char57442
ENCODING 57443
SWIDTH 960 0
DWIDTH 18 0
BBX 18 36 0 -6
BITMAP
00000000
00000000
00000000
00000000
00000000
00000000
00000000
00000000
00000000
00000000
00000000
00000000
3FFC0000
3FFC0000
003C0000
003C0000
003C0000
003C0000
3FFC0000
3FFC0000
003C0000
003C0000
003C0000
003C0000
3FFC0000
3FFC0000
00000000
00000000
00000000
00000000
00000000
00000000
00000000
00000000
00000000
00000000
ENDCHAR
STARTCHAR char57443
ENCODING 57444
SWIDTH 960 0
DWIDTH 18 0
BBX 18 36 0 -6
BITMAP
00000000
00000000
00000000
00000000
00000000
00000000
00000000
00000000
00000000
00000000
00000000
00000000
3C3C0000
3C3C0000
3C3C0000
3C3C0000
3C3C0000
3C3C0000
3C3C0000
3C3C0000
3FFC0000
3FFC0000
003C0000
003C0000
003C0000
003C0000
00000000
00000000
00000000
00000000
00000000
00000000
00000000
00000000
00000000
00000000
ENDCHAR
STARTCHAR char57444
ENCODING 57445
SWIDTH 960 0
DWIDTH 18 0
BBX 18 36 0 -6
BITMAP
00000000
00000000
00000000
00000000
00000000
00000000
00000000
00000000
00000000
00000000
00000000
00000000
3FFC0000
3FFC0000
3C000000
3C000000
3C000000
3C000000
3FFC0000
3FFC0000
003C0000
003C0000
003C0000
003C0000
3FFC0000
3FFC0000
00000000
00000000
00000000
00000000
00000000
00000000
00000000
00000000
00000000
00000000
ENDCHAR
STARTCHAR char57444
ENCODING 57446
SWIDTH 960 0
DWIDTH 18 0
BBX 18 36 0 -6
BITMAP
00000000
00000000
00000000
00000000
00000000
00000000
00000000
00000000
00000000
00000000
00000000
00000000
3FFC0000
3FFC0000
3C000000
3C000000
3C000000
3C000000
3FFC0000
3FFC0000
3C3C0000
3C3C0000
3C3C0000
3C3C0000
3FFC0000
3FFC0000
00000000
00000000
00000000
00000000
00000000
00000000
00000000
00000000
00000000
00000000
ENDCHAR
STARTCHAR char57444
ENCODING 57447
SWIDTH 960 0
DWIDTH 18 0
BBX 18 36 0 -6
BITMAP
00000000
00000000
00000000
00000000
00000000
00000000
00000000
00000000
00000000
00000000
00000000
00000000
3FFC0000
3FFC0000
003C0000
003C0000
003C0000
003C0000
003C0000
003C0000
003C0000
003C0000
003C0000
003C0000
003C0000
003C0000
00000000
00000000
00000000
00000000
00000000
00000000
00000000
00000000
00000000
00000000
ENDCHAR
STARTCHAR U+003d
ENCODING 57502
SWIDTH 960 0
DWIDTH 18 0
BBX 18 36 0 -6
BITMAP
00000000
00000000
00000000
00000000
00000000
00000000
00000000
00000000
00000000
00000000
00000000
00000000
00000000
00000000
00000000
00000000
FFFFC000
FFFFC000
00000000
00000000
00000000
00000000
00000000
00000000
FFFFC000
FFFFC000
00000000
00000000
00000000
00000000
00000000
00000000
00000000
00000000
00000000
00000000
ENDCHAR
STARTCHAR char57503
ENCODING 57503
SWIDTH 960 0
DWIDTH 18 0
BBX 18 36 0 -6
BITMAP
00000000
00000000
00000000
00000000
00000000
00000000
00000000
00000000
00000000
00000000
00000000
00000000
00000000
00000000
00000000
00000000
00000000
00000000
00000000
00000000
FFFFC000
FFFFC000
00000000
00000000
00000000
00000000
00000000
00000000
00000000
00000000
00000000
00000000
00000000
00000000
00000000
00000000
ENDCHAR
STARTCHAR char57584
ENCODING 57520
SWIDTH 960 0
DWIDTH 18 0
BBX 18 36 0 -6
BITMAP
C0000000
C0000000
F0000000
F0000000
FC000000
FC000000
FF000000
FF000000
FFC00000
FFC00000
FFF00000
FFF00000
FFFC0000
FFFC0000
FFFF0000
FFFF0000
FFFFC000
FFFFC000
FFFFC000
FFFFC000
FFFF0000
FFFF0000
FFFC0000
FFFC0000
FFF00000
FFF00000
FFC00000
FFC00000
FF000000
FF000000
FC000000
FC000000
F0000000
F0000000
C0000000
C0000000
ENDCHAR
STARTCHAR char57584
ENCODING 57521
SWIDTH 960 0
DWIDTH 18 0
BBX 18 36 0 -6
BITMAP
C0000000
C0000000
F0000000
F0000000
3C000000
3C000000
0F000000
0F000000
03C00000
03C00000
00F00000
00F00000
003C0000
003C0000
000F0000
000F0000
0003C000
0003C000
0003C000
0003C000
000F0000
000F0000
003C0000
003C0000
00F00000
00F00000
03C00000
03C00000
0F000000
0F000000
3C000000
3C000000
F0000000
F0000000
C0000000
C0000000
ENDCHAR
STARTCHAR char57584
ENCODING 57522
SWIDTH 960 0
DWIDTH 18 0
BBX 18 36 0 -6
BITMAP
0000C000
0000C000
0003C000
0003C000
000FC000
000FC000
003FC000
003FC000
00FFC000
00FFC000
03FFC000
03FFC000
0FFFC000
0FFFC000
3FFFC000
3FFFC000
FFFFC000
FFFFC000
FFFFC000
FFFFC000
3FFFC000
3FFFC000
0FFFC000
0FFFC000
03FFC000
03FFC000
00FFC000
00FFC000
003FC000
003FC000
000FC000
000FC000
0003C000
0003C000
0000C000
0000C000
ENDCHAR
STARTCHAR char57584
ENCODING 57523
SWIDTH 960 0
DWIDTH 18 0
BBX 18 36 0 -6
BITMAP
0000C000
0000C000
0003C000
0003C000
000F0000
000F0000
003C0000
003C0000
00F00000
00F00000
03C00000
03C00000
0F000000
0F000000
3C000000
3C000000
F0000000
F0000000
F0000000
F0000000
3C000000
3C000000
0F000000
0F000000
03C00000
03C00000
00F00000
00F00000
003C0000
003C0000
000F0000
000F0000
0003C000
0003C000
0000C000
0000C000
ENDCHAR
STARTCHAR char57584
ENCODING 57584
SWIDTH 960 0
DWIDTH 18 0
BBX 18 36 0 -6
BITMAP
000FC000
000FC000
00FFC000
00FFC000
03FFC000
03FFC000
0FFFC000
0FFFC000
3FFFC000
3FFFC000
3FFFC000
3FFFC000
FFFFC000
FFFFC000
FFFFC000
FFFFC000
FFFFC000
FFFFC000
FFFFC000
FFFFC000
FFFFC000
FFFFC000
FFFFC000
FFFFC000
3FFFC000
3FFFC000
3FFFC000
3FFFC000
0FFFC000
0FFFC000
03FFC000
03FFC000
00FFC000
00FFC000
000FC000
000FC000
ENDCHAR
STARTCHAR char57584
ENCODING 57585
SWIDTH 960 0
DWIDTH 18 0
BBX 18 36 0 -6
BITMAP
FC000000
FC000000
FFC00000
FFC00000
FFF00000
FFF00000
FFFC0000
FFFC0000
FFFF0000
FFFF0000
FFFF0000
FFFF0000
FFFFC000
FFFFC000
FFFFC000
FFFFC000
FFFFC000
FFFFC000
FFFFC000
FFFFC000
FFFFC000
FFFFC000
FFFFC000
FFFFC000
FFFF0000
FFFF0000
FFFF0000
FFFF0000
FFFC0000
FFFC0000
FFF00000
FFF00000
FFC00000
FFC00000
FC000000
FC000000
ENDCHAR
STARTCHAR U+005b
ENCODING 57586
SWIDTH 960 0
DWIDTH 18 0
BBX 18 36 0 -6
BITMAP
00000000
00000000
00000000
00000000
00FFC000
00FFC000
00F00000
00F00000
00F00000
00F00000
00F00000
00F00000
00F00000
00F00000
00F00000
00F00000
00F00000
00F00000
00F00000
00F00000
00F00000
00F00000
00F00000
00F00000
00F00000
00F00000
00F00000
00F00000
00F00000
00F00000
00F00000
00F00000
00FFC000
00FFC000
00000000
00000000
ENDCHAR
STARTCHAR U+005d
ENCODING 57587
SWIDTH 960 0
DWIDTH 18 0
BBX 18 36 0 -6
BITMAP
00000000
00000000
00000000
00000000
FFC00000
FFC00000
03C00000
03C00000
03C00000
03C00000
03C00000
03C00000
03C00000
03C00000
03C00000
03C00000
03C00000
03C00000
03C00000
03C00000
03C00000
03C00000
03C00000
03C00000
03C00000
03C00000
03C00000
03C00000
03C00000
03C00000
03C00000
03C00000
FFC00000
FFC00000
00000000
00000000
ENDCHAR
STARTCHAR U+005b
ENCODING 57588
SWIDTH 960 0
DWIDTH 18 0
BBX 18 36 0 -6
BITMAP
00000000
00000000
00000000
00000000
FFFF0000
FFFF0000
0F000000
0F000000
0F000000
0F000000
0F000000
0F000000
0F000000
0F000000
0F000000
0F000000
0F000000
0F000000
0F000000
0F000000
0F000000
0F000000
0F000000
0F000000
0F000000
0F000000
0F000000
0F000000
0F000000
0F000000
0F000000
0F000000
FFFF0000
FFFF0000
00000000
00000000
ENDCHAR
STARTCHAR U+005d
ENCODING 57589
SWIDTH 960 0
DWIDTH 18 0
BBX 18 36 0 -6
BITMAP
00000000
00000000
00000000
00000000
3FFFC000
3FFFC000
003C0000
003C0000
003C0000
003C0000
003C0000
003C0000
003C0000
003C0000
003C0000
003C0000
003C0000
003C0000
003C0000
003C0000
003C0000
003C0000
003C0000
003C0000
003C0000
003C0000
003C0000
003C0000
003C0000
003C0000
003C0000
003C0000
3FFFC000
3FFFC000
00000000
00000000
ENDCHAR
ENDFONT
